/* XPM */
static char *result[] = {
/* columns rows colors chars-per-pixel */
"32 32 178 2 ",
"   c #1A0F1D",
".  c #1B111C",
"X  c #2E1B1E",
"o  c #321E1F",
"O  c #1A1221",
"+  c #231D25",
"@  c #2C242A",
"#  c #342324",
"$  c #392A25",
"%  c #2B2933",
"&  c #302F37",
"*  c #35343A",
"=  c #3D3A3D",
"-  c #412B22",
";  c #443629",
":  c #443D3D",
">  c #633D24",
",  c #5A4A36",
"<  c #60482E",
"1  c #78462B",
"2  c #724A28",
"3  c #7E542C",
"4  c #7F723C",
"5  c #272E40",
"6  c #283646",
"7  c #423F42",
"8  c #3A474A",
"9  c #3E5461",
"0  c #33647E",
"q  c #474647",
"w  c #424C45",
"e  c #4C4845",
"r  c #544944",
"t  c #4D5449",
"y  c #4E5B4E",
"u  c #57544C",
"i  c #454B53",
"p  c #485657",
"a  c #4B5D5A",
"s  c #675644",
"d  c #625C50",
"f  c #5B6656",
"g  c #5C6C5A",
"h  c #706B5B",
"j  c #455763",
"k  c #576B6C",
"l  c #814B2C",
"z  c #85532C",
"x  c #8D542C",
"c  c #94572C",
"v  c #965A2C",
"b  c #9B5B2D",
"n  c #864D30",
"m  c #A35F2E",
"M  c #986936",
"N  c #97773D",
"B  c #98763A",
"V  c #A3622C",
"C  c #A9632D",
"Z  c #A5692D",
"A  c #B06A2D",
"S  c #B96E2C",
"D  c #A76832",
"F  c #A86D31",
"G  c #B16C31",
"H  c #A87838",
"J  c #B97833",
"K  c #C7762C",
"L  c #C37A2F",
"P  c #AD843C",
"I  c #B58238",
"U  c #C2863B",
"Y  c #C68B3A",
"T  c #988B49",
"R  c #9D984B",
"E  c #989550",
"W  c #A78747",
"Q  c #A79545",
"!  c #A19549",
"~  c #B49444",
"^  c #AE9B54",
"/  c #A5A04F",
"(  c #ACA44E",
")  c #B8A64D",
"_  c #A8A150",
"`  c #B2AC52",
"'  c #BCB553",
"]  c #A09778",
"[  c #C9AD4D",
"{  c #D2AC49",
"}  c #CFB14E",
"|  c #D4B74F",
" . c #C6B954",
".. c #D8B452",
"X. c #D5BE53",
"o. c #D7B169",
"O. c #CBC459",
"+. c #D9C455",
"@. c #D5C959",
"#. c #D7D05C",
"$. c #DAD35E",
"%. c #D6D277",
"&. c #386781",
"*. c #366981",
"=. c #35748D",
"-. c #3B758D",
";. c #3C7691",
":. c #357A96",
">. c #397B97",
",. c #4F768C",
"<. c #48798C",
"1. c #437B95",
"2. c #4B7B92",
"3. c #447E99",
"4. c #34809A",
"5. c #3689A7",
"6. c #3A89A7",
"7. c #368BAA",
"8. c #3C8EAC",
"9. c #3D91AE",
"0. c #3C92B1",
"q. c #44849E",
"w. c #4E829A",
"e. c #52859E",
"r. c #4989A6",
"t. c #418EAD",
"y. c #5688A4",
"u. c #4291AE",
"i. c #4D95AF",
"p. c #5794AB",
"a. c #4494B1",
"s. c #4A96B3",
"d. c #469AB5",
"f. c #4D9AB5",
"g. c #4C96B9",
"h. c #4D9CB9",
"j. c #5296B4",
"k. c #5A96B4",
"l. c #539AB5",
"z. c #549CBA",
"x. c #5A9EBC",
"c. c #658EA2",
"v. c #6795AA",
"b. c #629CB6",
"n. c #55A0B7",
"m. c #54A1BB",
"M. c #5BA2BD",
"N. c #66A3BA",
"B. c #5E9EC1",
"V. c #5DA3C1",
"C. c #63A5C2",
"Z. c #69A6C2",
"A. c #64A9C4",
"S. c #6BABC5",
"D. c #6DABC9",
"F. c #70ACC7",
"G. c #73ADCB",
"H. c #78AFCD",
"J. c #6FB2CA",
"K. c #75B2CD",
"L. c #7CB3CE",
"P. c #71B8CA",
"I. c #7CB4D1",
"U. c #7EB9D3",
"Y. c #A09F8D",
"T. c #9FA092",
"R. c #AAA884",
"E. c #B1A984",
"W. c #D2C6A0",
"Q. c #80B9CD",
"!. c #83B7D4",
"~. c #83BAD5",
"^. c #8ABDD4",
"/. c #8BBDDB",
"(. c #89C0D5",
"). c #8DC1DA",
"_. c #93C4DD",
"`. c #95C7E0",
/* pixels */
"a.9.9.u.f.a.9.8.t.u.a.t.a.a.8.0.8.8.0.0.0.h.d.a.0.9.t.u.u.u.u.u.",
"u.0.u.u.u.9.9.8.t.t.a.s.t.8.0.8.8.7.0.7.9.9.0.9.9.0.u.s.s.j.z.x.",
"u.9.u.u.t.9.8.8.8.u.a.t.t.t.8.6.0.0.0.0.9.9.9.9.9.u.a.a.s.s.s.s.",
"0.u.a.d.s.a.u.9.t.t.t.8.t.>.:.:.4.7.7.7.7.9.9.9.a.d.a.u.t.u.8.u.",
"i.i.a.a.u.u.a.u.u.a.s.r.;.9 w w 8 =.7.d.d.d.a.9.a.8.8.8.6.7.7.7.",
"d.d.u.9.u.u.u.t.u.g.j.2.k R.` ` ( y =.7.d.d.n.d.8.8.5.5.6.5.7.7.",
"u.u.9.9.9.9.8.8.8.s.r.j ] %.$.$.$.Q 8 4.9.0.d.f.a.t.8.5.5.7.6.7.",
"a.9.9.u.9.u.u.u.g.g.1.7 W X.$.X.+.I @ 4.9.9.9.a.a.8.8.8.6.7.7.8.",
"f.d.u.u.a.u.f.f.h.f.>.= v U [ U I V % q.l.u.8.8.8.t.t.u.8.6.7.8.",
"a.a.u.u.a.s.i.i.i.f.;.* c D W C C C @ 0 r.s.s.u.8.8.8.t.8.7.8.8.",
"f.u.d.a.d.a.s.a.a.a.=.* x G ~ A A b # 8 a 2.i.f.a.a.a.t.0.7.7.7.",
"A.M.m.f.i.s.s.a.s.a.=.= b D H m m C $ R R g 2.l.k.j.j.g.g.a.7.7.",
"M.F.S.N.n.f.f.l.s.r.*.& 1 G ) S S c $ ' @.R a 2.j.x.B.B.B.B.g.g.",
"a.n.M.A.M.h.l.u.<.8 * @ ; 3 M v c A ; ) | H u y.G.Z.x.B.Z.G.H.H.",
"a.0.a.a.n.V.M.2.f / O.O.` , ) L K x $ C F d v.^.~.~././.!.!.!.H.",
"M.M.M.n.h.h.w.f _ $.$.$.#.' # l n S X . 5 e.N.F.L.!.H.H./._._.`.",
"V.C.C.z.f.a.;.e F +.$.$.+.J o K K l @ 3.l.S.I.^.^.(./.~.L.D.C.Z.",
"M.m.m.h.q.5 + # z Y { Y K z X x l # + @ 8 v.I.!.I.I.G.H.I.I.G.x.",
"I.I.I.F.w.q 1 > x V M v b V X Z ; `  . ._ h c.F.D.F.H.H.G.x.u.t.",
"V.M.S.H.p.t 4 < 3 G P Z V 1 . X ) $.$.$.@.! p 1.s.a.g.g.u.a.8.8.",
"d.d.h.V.k.u 4 , 2 n s s , ,   . I X.$.+.| H e 1.a.a.a.u.8.8.u.a.",
"M.m.V.V.3.e n > > h T.E.( P $ . V U [ Y J x 7 >.g.g.a.a.t.t.t.a.",
"A.A.A.C.y.7 > - 7 Y.W.o.{ +.Z . c C H D Z l i &.;.;.q.j.x.s.a.u.",
"K.V.z.h.3.9 7 * r R.o...+.+.J . - x N M z u p a y y a <.s.f.a.a.",
"J.D.V.z.g.r.e.,.y ^ ..+.$.@.J . ; - t e e 9 g E ( ( E g -.u.d.a.",
"V.A.I.L.D.C.V.e.g T [ X.$.@.Z , ! O *.=.&.i T @.$.$.@.T 8 r.s.d.",
"0.V.P.!.!.L.x.p.<.f M P ^ Q 2 P H 6 >.8.>.p B | $.+.} B 8 r.f.f.",
"d.h.z.C.S.S.C.M.f.<.i : ; ; z H 7 1.t.a.t.2.d B ~ I M u 2.l.z.x.",
"m.l.j.m.l.z.x.C.S.N.p.2.6 % = 7 v.Z.M.l.x.b.2.p 7 : i 2.j.h.z.A.",
"M.z.m.x.z.f.j.l.M.A.S.N.b.N.b.p.M.H.!.!.F.Z.Z.b.v.k.b.C.C.V.z.z.",
"f.h.f.s.l.f.f.s.f.l.A.D.S.G.J.K.K.D.P.Q.~.K.C.z.V.I.!.I.H.S.C.B.",
"x.z.f.l.z.z.l.l.m.M.J.~.~.I.U.U.P.K.~./._././.U.J.I.^.)._.).~.K."
};
