/* XPM */
static char *result[] = {
/* columns rows colors chars-per-pixel */
"32 32 189 2 ",
"   c #190F1C",
".  c #15111F",
"X  c #1A111E",
"o  c #29181E",
"O  c #321E1D",
"+  c #281B22",
"@  c #1C2437",
"#  c #28252C",
"$  c #392924",
"%  c #232D3C",
"&  c #383438",
"*  c #412923",
"=  c #4C3629",
"-  c #463B2D",
";  c #473835",
":  c #6C3F28",
">  c #59462E",
",  c #4E4738",
"<  c #74432D",
"1  c #7A492A",
"2  c #7E4C2B",
"3  c #6D552F",
"4  c #6C4C31",
"5  c #6A6339",
"6  c #7D763F",
"7  c #2B3646",
"8  c #353B47",
"9  c #35414F",
"0  c #374754",
"q  c #394F64",
"w  c #39687F",
"e  c #494644",
"r  c #534C49",
"t  c #4C574D",
"y  c #4C5A4F",
"u  c #455257",
"i  c #4E5B51",
"p  c #4B5B5B",
"a  c #545E53",
"s  c #4A615D",
"d  c #5A6255",
"f  c #656749",
"g  c #7D7845",
"h  c #6D6B55",
"j  c #4B6267",
"k  c #576869",
"l  c #4C6675",
"z  c #576C76",
"x  c #6B716D",
"c  c #7A7868",
"v  c #864C2F",
"b  c #8A542C",
"n  c #92542F",
"m  c #9B5C29",
"M  c #8B5030",
"N  c #945631",
"B  c #85743E",
"V  c #AE672A",
"C  c #B76C2C",
"Z  c #BD722F",
"A  c #A56F31",
"S  c #A97737",
"D  c #A77935",
"F  c #AB763A",
"G  c #AB7A3B",
"H  c #C2762D",
"J  c #CC7C2D",
"K  c #D27E2D",
"L  c #C47A31",
"P  c #9C6D41",
"I  c #897C42",
"U  c #9D764B",
"Y  c #807E71",
"T  c #AE813D",
"R  c #B8843B",
"E  c #CC8B37",
"W  c #D48C35",
"Q  c #D39136",
"!  c #D39238",
"~  c #8B874A",
"^  c #968747",
"/  c #988B56",
"(  c #AD854A",
")  c #AA9043",
"_  c #B19C46",
"`  c #ABA44D",
"'  c #B4A651",
"]  c #BBA655",
"[  c #B2AC51",
"{  c #8F8B77",
"}  c #B6A176",
"|  c #C69551",
" . c #C5A94E",
".. c #D5A543",
"X. c #C4B956",
"o. c #CABB55",
"O. c #D6BE52",
"+. c #D8AE62",
"@. c #C6C15B",
"#. c #D7C354",
"$. c #D8C052",
"%. c #D7C95A",
"&. c #D7D15F",
"*. c #DAD25E",
"=. c #CEC161",
"-. c #D9D362",
";. c #DACA70",
":. c #DAD879",
">. c #2F6F8A",
",. c #376E86",
"<. c #2E7289",
"1. c #3E7287",
"2. c #33738D",
"3. c #38758D",
"4. c #3A7691",
"5. c #3C7A94",
"6. c #3D7D9A",
"7. c #427285",
"8. c #437A8E",
"9. c #427B94",
"0. c #447E9B",
"q. c #4D7F9A",
"w. c #3E809A",
"e. c #3D87A5",
"r. c #3689A7",
"t. c #3889A7",
"y. c #368BAA",
"u. c #3B8EAC",
"i. c #3C91AD",
"p. c #3F8FB0",
"a. c #3E93B1",
"s. c #468098",
"d. c #4C859D",
"f. c #598397",
"g. c #408EAD",
"h. c #4B8DAA",
"j. c #5A8BA5",
"k. c #4291AE",
"l. c #4A92AE",
"z. c #4494B1",
"x. c #4A96B4",
"c. c #4699B5",
"v. c #4C99B5",
"b. c #4D96B9",
"n. c #4C9BB9",
"m. c #5197B6",
"M. c #529CB6",
"N. c #549CBA",
"B. c #5A9EBC",
"V. c #648FA7",
"C. c #6695AD",
"Z. c #719AB0",
"A. c #50A0B7",
"S. c #56A1BB",
"D. c #5BA2BD",
"F. c #61A3BE",
"G. c #5E9FC1",
"H. c #5DA4C1",
"J. c #63A6C2",
"K. c #69A4C3",
"L. c #65A9C4",
"P. c #6BABC5",
"I. c #67A8C8",
"U. c #6DACC9",
"Y. c #71ACC6",
"T. c #72ACCA",
"R. c #78AFCD",
"E. c #6EB1CA",
"W. c #74B2CD",
"Q. c #7AB3CE",
"!. c #71B8CA",
"~. c #7CB4D1",
"^. c #7AB9D3",
"/. c #9D9882",
"(. c #ADB18A",
"). c #CFB680",
"_. c #DAD88B",
"`. c #D5CB97",
"'. c #DADDA6",
"]. c #83B5D4",
"[. c #84BBD4",
"{. c #8ABED6",
"}. c #84B9D9",
"|. c #8EBFDD",
" X c #8EC1DB",
".X c #93C4DD",
"XX c #95C7E0",
"oX c #D4DDC2",
"OX c #D3E1C8",
/* pixels */
"z.i.i.z.x.z.i.u.u.g.l.k.k.z.i.i.i.a.i.i.a.n.c.a.a.i.g.z.k.k.g.g.",
"k.a.k.k.k.i.i.u.u.k.l.z.g.u.i.i.y.y.y.i.i.i.a.a.i.a.k.x.x.v.B.B.",
"i.i.i.k.u.i.u.u.u.k.l.k.k.u.u.u.y.a.a.i.i.i.u.i.i.z.z.z.x.b.v.x.",
"z.k.z.c.x.z.k.k.k.i.u.g.g.p.u.u.i.i.y.y.u.a.i.a.z.z.z.i.g.g.g.u.",
"z.c.z.k.l.z.z.k.k.z.x.l.z.u.u.i.i.y.i.a.c.c.c.a.k.g.u.y.t.y.y.y.",
"v.c.k.i.i.k.k.u.k.m.N.N.b.z.u.i.i.a.i.a.c.A.A.c.k.u.y.r.t.r.y.y.",
"l.k.i.i.i.i.u.u.i.x.M.S.m.6.k.z.a.a.i.y.a.a.a.c.z.u.u.r.r.r.y.u.",
"z.i.k.i.i.i.z.l.x.x.m.l.9.l 3.c.c.c.w.y.a.i.a.a.z.u.g.u.t.r.y.u.",
"v.z.z.l.z.z.x.v.M.v.l.4.z { r 2.z.2.s 8.l.z.u.u.g.k.g.g.u.y.y.u.",
"z.k.a.k.z.k.6.9.l.v.6.q Y ] v % y.7 I u h.M.x.e.6.e.g.u.u.u.u.u.",
"c.l.z.z.z.6.0 0 7.k.3.7 h ' 4 . <.# A & w 9.s.1.w 1.g.g.p.y.y.y.",
"L.D.A.A.b.6.e 4 u 5.2.9 { X.b X @ * m * % 9 7 ; 5 u 9.m.z.z.y.y.",
"D.E.P.F.D.s.p c p w ,.& , [ $ O O m N < ; c 8 + = 8 q.G.G.G.b.b.",
"z.v.D.F.D.9.a g , # - 1 > ` O V V n M m > ~ - o O 8 q.G.K.R.~.R.",
"c.k.z.v.A.d.a 6 5 B 3 > [ X.$ 2 M v v < > I = : v r Z.}.}.~.~.R.",
"D.D.D.A.v.9.y 6 ,   * C #.&.@.# v v < - _ Z *     7 V.R.|..X.XXX",
"H.I.L.S.v.5.t ` ` 3 S O.o.U oXOX+ 1 < = _ W Z F ^ a Z.[.~.U.G.K.",
"S.S.A.v.v.5.e D o.#.*.o.G ] P -.Z $ $ V J K H S ^ a j.R.~.~.T.B.",
"~.~.Q.U.B.9.e D $.*.*.o.A E L *.#.X.X.W K K Z T ^ d V.Q.T.B.l.g.",
"H.S.P.Q.Y.d.e S %.-.*.#.| Z S &.*.*.O.W K H G  ._ t 9.v.k.z.u.u.",
"n.c.n.H.I.j.r ( ;.;.%.:.`.( X.*.*.$.W K J Z R o.` t 4.p.u.u.k.z.",
"S.H.H.H.H.j.k ~ ]  .+.`.'.=.&.&.$.! W K J R [ [ ~ p 6.z.k.g.g.z.",
"I.H.H.J.J.J.f.k h / } )._.:.*.*...! ! Q E ) ^ f s 8.l.B.B.v.z.k.",
"!.H.G.n.H.I.Z.C.q.x x /.(.(.[ ` ) ) ) ) ^ f j 7.9.g.z.x.n.v.z.z.",
"U.U.H.G.n.H.I.W.W.C.f.z k j i i i y i i j l 0.l.v.x.z.z.z.z.z.z.",
"n.U.~.W.U.I.H.H.F.F.F.d.5.3.2.2.>.>.>.2.5.x.v.l.k.x.v.z.x.x.c.x.",
"a.H.E.].{.Q.D.N.M.M.D.D.D.D.S.c.a.u.y.y.z.m.F.F.N.v.v.x.v.b.m.b.",
"A.n.S.L.P.Y.F.S.N.A.D.F.W.~.Q.W.H.x.z.z.x.B.F.Y.W.F.N.m.M.N.B.S.",
"S.M.M.A.M.N.D.J.P.P.L.L.U.W.U.^.Q.P.B.M.B.F.F.I.I.T.I.B.m.b.S.L.",
"D.S.N.N.M.m.m.M.D.J.F.F.L.Q.W.H.S.W.[.~.T.F.Y.Y.P.I.P.I.I.H.N.B.",
"x.v.b.m.M.v.v.x.c.A.L.P.L.W.E.W.~.U.W.^.[.Q.J.N.F.~.].~.T.U.J.B.",
"S.M.M.M.N.N.M.m.S.D.E.[.[.~.].^.!.W.^..X.X X{.^.E.~.[..X.X X[.W."
};
