/* XPM */
static char *result[] = {
/* columns rows colors chars-per-pixel */
"32 32 209 2 ",
"   c #321E1F",
".  c #36211E",
"X  c #3C2521",
"o  c #30252D",
"O  c #282E3D",
"+  c #37363C",
"@  c #43281F",
"#  c #492C23",
"$  c #553527",
"%  c #473B37",
"&  c #6C3F2D",
"*  c #633D30",
"=  c #59432E",
"-  c #4B4539",
";  c #5E4B31",
":  c #564439",
">  c #6C452C",
",  c #76452C",
"<  c #684B39",
"1  c #7D4B30",
"2  c #655232",
"3  c #685534",
"4  c #7C5937",
"5  c #283849",
"6  c #383944",
"7  c #443D44",
"8  c #39444D",
"9  c #28485D",
"0  c #384A56",
"q  c #366479",
"w  c #424344",
"e  c #4B4441",
"r  c #464A4A",
"t  c #594E46",
"y  c #4B514A",
"u  c #5C594D",
"i  c #484D54",
"p  c #4C5455",
"a  c #715443",
"s  c #5B634E",
"d  c #696B4F",
"f  c #476064",
"g  c #536564",
"h  c #456E7F",
"j  c #834B2D",
"k  c #87552D",
"l  c #8C522E",
"z  c #95562E",
"x  c #96582D",
"c  c #9B5C2E",
"v  c #864D31",
"b  c #884F31",
"n  c #8B5232",
"m  c #8B5931",
"M  c #935530",
"N  c #915A35",
"B  c #9F612C",
"V  c #946233",
"C  c #9B6334",
"Z  c #97693A",
"A  c #A3632B",
"S  c #AB672A",
"D  c #A36B2E",
"F  c #AE6A2C",
"G  c #B26B2A",
"H  c #BA6D2B",
"J  c #BE712C",
"K  c #A36834",
"L  c #AB7336",
"P  c #A4773B",
"I  c #A97639",
"U  c #B47732",
"Y  c #BA7832",
"T  c #C2742D",
"R  c #C8762C",
"E  c #CC792C",
"W  c #D17D2C",
"Q  c #C37630",
"!  c #C37B33",
"~  c #996C4F",
"^  c #93784F",
"/  c #AA7942",
"(  c #BF8639",
")  c #D2812F",
"_  c #CA8333",
"`  c #C88937",
"'  c #D18431",
"]  c #D38C35",
"[  c #CB923B",
"{  c #D3933A",
"}  c #D69D3D",
"|  c #9A8943",
" . c #989653",
".. c #AC8545",
"X. c #A18A41",
"o. c #AA8943",
"O. c #B88A44",
"+. c #A99847",
"@. c #AF9946",
"#. c #B39343",
"$. c #B79645",
"%. c #B59B4B",
"&. c #BA9D4B",
"*. c #B29452",
"=. c #B5A24C",
"-. c #AFA753",
";. c #A59065",
":. c #B3B068",
">. c #CA8B44",
",. c #C29E46",
"<. c #CA9B43",
"1. c #D69C49",
"2. c #D39A56",
"3. c #C6A549",
"4. c #C4AA4D",
"5. c #D5A442",
"6. c #D6A944",
"7. c #D5A94B",
"8. c #CCB14E",
"9. c #D4B44D",
"0. c #D9BA4F",
"q. c #C2AF51",
"w. c #D6AC59",
"e. c #C7B655",
"r. c #CAB452",
"t. c #D4BA52",
"y. c #D8BE51",
"u. c #D8B463",
"i. c #CFC458",
"p. c #D6C85A",
"a. c #D9D05C",
"s. c #CEC163",
"d. c #D5C866",
"f. c #D0CD70",
"g. c #366C84",
"h. c #396C82",
"j. c #377287",
"k. c #377693",
"l. c #347A96",
"z. c #3C7995",
"x. c #3B7F9C",
"c. c #497789",
"v. c #52798E",
"b. c #467B96",
"n. c #427C96",
"m. c #3D809B",
"M. c #3B87A4",
"N. c #3B88A6",
"B. c #368BAA",
"V. c #3B8DAB",
"C. c #3D91AD",
"Z. c #398BB0",
"A. c #3D91B0",
"S. c #44819B",
"D. c #4C819A",
"F. c #5D859E",
"G. c #4284A2",
"H. c #4B8AA4",
"J. c #418EAD",
"K. c #528AA5",
"L. c #578BA7",
"P. c #4291AE",
"I. c #4A93AE",
"U. c #5592AA",
"Y. c #4494B1",
"T. c #4A96B4",
"R. c #4898B6",
"E. c #4C99B5",
"W. c #4C9CB9",
"Q. c #5197B4",
"!. c #529BB5",
"~. c #549CBA",
"^. c #5A9EBD",
"/. c #6390AB",
"(. c #6696B0",
"). c #729AB4",
"_. c #54A1B9",
"`. c #5BA3BD",
"'. c #62A3BE",
"]. c #69A1B8",
"[. c #7BA4BA",
"{. c #5DA3C1",
"}. c #64A6C2",
"|. c #6AA6C3",
" X c #65A9C4",
".X c #6AABC5",
"XX c #6DACC9",
"oX c #72A8C3",
"OX c #73ACCB",
"+X c #6DB1C8",
"@X c #75B2CC",
"#X c #7AB1CE",
"$X c #71B9C8",
"%X c #7CB4D1",
"&X c #7AB8D3",
"*X c #9C9A85",
"=X c #A9A081",
"-X c #AEB6A7",
";X c #C6B28A",
":X c #D2CD8E",
">X c #DBE090",
",X c #CDCBAF",
"<X c #DAE1BF",
"1X c #84B6D4",
"2X c #84BBD4",
"3X c #89BED9",
"4X c #8EC1DA",
"5X c #93C4DD",
"6X c #95C7E0",
/* pixels */
"Y.C.C.I.R.Y.C.V.V.Y.Y.J.I.P.V.A.C.C.A.B.A.W.R.A.A.C.J.Y.P.P.J.I.",
"P.C.P.P.C.P.V.C.V.P.Y.Y.Z.P.V.V.B.A.A.C.C.A.A.C.C.Y.Y.Y.T.Q.~.^.",
"C.C.C.P.J.A.C.V.V.Y.J.M.x.x.x.B.B.A.C.C.A.C.V.V.C.Y.Y.Y.I.T.T.T.",
"Y.P.Y.R.T.Y.P.P.J.m.h.0 + + + k.m.B.B.C.V.C.C.V.Y.Y.A.Y.P.P.A.Z.",
"R.I.I.P.P.Y.Y.J.g.5 i *X..A 1 % O j.l.P.W.R.R.Y.Y.V.V.N.N.B.B.B.",
"R.R.C.C.J.P.C.z.9 o a =X*.[ ` A d 8 8 g.x.R.W.E.A.V.B.B.N.B.B.B.",
"I.C.C.C.C.C.V.N.q % m < 3 X.#.{ :XI 4 - 8 h.S.Y.Y.J.V.B.B.B.N.B.",
"I.P.C.P.C.C.P.T.x.i k 1 & 2 2 o.:.9.4.D v - 0 q z.G.V.V.N.B.B.Z.",
"R.R.Y.P.P.Y.E.E.I.h : A n & & ; ; +.=.[ _ C 4 u f j.M.J.V.N.B.V.",
"Y.C.P.P.I.Y.Y.I.E.S.i k x j j & , ; 2 | #.>.O.;.^ p h.J.V.V.V.V.",
"E.Y.Y.Y.Y.R.I.P.T.P.q : A n j z J > & = 2 | &.*.~ 2 w g.N.V.B.B.",
" X`._.W.R.I.E.I.I.P.z.8 z l x R W x v , > > Z O.U l * 8 M.A.Z.Z.",
"`.+X'.'.`.!.I.!.!.E.S.q = l A G W T M M n c K ! T z & 6 K.^.T.T.",
"I.W.`. X`._.!.I.H.c.8 % B F # # H J R J c K $.L S z & 6 L.#X%X%X",
"Y.A.Y.Y.W.`.^.D.8 - X.U z n J T . X F T R ] <./ S c & 7 ).%X1X#X",
"`.`.`._.E.n.5 % -.=.Z m b b n E E J   X S E { <.L T A 7 [.6X5X6X",
"{. X}.H.O r -X,X^ b v ~ ,X<Xd.n n n n A X @ I &.I x t ).%X|.}.'.",
"^._.~.G.0 ;.2.1.t.w.] ! Z V ` N ,Xd.r.C k x $ # $ 7 F.oX%X%XOX^.",
"&X&X%X(.i -.p.0.1.} t.3.P ! r.q.>._ Y x N ( ( V # 5 /.#XXX^.I.Z.",
"{.`. X(.y %.6.9.y.0.<...&.4.P / M x Z Z %.=.( K l - b.T.T.T.V.V.",
"R.R.W.H.y +.} 1.6.p.p.8.( | %.=.~ ~ %.$./ L Y E A e z.Z.N.V.A.P.",
"_.{.{.K.y +.7.t.d.d.i.p.3.3.o.o.;X;X/ L J R ' 1.L e z.R.P.P.J.Y.",
" X X XK.r | s.>X>Xs.$.8.} { ,.8.w.2.Q R E W 1.w.I e b.~.~.E.P.Y.",
"@X{.~.H.0 s  .:.f.e.%.8.] ) { i.y.' W W W ] 1.u./ e z.R.Q.E.Y.Y.",
"XXXX{.W.b.c.g d  .@.4.i.] ) ) { a.' W { { 5.7.>.m + z.R.I.Y.R.R.",
"W. X%X@XOX}.K.v.g d | ( _ E W ) a.' { 5.6.[ U c : 0 n.Y.Y.R.R.I.",
"R.`.@X2X2X#X{.E.S.h p u B G ] ] a.] 5.{ U V t p c.D.I.E.T.~.T.T.",
"W.W._. XoX.X'.`._.U.K.v.y t +.=.a.) U B : i v.(.|.}.~.E.~.~.~.^.",
"`.!.!._.!.~.`.}..X.X X'.(.F.r r -.U % w v.U.'. XXXXX.X^.Q.~.~. X",
"`._.~.~.~.!.E.!.`.}.'.'. X$X].K.+ + ).[.|.|.|.OX|.XX X|.}.{.~.~.",
"E.E.T.Q.!.E.E.T.E.~. X+X.X+X@X@X|.}.+X2X2X@X}.~.{.%X1X%XOXXX}.^.",
"^.~.Q.~.~.~.~.!._.`.XX2X3X%X1X&X$X@X2X4X5X4X3X&XOX%X3X4X5X3X1X#X"
};
