/* XPM */
static char *result[] = {
/* columns rows colors chars-per-pixel */
"32 32 182 2 ",
"   c #2A1E28",
".  c #26202C",
"X  c #2C232C",
"o  c #362729",
"O  c #482D24",
"+  c #44403F",
"@  c #6C412F",
"#  c #79472E",
"$  c #7D4E32",
"%  c #6D5338",
"&  c #785132",
"*  c #383C46",
"=  c #3F4249",
"-  c #3D4855",
";  c #424C43",
":  c #494748",
">  c #564A43",
",  c #47534A",
"<  c #4C554D",
"1  c #4D5B4E",
"2  c #525A4F",
"3  c #5C5F4A",
"4  c #465553",
"5  c #4B5D5B",
"6  c #48615E",
"7  c #5F6557",
"8  c #5C6B5C",
"9  c #626550",
"0  c #515C62",
"q  c #4C6364",
"w  c #546465",
"e  c #586762",
"r  c #834B2F",
"t  c #86522D",
"y  c #8D522F",
"u  c #95552F",
"i  c #97582F",
"p  c #9B5A2D",
"a  c #874E30",
"s  c #855734",
"d  c #8C5332",
"f  c #945931",
"g  c #846137",
"h  c #956339",
"j  c #966B3A",
"k  c #986939",
"l  c #9C723C",
"z  c #A3632B",
"x  c #B06C2B",
"c  c #BB6E2D",
"v  c #BF702C",
"b  c #AD7335",
"n  c #A3723C",
"m  c #A97539",
"M  c #BD7531",
"N  c #C6762D",
"B  c #CC7B2C",
"V  c #D17C2C",
"C  c #C37834",
"Z  c #966A4F",
"A  c #877742",
"S  c #9D7753",
"D  c #A1744B",
"F  c #A77D5A",
"G  c #BF833A",
"H  c #C68436",
"J  c #CE8332",
"K  c #CE8833",
"L  c #C18639",
"P  c #C4893A",
"I  c #D28D37",
"U  c #CA953F",
"Y  c #D39236",
"T  c #8E8446",
"R  c #948547",
"E  c #988547",
"W  c #9D8A46",
"Q  c #938A56",
"!  c #A68745",
"~  c #B98546",
"^  c #AA9343",
"/  c #A5954A",
"(  c #BB9746",
")  c #AA895C",
"_  c #9F9079",
"`  c #A8866A",
"'  c #B39E6F",
"]  c #A09577",
"[  c #C88848",
"{  c #D38F48",
"}  c #C49F47",
"|  c #D09342",
" . c #D39349",
".. c #CE985A",
"X. c #CBA84A",
"o. c #D7AB48",
"O. c #D5BA4F",
"+. c #CAAB51",
"@. c #C7B251",
"#. c #D8C355",
"$. c #D9C857",
"%. c #D6CB5A",
"&. c #DBD35E",
"*. c #376F87",
"=. c #377188",
"-. c #3C748C",
";. c #347996",
":. c #3B7B96",
">. c #3B7C98",
",. c #45768B",
"<. c #497B8E",
"1. c #457A94",
"2. c #437E9A",
"3. c #487E98",
"4. c #507F91",
"5. c #378AA7",
"6. c #3A89A5",
"7. c #378BAA",
"8. c #3B8DAC",
"9. c #3D91AE",
"0. c #3F8FB0",
"q. c #41849F",
"w. c #4D859E",
"e. c #558296",
"r. c #5A869D",
"t. c #638E9E",
"y. c #4B89A2",
"u. c #418EAD",
"i. c #548CA5",
"p. c #5B89A3",
"a. c #4291AE",
"s. c #4A92AE",
"d. c #5D90A5",
"f. c #4494B1",
"g. c #4A96B3",
"h. c #4699B5",
"j. c #4C99B5",
"k. c #4A97B9",
"l. c #4E9BB9",
"z. c #5196B5",
"x. c #529BB6",
"c. c #5899B5",
"v. c #549DBA",
"b. c #5A9EBC",
"n. c #6693A9",
"m. c #6596AF",
"M. c #7197AE",
"N. c #659BB3",
"B. c #6B9CB5",
"V. c #51A2B7",
"C. c #56A1BC",
"Z. c #5BA3BD",
"A. c #63A4BD",
"S. c #6FA3BB",
"D. c #5E9FC1",
"F. c #5DA4C1",
"G. c #63A6C2",
"H. c #69A5C5",
"J. c #64A9C3",
"K. c #6BABC5",
"L. c #66AAC8",
"P. c #6DACC9",
"I. c #75AFC7",
"U. c #72ADCA",
"Y. c #6CB1CA",
"T. c #74B2CD",
"R. c #7AB2CE",
"E. c #78B9CD",
"W. c #76B6D1",
"Q. c #7CB4D1",
"!. c #7EB9D3",
"~. c #C4AA84",
"^. c #CCB38A",
"/. c #CBB995",
"(. c #83B6D4",
"). c #83BBD4",
"_. c #8BBED5",
"`. c #85B9D8",
"'. c #8EBFDD",
"]. c #89C0D5",
"[. c #8DC1DA",
"{. c #93C4DD",
/* pixels */
"f.9.a.a.h.a.9.8.u.a.a.u.a.a.9.9.9.9.9.7.9.V.h.9.9.9.a.a.a.a.a.a.",
"f.9.a.a.a.a.9.8.8.a.g.f.u.a.9.8.7.7.9.9.9.9.9.9.9.9.a.h.s.x.c.b.",
"9.9.9.a.u.a.8.8.8.a.a.a.a.9.8.7.7.7.9.9.9.9.9.9.9.f.h.s.s.k.k.k.",
"f.a.f.h.g.f.a.a.a.a.9.y.>.>.>.;.;.;.;.5.6.9.9.9.h.h.9.a.a.u.8.u.",
"s.h.f.s.s.f.f.f.s.u.:.*.4 ; ; ; ; ; ; - q.q.a.a.a.9.8.7.6.8.7.8.",
"h.h.9.9.9.a.9.8.6.,.6 3 T W W ! W R W T 3 1 <.a.a.8.5.7.5.5.7.7.",
"s.a.9.9.9.9.8.6.=.8 R W l j k m m G j l G T 8 ,.u.8.8.6.5.7.5.8.",
"s.a.9.a.9.9.s.:.q Q ~ k d u p L G G f s G } T 6 >.u.u.8.5.7.7.7.",
"h.h.h.a.f.f.h.:.w ] D r f D I o.#.O.M i c K ^ 1 *.8.u.u.0.7.7.8.",
"f.a.a.a.f.s.s.,.0 _ ` Z f ( X.P @.@.v i m U W , *.0.u.u.0.5.7.8.",
"h.h.f.f.f.g.h.-.: S ~.~.F ) ) F ) ! n l ^ ( g = -.u.f.u.u.7.7.7.",
"J.Z.V.j.h.g.g.-.* $ [ ..^././././.+.X.} D h & = 1.z.z.k.k.f.7.7.",
"Z.I.K.A.b.j.j.2.: @ p C  . .{ [ [ P H M f j A 1 3.b.D.D.D.D.k.k.",
"f.l.Z.J.Z.x.l.s.-.: p b X.I J i i i p y h W 7 r.K.L.N.D.H.U.Q.Q.",
"f.9.h.h.l.F.F.F.w.: z B Y $.$.V B N v y j W 7 M.`.(.(.(.`.Q.Q.(.",
"Z.Z.Z.x.x.x.Z.G.A.3.: b O.&.&.&.B y r h W 2 r.I.!.(.R.(.`.{.{.{.",
"F.L.J.v.h.h.h.h.h.h.:.+ x I %.%.d r s / < p.R._._.].'.(.Q.H.G.H.",
"v.V.V.v.j.j.l.l.g.f.j.w.* o $ d r # o * n.R.).(.Q.R.U.R.Q.Q.U.b.",
"!.Q.R.P.b.j.j.V.Z.J.F.J.N.d.X d a X n.S.I.!.Q.I.P.U.R.Q.P.b.s.u.",
"F.Z.J.R.P.Z.l.k.V.Z.L.Y.Y.N.. c d . B.F.V.v.v.k.f.f.z.g.s.f.8.8.",
"j.h.l.F.L.P.K.F.V.F.V.F.v.e.  B v   1.g.f.h.l.j.f.a.a.a.8.9.9.f.",
"V.F.F.F.F.L.P.T.T.Y.H.i.,.: O B B o 2 e.w.s.g.j.x.k.g.f.9.a.8.f.",
"L.F.G.F.G.L.P.T.T.I.t.w > t z V V r A 9 e e.k.j.f.f.k.b.v.k.f.a.",
"W.F.D.l.F.F.P.T.E.m.e Q D C V V V N n E A 5 y.v.g.f.f.k.x.l.f.f.",
"L.P.F.v.D.D.L.T.T.N.e Q ' | Y Y | B d s % 4 2.j.k.g.g.a.f.f.f.j.",
"V.L.R.R.L.L.F.F.A.A.e.q 8 / ^ ^ ^ z @ o * ,.s.f.a.g.k.f.f.g.g.h.",
"h.Z.T.(.`.R.Z.x.j.c.c.i.4.5 < < < ; * *.>.z.Z.A.b.g.j.k.k.l.z.k.",
"j.k.C.J.K.P.A.Z.C.x.V.J.K.B.M.m.i.1.>.8.k.D.A.I.I.G.x.x.x.v.v.b.",
"C.x.z.C.c.x.Z.J.K.P.A.A.Y.T.Y.W.R.K.b.x.b.A.A.H.L.U.J.b.x.l.v.J.",
"Z.C.v.v.x.l.z.x.Z.A.K.A.K.T.T.F.Z.U.).Q.U.H.H.P.K.L.J.H.H.F.x.b.",
"h.z.z.k.v.j.j.g.h.x.J.Y.L.U.Y.R.R.Y.T.!._.T.G.x.G.Q.(.(.U.K.G.D.",
"Z.x.x.x.x.x.x.x.C.Z.Y.).`.R.Q.!.T.T.).[.{.].`.!.T.Q.`.{.{.'.).T."
};
