/* XPM */
static char *_19f4e4af78d492d8e22ce33faa459e1itkccEYPk0MOy50a[] = {
/* columns rows colors chars-per-pixel */
"32 32 181 2 ",
"   c #574666",
".  c #584769",
"X  c #685B77",
"o  c #6F627C",
"O  c #72647D",
"+  c #7A778C",
"@  c #847F95",
"#  c #3689A7",
"$  c #3889A7",
"%  c #368BAA",
"&  c #3C8EAC",
"*  c #3791AC",
"=  c #3D91AD",
"-  c #3F92B0",
";  c #418EAD",
":  c #4292AE",
">  c #449CAE",
",  c #428FB1",
"<  c #4494B1",
"1  c #4A96B4",
"2  c #459BB2",
"3  c #4C9AB5",
"4  c #4D96B9",
"5  c #4E9BB8",
"6  c #5297B4",
"7  c #529CB6",
"8  c #5197B8",
"9  c #539CBA",
"0  c #5A9EBC",
"q  c #43A0B2",
"w  c #4DA2B4",
"e  c #4CABB4",
"r  c #4EA3B8",
"t  c #4FABBA",
"y  c #54A7B7",
"u  c #52ACB5",
"i  c #54A3BA",
"p  c #5BA2BD",
"a  c #53ACBB",
"s  c #5EA9BE",
"d  c #4DB1B5",
"f  c #52B9B6",
"g  c #55B4B9",
"h  c #5BB4BC",
"j  c #55BCB9",
"k  c #5DBCBC",
"l  c #61A4BF",
"z  c #64ACBF",
"x  c #61BEBE",
"c  c #56C2BE",
"v  c #5BC5BC",
"b  c #5DCBBE",
"n  c #5CD0BB",
"m  c #60C3BE",
"M  c #62CABC",
"N  c #67D3BD",
"B  c #6CD3BB",
"V  c #75D5B7",
"C  c #69E2BF",
"Z  c #5E9EC1",
"A  c #5CA4C1",
"S  c #4CBAC7",
"D  c #4DBBC8",
"F  c #5EB3C1",
"G  c #52BBC9",
"H  c #59BFCD",
"J  c #64A6C2",
"K  c #69A5C5",
"L  c #64AAC3",
"P  c #6AABC6",
"I  c #67A8C8",
"U  c #6EADC9",
"Y  c #70AEC7",
"T  c #74ACCB",
"R  c #78AFCD",
"E  c #63B0C4",
"W  c #69B6C6",
"Q  c #66BFC3",
"!  c #6CBAC7",
"~  c #6DB2CA",
"^  c #6FB8C9",
"/  c #71B9C7",
"(  c #74B3CD",
")  c #7BB2CE",
"_  c #74BBCA",
"`  c #7BBCCE",
"'  c #76B6D1",
"]  c #7CB4D1",
"[  c #7CBCD2",
"{  c #54C3C5",
"}  c #5CC4C7",
"|  c #5BCBC2",
" . c #52C4CA",
".. c #55CBCB",
"X. c #5BCCCC",
"o. c #5DD3C4",
"O. c #5FD8C5",
"+. c #5DD3C9",
"@. c #66C1C2",
"#. c #68C5C5",
"$. c #64CAC2",
"%. c #6DCCC5",
"&. c #64C4CF",
"*. c #6DC7CF",
"=. c #61CCCE",
"-. c #6ECFC8",
";. c #73C3CA",
":. c #72CFC9",
">. c #62D4C3",
",. c #6AD5C3",
"<. c #64DBC3",
"1. c #6ADBC3",
"2. c #6BD4C9",
"3. c #67DCCA",
"4. c #6FDAC8",
"5. c #71D7CC",
"6. c #61CFD0",
"7. c #68CED0",
"8. c #7AC7D4",
"9. c #65D1D1",
"0. c #6BD1D2",
"q. c #7BD3D5",
"w. c #67E3C4",
"e. c #69E5C4",
"r. c #6AE8C3",
"t. c #6EE5C9",
"y. c #72E6C9",
"u. c #79E7CC",
"i. c #7CE8CE",
"p. c #86879B",
"a. c #9199AC",
"s. c #9899AB",
"d. c #9BA6B5",
"f. c #9CAEBA",
"g. c #A1A4B3",
"h. c #ABA9B7",
"j. c #AFA8B8",
"k. c #A1B5BE",
"l. c #88E5AC",
"z. c #81E1B3",
"x. c #8ABAC8",
"c. c #9DBEC7",
"v. c #97BDCA",
"b. c #84B6D4",
"n. c #83BBD5",
"m. c #8ABED6",
"M. c #85BAD9",
"N. c #8EBFDD",
"B. c #90C7CC",
"V. c #9AC7CC",
"C. c #80C2D2",
"Z. c #8EC9D1",
"A. c #8EC2DA",
"S. c #92CFD2",
"D. c #9BCAD4",
"F. c #93C4DE",
"G. c #88D8D6",
"H. c #89D7DB",
"J. c #80D8D9",
"K. c #95D8D4",
"L. c #92D7DC",
"P. c #BDC1CC",
"I. c #A6CDD2",
"U. c #A8DAD1",
"Y. c #A7D4D9",
"T. c #A0D8D9",
"R. c #B1D6DE",
"E. c #88E7D3",
"W. c #9AECD5",
"Q. c #9EE8D9",
"!. c #A1E3DF",
"~. c #95C7E2",
"^. c #ABDEE2",
"/. c #9DE1E0",
"(. c #A1E3E2",
"). c #B5F2E3",
"_. c #C4C8D3",
"`. c #C4EEED",
"'. c #CBEFEF",
"]. c #DAEAE9",
"[. c #C9F1E8",
/* pixels */
"< = ; < 1 < = & & : < : : < = * * * * * - 5 2 < - & ; < < : : ; ",
"< = : : ; = & & & : < < & , = * * * * * * = - = = = < < 1 3 9 0 ",
": = = : ; = & & & : : : : : = q q q 2 = = * & & = < < < < 1 1 1 ",
"< : < 1 1 < : : : = : : > e e o.>.>.c 2 = = = = < < < : : = = & ",
"1 < : < : < < < < 2 w d c o.o.D S D { c t 5 1 < : = & % $ % % % ",
"1 < : = = : : & 2 h } | { D S S S S D { c a 9 1 : & % # $ % % % ",
"< : = = = & & > f N N { &.8.H S S S S D { c a 1 < & & % $ # % & ",
"< : = : = = 2 j | z.l.-.x.d.Z.G S S S S D { j < < & & & % % % & ",
"1 < < : < 3 j B M B V G.a.. _.H S S S S S { { w & & & = & % % & ",
"< < : : < u b $.K.^.*.&.v.h.D.G D  . . .D D | f & & & & & % % & ",
"3 < < < < u | H.d.@ v.&.*.H.=.=.R.T.X... . . .| u ; < ; ; & % % ",
"L p 9 3 1 u | L.s.o c.0. .....'.X @ (....... .o.x 6 8 1 < , & % ",
"p U P l 9 u | } Z.I.q.0.J.0...`.O p./.........>.x 0 l A Z 0 4 1 ",
"< 9 p L A h |  .X.9.0.B.d.V.7.9.Y.K.=.........O.%.K A Z K R ] ] ",
"< = : < 3 F >.......q.f.  j.G.<.3.3.<.<.+.....+.2.8.n.M.n.] ] ) ",
"A p p 7 7 a >.X.L.J.6.S.P.U.y.e.y.).e.e.w.<.+.X.+.2._ ) m.F.F.~.",
"A I L 9 3 3 j Q.g.k.E.t.i.y.e.e.].+ ).e.e.e.w.w.+.+.5.C.] U J J ",
"0 i i 5 3 3 j <.!.W.e.e.e.e.e.e.u.[.e.e.e.e.w.e.e.+.+.-.` ] T 0 ",
"] ] ] U p g <.w.w.e.e.e.e.e.w.e.e.e.e.e.e.e.r.-.U #.<.2.^ p : ; ",
"A p P R / ,.e.e.w.e.e.e.e.e.e.e.e.e.e.w.w.r.r.v < w | <.j 2 & & ",
"3 3 3 A W 1.e.e.,.$.1.e.e.<.e.r.e.r.,.m v w.r.v < 2 v <.f < = < ",
"9 p p A F ,.e.r.%./ 1.r.,.@.Q r.e.1.! P z >.r.<.h 3 g >.j : : < ",
"L J J J E ,.e.r.:.` 4.r.-.U P e.e.<.A I U #.e.e.v 3 7 k h 3 < : ",
"( L 9 7 p $.e.e.,.;.1.r.-.~ I r.e.<.a 3 9 h <.e.<.e < 3 9 3 < < ",
"P U A 9 9 F 1.e.e.1.e.r.$.A 5 C e.w.v 1 1 w b e.e.g 1 < < < 1 1 ",
"9 P ] ] U L $.e.e.r.r.e.<.u < d r.w.c < 1 8 h e.e.b r < < 1 1 1 ",
"2 p ( b.b.( L M <.M >.r.r.x i 3 g n > & < 9 z %.1.k 7 1 1 7 5 1 ",
"3 3 p J P P J s F y h ,.:.[ ) ( L y : < 1 9 J ( _ L 9 3 8 9 9 0 ",
"p 3 3 9 7 9 p J P P z L ~ ( U ' ( P 0 9 0 l J I P U I 0 7 3 9 I ",
"A 9 9 9 9 5 3 8 0 L L l P ( ( A p T n.] Y K P P P P P K I A 9 9 ",
"1 3 1 3 5 5 3 1 < i L P P Y U ) ( U ~ n.n.( J 9 l ] b.] T P J 0 ",
"p 9 8 7 7 7 9 9 9 p Y n.n.] b.[ _ ( n.N.F.A.m.[ ( ] n.A.F.A.n.( "
};
