/* XPM */
static char *_76695f39a5c40d4f18f1d3f5a667114GhclUw5TNQtm5Z3X[] = {
/* columns rows colors chars-per-pixel */
"32 32 182 2 ",
"   c #574666",
".  c #584769",
"X  c #695A77",
"o  c #6F627C",
"O  c #72647E",
"+  c #7B788D",
"@  c #867E93",
"#  c #3788A6",
"$  c #3889A7",
"%  c #378BAA",
"&  c #3B8EAC",
"*  c #3D91AE",
"=  c #3D92B1",
"-  c #418FAD",
";  c #4291AE",
":  c #4494B1",
">  c #4A96B4",
",  c #459CB2",
"<  c #4C9AB5",
"1  c #4D96B9",
"2  c #4D9CB9",
"3  c #5097B5",
"4  c #529BB6",
"5  c #549CBA",
"6  c #5A9EBD",
"7  c #4CA4B5",
"8  c #49ABB3",
"9  c #4EA0B8",
"0  c #4FA8BA",
"q  c #54A5B6",
"w  c #54ACB7",
"e  c #55A2BB",
"r  c #5BA2BD",
"t  c #55ACBA",
"y  c #5BAABD",
"u  c #4AB0B5",
"i  c #54B7BC",
"p  c #5EB5BE",
"a  c #55BBBC",
"s  c #5BBEBB",
"d  c #61A4BF",
"f  c #61B3BF",
"g  c #5BC4BC",
"h  c #5BC9BE",
"j  c #61C6BF",
"k  c #64CEBE",
"l  c #63D2BD",
"z  c #6AD2BC",
"x  c #69DCBF",
"c  c #75D5B7",
"v  c #6BE4BF",
"b  c #549DC0",
"n  c #5D9FC1",
"m  c #609FC2",
"M  c #52A6C2",
"N  c #5DA4C1",
"B  c #5CA9C0",
"V  c #4CBAC7",
"C  c #4DBBC8",
"Z  c #59BAC0",
"A  c #52BCC9",
"S  c #59BFCD",
"D  c #63A6C2",
"F  c #69A5C5",
"G  c #65AAC4",
"H  c #6BABC5",
"J  c #6DACC9",
"K  c #73ADCB",
"L  c #78AFCD",
"P  c #64B2C2",
"I  c #65BDC2",
"U  c #69BFC5",
"Y  c #6EB4C9",
"T  c #6CBCC8",
"R  c #70B5C5",
"E  c #74B3CD",
"W  c #7AB2CE",
"Q  c #71BAC9",
"!  c #7AB8CF",
"~  c #75B5D0",
"^  c #7CB4D1",
"/  c #7DBAD5",
"(  c #53C3C5",
")  c #5BC4C1",
"_  c #5BCAC2",
"`  c #53C4CA",
"'  c #5DC2CC",
"]  c #55CBCB",
"[  c #5CCCCC",
"{  c #5DD3C5",
"}  c #5FDAC6",
"|  c #5DD4C9",
" . c #64C4C4",
".. c #69C5C4",
"X. c #63CCC2",
"o. c #6CCCC4",
"O. c #64C4CF",
"+. c #6DC7CF",
"@. c #62CBCE",
"#. c #76C1C7",
"$. c #73C4CA",
"%. c #79C1CF",
"&. c #72CCC9",
"*. c #64D5C2",
"=. c #6CD5C4",
"-. c #64DAC4",
";. c #6BDDC4",
":. c #63D5C9",
">. c #6DD3C8",
",. c #67DCCA",
"<. c #7ED0CE",
"1. c #62C2D0",
"2. c #6AC6D1",
"3. c #61CFD0",
"4. c #68CED0",
"5. c #7EC6D2",
"6. c #79CBD6",
"7. c #65D1D0",
"8. c #6BD1D2",
"9. c #7BD3D6",
"0. c #66E4C5",
"q. c #69E4C4",
"w. c #6AE8C3",
"e. c #6EE5C9",
"r. c #72E6C9",
"t. c #77E8CC",
"y. c #7CE8CE",
"u. c #828096",
"i. c #86879B",
"p. c #9199AC",
"a. c #9899AB",
"s. c #96A6B6",
"d. c #9DA6B5",
"f. c #9CAEBA",
"g. c #A1A4B3",
"h. c #ABA9B7",
"j. c #AFA8B8",
"k. c #A1B5BE",
"l. c #88E5AE",
"z. c #81E1B3",
"x. c #8ABAC8",
"c. c #9DBEC7",
"v. c #97BDCA",
"b. c #83B5D3",
"n. c #84BBD4",
"m. c #8ABED5",
"M. c #85BBD9",
"N. c #8EBFDD",
"B. c #90BFDB",
"V. c #90C7CC",
"C. c #9AC7CC",
"Z. c #8CC5D5",
"A. c #8EC9D1",
"S. c #8EC2DA",
"D. c #92CFD2",
"F. c #9BCAD4",
"G. c #93C4DD",
"H. c #88D8D6",
"J. c #89D7D9",
"K. c #80D8D9",
"L. c #95D8D4",
"P. c #92D7DC",
"I. c #BDC1CC",
"U. c #A6CDD2",
"Y. c #A8DAD1",
"T. c #A2D5DA",
"R. c #B3D5DE",
"E. c #86E7D3",
"W. c #9BEDD6",
"Q. c #A1E3DF",
"!. c #A3EBDD",
"~. c #95C7E0",
"^. c #ABDEE2",
"/. c #9DE1E0",
"(. c #A1E3E2",
"). c #AFF2E1",
"_. c #BAF3E4",
"`. c #C4C8D3",
"'. c #C4EEED",
"]. c #CBEFEF",
"[. c #D8EBE9",
"{. c #CBF0E8",
/* pixels */
": * - : > : * & & ; : ; : : * * * * * % : 2 > = = & - : : : ; - ",
"* * ; ; - * * & & ; > > - - * * & & = * * * * * * ; : ; > 3 5 6 ",
"; * * ; - * & & & ; ; ; ; , , , , * * * * * & & * > > > > 1 > > ",
": ; : > > : ; ; ; * - & , g *.-.{ 8 8 , * * * * : > : ; ; * ; & ",
"> > ; : ; : : : : : > 7 a ( C V C { { g i 0 , : ; * & % % % % % ",
"> > * * * ; ; & ; < y ) ( C V V V V C ( _ ) Z 7 ; & % % # % % % ",
": ; * * * * & & ; 7 ) ( C V V V V S 6.1.( z l a , * & % $ $ % & ",
": ; ; ; * * ; > < s ( C V V C V A A.s.x.&.l.z.) a , & & % % % & ",
"> > > : > > > < t _ ( V V V V C S `.. p.H.c z k z i , * & % % & ",
"> = ; ; > > > > s _ C C ` ` ` V A F.h.v.O.+.^.L.X._ 7 & & % % & ",
"< > : : > > : w _ ` ` ` ] [ T.R.@.@.J.2.O.v.@ d.J._ 7 - & & % % ",
"D r 5 < < > > s { ` ] ] ] (.u.X ].] ] ` 8.c.o a.P._ t 1 > : & % ",
"r H H d 5 < < s :.] ] ] ] /.i.O '.] 8.K.8.9.U.A.' _ P D n 6 1 > ",
"> 2 r D N 5 < s -.] ] ] ] [ L.T.7.4.C.d.V.8.7.[ ` X.P m F L ^ b.",
": * ; > 2 N P X.| ] ] | } -.,.,.-.H.j.  f.9.] ] ] :.5.M.M.^ ^ W ",
"N r r 4 4 w X.| ] | -.0.0.q._.r.q.r.Y.I.D.3.K.P.] -.#.W m.G.G.~.",
"N F D e q h | | 0.0.q.q.q.).+ [.q.q.r.y.e.E.k.g.!.<.Z.M.^ J D D ",
"r e q q h | | q.q.q.q.q.q.q.{.t.q.q.q.q.q.q.W.Q.-.$.K L ^ ^ K 6 ",
"^ ^ ^ Y X.| g e j w.q.q.q.q.q.q.q.q.q.q.q.q.0.q.0.q.$.! J r ; & ",
"N r G o.-._ t < h w.q.q.q.q.q.q.q.q.q.q.q.q.q.q.q.q.*.q > > & & ",
"< < 2  .-.X.P r X.w.q.k j *.q.q.q.q.q.q.q.-.g l q.q.l , & & * : ",
"5 r y  .*.U E $.;.q.=.P D P ;.q.v  ...=.w.l 7 s w.q.*.7 ; & * : ",
"G D D I I G Y >.q.q.&.E E J =.q.q.M B X.w.*.y g w.q.*.y 5 > : ; ",
"E G 5 2 e D T ;.q.q.$.E J T ;.q.q.e 9 h q.*.p X.q.0.g 2 < > > > ",
"H H N b 5 N U q.q.>.Y G N X.q.q.v < < g w.-.l q.q.x w > : > > > ",
"2 H ^ W J P X.q.q...G r 2 g q.q.u & 7 -.q.w.q.0.0.g 2 > > > > > ",
", r E b.b.! ..x g q r r N P =.s = & 8 q.q.*.o.;.X.e < > 1 4 < 1 ",
"< < e D H H G f t 4 r D E ^ %.E N > , g l p G Q R D 5 < 4 5 5 6 ",
"r 4 4 5 4 5 r D H H D D J E J E E H r e y d D F H J G 6 4 2 5 G ",
"N e 5 5 5 < < 4 r D G d H ~ E B r K n.^ K F H H H H H H F N 5 5 ",
"1 < 1 < 4 2 < > > 5 G H H K K E W Y Y n.n.E D 5 d ^ b.^ K H D 6 ",
"r 5 4 4 5 5 4 5 5 r H n.M.^ b./ Q E / N.G.S.m./ E ^ m.S.G.B.n.E "
};
