/* XPM */
static char *bf0fa744925e493684dae20473186667JjugFeP7pAsH3oNU[] = {
/* columns rows colors chars-per-pixel */
"32 32 198 2 ",
"   c #7F6475",
".  c #7A657C",
"X  c #BA022D",
"o  c #BD0A2D",
"O  c #A80039",
"+  c #B40234",
"@  c #B90433",
"#  c #BA0B34",
"$  c #B1033D",
"%  c #BA0F39",
"&  c #B91836",
"*  c #AE293C",
"=  c #BA2A32",
"-  c #B2243B",
";  c #B6293A",
":  c #B9363E",
">  c #CD000C",
",  c #D50101",
"<  c #D80303",
"1  c #D2020B",
"2  c #D10B0B",
"3  c #C60013",
"4  c #CB0213",
"5  c #CD0A14",
"6  c #C90418",
"7  c #D00B1A",
"8  c #D71215",
"9  c #D81313",
"0  c #C20324",
"q  c #C60B25",
"w  c #C41E24",
"e  c #CA1D24",
"r  c #C51A2D",
"t  c #CB1E2B",
"y  c #C6202A",
"u  c #D62327",
"i  c #C52A37",
"p  c #DD3737",
"a  c #9D034C",
"s  c #9C0A4E",
"d  c #8C005F",
"f  c #960254",
"g  c #9A0251",
"h  c #9D0B52",
"j  c #91025A",
"k  c #990E5D",
"l  c #99115E",
"z  c #A50245",
"x  c #AB0343",
"c  c #A5064C",
"v  c #A10A4A",
"b  c #B10441",
"n  c #B30B43",
"m  c #B00E49",
"M  c #AA1848",
"N  c #BA1544",
"B  c #A0145B",
"V  c #9E364D",
"C  c #972F54",
"Z  c #9B2D52",
"A  c #963156",
"S  c #9B3354",
"D  c #AC2542",
"F  c #A32945",
"G  c #AC2A43",
"H  c #B82946",
"J  c #BD2149",
"K  c #AA3747",
"L  c #A2344B",
"P  c #B63649",
"I  c #AC255D",
"U  c #BB2459",
"Y  c #A13357",
"T  c #A33A53",
"R  c #8D0060",
"E  c #9F206D",
"W  c #AC2768",
"Q  c #B02161",
"!  c #BF3968",
"~  c #A4397F",
"^  c #C11F46",
"/  c #CB3552",
"(  c #C13764",
")  c #A84356",
"_  c #B34659",
"`  c #884F60",
"'  c #A35A6B",
"]  c #C34747",
"[  c #CE4359",
"{  c #F66749",
"}  c #EC6855",
"|  c #E3625A",
" . c #C64772",
".. c #FF865A",
"X. c #5E748C",
"o. c #467F9A",
"O. c #547D95",
"+. c #5B7B93",
"@. c #6B6782",
"#. c #646C84",
"$. c #6C6C85",
"%. c #776D83",
"&. c #63738B",
"*. c #6B778E",
"=. c #73758C",
"-. c #79748B",
";. c #647C95",
":. c #6D7B92",
">. c #727992",
",. c #737994",
"<. c #797F95",
"1. c #876E83",
"2. c #867689",
"3. c #98778A",
"4. c #897B93",
"5. c #3689A7",
"6. c #3889A7",
"7. c #368BA9",
"8. c #3B8DAC",
"9. c #3791AC",
"0. c #3D91AE",
"q. c #3F8FB0",
"w. c #3C91B0",
"e. c #4D839D",
"r. c #52829D",
"t. c #5B819B",
"y. c #73849B",
"u. c #7F8498",
"i. c #4787A4",
"p. c #448AA7",
"a. c #498AA6",
"s. c #428DAC",
"d. c #4C8EAA",
"f. c #5288A2",
"g. c #4291AE",
"h. c #4C92AC",
"j. c #5292AD",
"k. c #4592B0",
"l. c #4295B1",
"z. c #4695B2",
"x. c #4997B5",
"c. c #4B96B4",
"v. c #4699B4",
"b. c #4C99B5",
"n. c #4D9CB8",
"m. c #5396B4",
"M. c #5A97B4",
"N. c #529BB6",
"B. c #549CBA",
"V. c #5B9EBC",
"C. c #698DA5",
"Z. c #7798AE",
"A. c #669AB7",
"S. c #53A1BB",
"D. c #5CA3BD",
"F. c #61A4BE",
"G. c #69A2BD",
"H. c #77A1BB",
"J. c #7CA3BD",
"K. c #599FC0",
"L. c #5DA4C2",
"P. c #64A6C2",
"I. c #69A7C5",
"U. c #65A9C4",
"Y. c #6BABC5",
"T. c #6BABC9",
"R. c #73AAC4",
"E. c #72ACCA",
"W. c #6EB2C9",
"Q. c #74B2CD",
"!. c #7CB2CF",
"~. c #71B8CC",
"^. c #7CB5D0",
"/. c #7DBAD4",
"(. c #8A8398",
"). c #93869C",
"_. c #848AA0",
"`. c #8493AA",
"'. c #C895A5",
"]. c #C09CB8",
"[. c #D1A6BA",
"{. c #85A6C2",
"}. c #81BBCF",
"|. c #99B7CF",
" X c #87BAD7",
".X c #85BCD5",
"XX c #D3A8C6",
"oX c #E2AFC2",
"OX c #E8BBCA",
"+X c #8DC2DA",
"@X c #93C3DE",
"#X c #95C7E0",
"$X c #D4CDD6",
"%X c #EBC1CF",
"&X c #F1C7C8",
"*X c #EBC2D0",
"=X c #F6D4D5",
"-X c #E0DBE2",
/* pixels */
"l.8.s.g.x.l.0.8.8.g.k.g.k.l.0.0.0.0.0.9.w.n.v.l.q.8.s.l.k.g.g.g.",
"0.0.g.0.8.0.8.8.8.g.z.z.s.s.0.0.8.8.w.0.0.0.w.0.0.l.l.z.x.m.B.V.",
"g.8.0.g.s.0.8.8.8.g.g.g.g.g.8.8.0.0.0.0.0.0.8.8.0.z.z.z.z.b.x.x.",
"l.g.g.x.h.t.+.+.+.O.p.s.s.0.8.8.8.8.8.8.8.0.0.0.l.z.l.g.g.0.0.8.",
"z.x.g.h.$.L - - - V $.a.g.8.8.w.0.8.O.+.;.;.t.s.g.0.8.8.8.7.7.8.",
"x.z.h.#.Z v v M v v Y -.j.l.8.8.X.#.F D D G T $.a.8.8.7.6.7.7.7.",
"k.g.e.L v j l I l j s Y -.j.&.&.F F s a a a v A @.i.8.7.6.5.8.8.",
"z.g.r.= g d j l j d j v K . L ] J c d d d d j h A @.p.8.8.7.7.8.",
"x.z.f.L v j d d d d d g o D H { | I j j j j d j s C @.p.8.8.7.8.",
"z.l.s.$.Z v a a j d d j a v | ....| m z z z j R j s C $.p.8.8.8.",
"b.g.l.d.$.V * M s j d d R k } ....} n $ $ x z f j j s Z #.p.7.7.",
"P.D.V.b.j.t.;.. S s d d d f J } } ^ $ $ $ $ x x z f j s K r.7.7.",
"D.Y.Y.F.V.b.b.j.%.D g d l x $ N N $ n U U n $ $ n Q E h & ,.x.x.",
"z.N.D.U.L.B.b.b.=.G a B [ n $ $ + $ ( OX[.( n n  .oXXX~ h ; {.^.",
"l.0.g.z.n.L.P.L.<.G z x n b $ $ 1 8 =X-X4.'.( ( OX$X).].W t {.!.",
"L.D.V.N.N.N.D.P.u.G z x b + 1 , , 8 =X-X4.'./ / %X$X(.]./ u |.#X",
"L.U.P.B.b.v.x.x.:.* @ $ + > , , , , u =X&Xp , 4 [ %X*X! @ t A.P.",
"V.S.S.n.b.b.n.n.*.* @ b + 1 , , , , < 9 9 < , , 6 % m b @ t J.V.",
"^.^.^.T.V.b.b.B.y.P # $ + > , , , , , , , > > > > 4 + $ @ e f.8.",
"L.D.Y.Q.Y.D.N.n.m.2.; @ + > , , , , , , > + z O + 4 4 @ # ; i.8.",
"b.b.b.D.T.T.U.L.B.y.K # + 4 , , , , , , , > 3 3 > 1 4 o G #.s.l.",
"S.D.D.L.L.U.Q.R.`.(.' r X X > > , , , , , , , , , 1 q K $.s.g.k.",
"U.P.U.P.P.G.`.3._ H i q 0 $ + X > > , , , , , , < 5 G -.M.b.l.g.",
"Q.U.B.m.y.1._ H % X @ @ @ $ $ $ 0 0 < , , , , 2 w K %.j.b.b.z.z.",
"T.T.A.-.T - # X X X X X X + $ $ 7 - = = = = = K   ;.d.k.k.z.z.x.",
"n.Y.).P # X 0 6 1 > > > > 4 X $ 7 ` #.&.*.>.>.;.d.x.b.z.z.x.x.x.",
"v.<.P o X 6 5 w w 2 , , , , > X @ * o.8.l.B.D.D.V.b.b.b.b.N.b.b.",
"b.) q 4 5 e P 1.1.K w 2 < , , 3 @ = r.l.x.V.P.E.E.P.B.b.N.B.V.V.",
"D.:.= 2 = %.C.G.R.Z.2.: e < 1 X i _.V.B.V.F.P.U.T.T.U.V.N.b.B.U.",
"L.V.,.K >.m.b.N.D.P.G.Z.(.i u y C.E..X^.E.I.Y.Y.Y.T.I.Y.U.L.V.B.",
"x.b.x.j.N.b.b.x.z.B.U.T.Y.H.H.J.Q.W.W.}..XQ.P.B.F.^. X^.E.Y.P.V.",
"K.N.N.N.V.B.N.N.B.D.E..X.X!.}./.~.Q./. X@X+X X/.Q.^..X+X@X+X.XQ."
};
