/* XPM */
static char *_9d184cd3bdf4dacf8c851191506b55eKkadNmKDZXRhoojG[] = {
/* columns rows colors chars-per-pixel */
"32 32 194 2 ",
"   c #67343A",
".  c #412D52",
"X  c #483459",
"o  c #594967",
"O  c #685571",
"+  c #76647A",
"@  c #7A7071",
"#  c #9E3E1B",
"$  c #A23E1A",
"%  c #B4440E",
"&  c #B54510",
"*  c #BB4513",
"=  c #B74914",
"-  c #BF4A13",
";  c #B9471A",
":  c #B6491B",
">  c #BA4B1D",
",  c #BA501E",
"<  c #B74D26",
"1  c #B75027",
"2  c #B95424",
"3  c #BE5B2D",
"4  c #AE5538",
"5  c #B75837",
"6  c #BE6034",
"7  c #BD633B",
"8  c #CD471C",
"9  c #CB491F",
"0  c #D1471E",
"q  c #D6491F",
"w  c #D94B1F",
"e  c #CE4A21",
"r  c #C64D28",
"t  c #C54D2B",
"y  c #D64920",
"u  c #DA4D21",
"i  c #C15728",
"p  c #C25B2C",
"a  c #D65025",
"s  c #DB5225",
"d  c #D5532A",
"f  c #D85529",
"g  c #CA5D34",
"h  c #D55E33",
"j  c #E45923",
"k  c #ED5C22",
"l  c #C4633B",
"z  c #C1653B",
"x  c #CE643C",
"c  c #D56236",
"v  c #DC6733",
"b  c #D2643B",
"n  c #D96D3F",
"m  c #EB6029",
"M  c #9D5E48",
"N  c #A35B44",
"B  c #AD5B43",
"V  c #A35E48",
"C  c #B45A40",
"Z  c #8E665A",
"A  c #976253",
"S  c #9D6453",
"D  c #9B6658",
"F  c #A3614B",
"G  c #B86647",
"H  c #BD6448",
"J  c #BA6C4E",
"K  c #A56452",
"L  c #AE6D55",
"P  c #B86952",
"I  c #A9715D",
"U  c #BA7155",
"Y  c #847270",
"T  c #957E76",
"R  c #C56B46",
"E  c #CC6D45",
"W  c #C56C49",
"Q  c #C8714D",
"!  c #C16D51",
"~  c #C27254",
"^  c #CA7553",
"/  c #C97954",
"(  c #81807E",
")  c #DD8763",
"_  c #E18F6A",
"`  c #E59978",
"'  c #5A7B8A",
"]  c #6B7C88",
"[  c #3689A7",
"{  c #3C89A7",
"}  c #368BAA",
"|  c #3B8DAC",
" . c #3D91AD",
".. c #3E92B0",
"X. c #5E808C",
"o. c #4C8699",
"O. c #5A8495",
"+. c #52859B",
"@. c #598699",
"#. c #55889D",
"$. c #5D8C9E",
"%. c #6B838C",
"&. c #748182",
"*. c #73848C",
"=. c #79868D",
"-. c #618699",
";. c #688A98",
":. c #738A92",
">. c #758990",
",. c #7B929B",
"<. c #448DA5",
"1. c #4C89A5",
"2. c #418EAC",
"3. c #578FA3",
"4. c #5D8CA3",
"5. c #4291AF",
"6. c #4B94AE",
"7. c #5293AD",
"8. c #5896A9",
"9. c #4494B1",
"0. c #4A96B3",
"q. c #469AB5",
"w. c #4D99B5",
"e. c #4C9BB9",
"r. c #5397B3",
"t. c #529BB5",
"y. c #5999B4",
"u. c #549CBA",
"i. c #5A9EBC",
"p. c #648EA1",
"a. c #698DA5",
"s. c #6793A3",
"d. c #7999A4",
"f. c #7898A7",
"g. c #609AB0",
"h. c #699FB6",
"j. c #54A1BA",
"k. c #5BA2BD",
"l. c #69A3B7",
"z. c #61A3BF",
"x. c #78A9BA",
"c. c #5DA4C1",
"v. c #63A6C3",
"b. c #65A8C4",
"n. c #67A8C6",
"m. c #6BABC5",
"M. c #6DACC9",
"N. c #72ACC5",
"B. c #7AACC2",
"V. c #73ADCA",
"C. c #78AFCD",
"Z. c #7EB1C6",
"A. c #74B2CD",
"S. c #7BB3CE",
"D. c #71B9C8",
"F. c #7CB4D1",
"G. c #7DBBD3",
"H. c #868684",
"J. c #938C89",
"K. c #818C90",
"L. c #8D9296",
"P. c #82959D",
"I. c #9A999A",
"U. c #A48E83",
"Y. c #A09591",
"T. c #859AA3",
"R. c #919CA5",
"E. c #8BA3AD",
"W. c #92A6AF",
"Q. c #80AAB8",
"!. c #9CAFBB",
"~. c #CB9C8C",
"^. c #DEBAAA",
"/. c #DCBEB3",
"(. c #DBC3BD",
"). c #EACDBF",
"_. c #83ACC3",
"`. c #81B4CF",
"'. c #91B5CB",
"]. c #84B6D4",
"[. c #84BCD6",
"{. c #8CBFDA",
"}. c #96BFD3",
"|. c #8EC1DA",
" X c #93C4DE",
".X c #95C7E0",
"XX c #CDC8CF",
"oX c #D3C9D1",
"OX c #DED2D2",
"+X c #ECD4CA",
"@X c #F0DACF",
"#X c #EDD9D0",
"$X c #EFE7E5",
"%X c #F2EAE9",
/* pixels */
"9. .2.9.q.9. .| | 5.9.5.5.5. . .| |  . ...e.q.9...| 2.9.9.5.5.2.",
" . .5.5.2. . .| | 5.0.0.2.2.2.o.5 B <. . . ... . .5.9.6.0.r.u.i.",
"5. . .5.2. .| | | 5.5.5.5.2.O.4 * t <. . . .| |  .9.0.9.9.0.0.w.",
"9.5.9.q.0.9.5.5.5. .2.2.2.+.B * & t <.| | |  . .9.0.5.5.5. . .| ",
"0.0.5.9.5.9.9.9.9.9.9.5.5.@.t & & t <.9.e.e.6.#.@.+.{ } } } } } ",
"q.0.5. . .5.5.| 5.w.u.u.w.@.t & & t X.@.-.p.=.D N Z ' { [ } } } ",
"9.5. . . . .| | 5.0.t.u.y.*.t & & e N N N V 4 > * < Z o.[ [ } | ",
"9.5.5.5. . .5.0.0.w.w.r.*.F ; & & * * * * * & & & > A +.} [ } | ",
"0.0.0.0.0.0.0.w.t.w.7.%.F g i & & & & & & & % & : M ] <.| } } | ",
"0.5.5.9.6.$.-.-.4.3.] M p _ _ & % & & & % & & & 4 @ 1.| | } } | ",
"w.0.9.6.%.S B B D Y V ; i ` ` & & & & % & : 3 3 1 A ] +.2.| } } ",
"v.k.u.p.F > & & > 1 : & = p p 3 3 & & & : ^ ^.~.5 : 4 D -.2.| } ",
"k.M.m.f.5 & & & % & & & & = 7 (.(.3 & & z ).oX+   $ & > K a.w.q.",
"0.e.k.f.C * & & & & & & = 6 (.o o +X> & z @XXXO   # & & > P _.F.",
"9.| 5.6.;.5 e e e 9 * p ) W OX. X $X, % = / #X/.7 * 9 y y H _.S.",
"c.k.k.t.t.y.g.h.l.K.z - = & z %X$X2 & & & = > > a Q R._.'.}. X.X",
"c.n.v.u.r.0.0.0.w.:.7 - & & & 2 2 & & & & & 8 q u ^ !.[.F.M.v.v.",
"k.j.j.;.W c c U *.&.l q 8 & % & & 0 0 0 0 0 q u ~ R.N.C.F.F.V.i.",
"S.S.W.W a u u s c c a y q 0 8 8 0 y y y y y u ! L.N.A.S.V.i.5.2.",
"c.l.Q s u a h h a u u y y y y y y y q y y u J >.6.9.r.w.0.0.| | ",
"w.7.W x x ~ J.J.U b c u y y y y y y y y u g T :.4.<.9.2.| |  .9.",
"u.k.,.P.P.T.B.B.E.R.U.c u q y y y y y w u f l R I :.6.0.9.2.5.9.",
"n.v.v.v.v.n.M.A.S.Z.Y.c u y y y y y q j x x s u d L :.y.u.q.9.9.",
"A.n.u.u.i.v.M.A.Z.I.~ d y y y u u y u c H.H.H a u d L :.r.q.0.0.",
"M.M.c.u.u.c.m.B.I.~ d q w w a l j y q b $.7.H.H a u d I 3.0.0.q.",
"e.m.F.C.M.n.c.f.U d q d l l G &.k y w x p.u.8.( G a d I 3.q.0.0.",
"q.k.A.].].S.k.>.R s d J L.P.f.8.k u u x $.u.k.h.H.J L *.r.e.e.w.",
"0.w.j.n.m.m.v.,.E k x L.V.F.Z.R.k k j J 4.u.v.M.B.f.s.y.u.u.u.i.",
"k.t.e.u.t.u.k.T.^ m E f.M.A.x.n k k E ,.i.z.v.n.m.M.n.i.u.w.u.n.",
"k.i.u.u.u.w.w.y.K.Q ~ f.m.A.Q.v v n !.`.N.n.m.M.m.m.m.m.n.c.u.u.",
"w.w.w.w.u.e.w.0.6.8.l.m.m.V.N._._.x.A.G.[.A.v.u.z.F.].].C.m.v.i.",
"k.u.t.u.u.u.t.u.u.k.N.[.[.F.].G.D.A.[.{. X|.{.G.A.F.[.|. X|.[.A."
};
