/* XPM */
static char *result[] = {
/* columns rows colors chars-per-pixel */
"32 32 217 2 ",
"   c #3D302A",
".  c #3A3D3C",
"X  c #44342E",
"o  c #4C3234",
"O  c #493D46",
"+  c #6B364C",
"@  c #7C365A",
"#  c #753D64",
"$  c #3E474A",
"%  c #3B687E",
"&  c #444444",
"*  c #464845",
"=  c #4A4B46",
"-  c #444A4A",
";  c #4C4C4A",
":  c #554E45",
">  c #534D4A",
",  c #5A4E4A",
"<  c #45514D",
"1  c #53514A",
"2  c #5B5048",
"3  c #405256",
"4  c #4C5354",
"5  c #595955",
"6  c #7A4D45",
"7  c #724D4F",
"8  c #6B5242",
"9  c #6E5944",
"0  c #775849",
"q  c #7A5C49",
"w  c #7F6447",
"e  c #7F644B",
"r  c #416C7F",
"t  c #883C4B",
"y  c #8A355F",
"u  c #813661",
"i  c #843963",
"p  c #DF2E7F",
"a  c #DC357E",
"s  c #D7397A",
"d  c #87544A",
"f  c #835D49",
"g  c #944D57",
"h  c #8C5A57",
"j  c #AE5A5F",
"k  c #8C6345",
"l  c #86634D",
"z  c #8B624C",
"x  c #8B6A4D",
"c  c #91654A",
"v  c #936A4C",
"b  c #8B6351",
"n  c #8D6951",
"m  c #976A55",
"M  c #9A7654",
"N  c #9C7456",
"B  c #AE655A",
"V  c #A46A58",
"C  c #AB6D5B",
"Z  c #B1675C",
"A  c #B26C5E",
"S  c #A37556",
"D  c #AA7456",
"F  c #A67A57",
"G  c #A3735B",
"H  c #AB745B",
"J  c #A27959",
"K  c #AC7A5B",
"L  c #B17A5C",
"P  c #9E466E",
"I  c #BC5B67",
"U  c #BB5779",
"Y  c #AC6D66",
"T  c #B46464",
"R  c #BA6464",
"E  c #B66B62",
"W  c #BA6B66",
"Q  c #AE7763",
"!  c #B57162",
"~  c #B97363",
"^  c #C9486E",
"/  c #C5536C",
"(  c #C9536E",
")  c #C35C6B",
"_  c #CD4875",
"`  c #CD4B74",
"'  c #D24576",
"]  c #D14A75",
"[  c #D5437B",
"{  c #D8407D",
"}  c #D34B7B",
"|  c #CC5172",
" . c #C75970",
".. c #C3646A",
"X. c #376D85",
"o. c #3B7287",
"O. c #36748C",
"+. c #387488",
"@. c #3C748A",
"#. c #3A7A97",
"$. c #477486",
"%. c #43758A",
"&. c #44798E",
"*. c #557582",
"=. c #457B91",
"-. c #4A7E92",
";. c #4A7DA3",
":. c #5A7AA5",
">. c #DF3281",
",. c #E62787",
"<. c #E22C84",
"1. c #E4358A",
"2. c #EC3796",
"3. c #DA4A85",
"4. c #D94886",
"5. c #DD4B88",
"6. c #CF5F8D",
"7. c #D95687",
"8. c #E24C8F",
"9. c #EB499A",
"0. c #E65B99",
"q. c #E45B9A",
"w. c #DC6696",
"e. c #D66D93",
"r. c #E06594",
"t. c #E4619B",
"y. c #EE4CA1",
"u. c #F14BA1",
"i. c #EE58A5",
"p. c #F15DAB",
"a. c #EA64A5",
"s. c #E66CA1",
"d. c #EA6AA5",
"f. c #EE62A9",
"g. c #EE6BAB",
"h. c #E47EA6",
"j. c #ED73AE",
"k. c #E67BA8",
"l. c #EF6CB0",
"z. c #F565B4",
"x. c #F26FB2",
"c. c #EE72B0",
"v. c #E77DB3",
"b. c #F173B4",
"n. c #F873BD",
"m. c #F47CBB",
"M. c #F67DC0",
"N. c #F97FC3",
"B. c #3A87A8",
"V. c #378BAA",
"C. c #3B8DAC",
"Z. c #3C91AE",
"A. c #3B8EB0",
"S. c #3E92B1",
"D. c #48819A",
"F. c #568597",
"G. c #55859A",
"H. c #65809E",
"J. c #4587A6",
"K. c #418EAD",
"L. c #498DAF",
"P. c #4391AE",
"I. c #4B92AF",
"U. c #5294AC",
"Y. c #518CB2",
"T. c #4494B1",
"R. c #4B95B3",
"E. c #4899B7",
"W. c #4C99B6",
"Q. c #5496B4",
"!. c #539BB6",
"~. c #539CB9",
"^. c #599EBB",
"/. c #6984AD",
"(. c #6A93A6",
"). c #7888B6",
"_. c #6396BB",
"`. c #659BBE",
"'. c #7695B1",
"]. c #57A3BD",
"[. c #5BA2BD",
"{. c #62A3BE",
"}. c #68A1BF",
"|. c #7497C1",
" X c #5FA1C1",
".X c #64A6C2",
"XX c #68A6C4",
"oX c #66A9C3",
"OX c #6BABC5",
"+X c #6EADC9",
"@X c #70ACC6",
"#X c #71ACC9",
"$X c #6EB2C9",
"%X c #75B2CD",
"&X c #76B5CC",
"*X c #7BB4D0",
"=X c #7BB8D1",
"-X c #8794BF",
";X c #EC85B6",
":X c #EB88B7",
">X c #ED82B8",
",X c #F086B7",
"<X c #F183BB",
"1X c #8893C0",
"2X c #84A7CB",
"3X c #94AFD2",
"4X c #83BBD5",
"5X c #87BAD6",
"6X c #F584C2",
"7X c #F982C4",
"8X c #F48AC7",
"9X c #FB83CA",
"0X c #FC8ECD",
"qX c #FD8FD1",
"wX c #FE95D4",
"eX c #8EC1DA",
"rX c #92C3DF",
/* pixels */
"T.Z.P.P.W.P.Z.C.C.K.P.K.P.P.Z.Z.Z.Z.Z.V.S.E.E.S.Z.Z.C.P.P.K.K.T.",
"P.Z.Z.P.Z.P.C.C.C.P.R.R.K.C.Z.V.V.V.Z.Z.Z.Z.Z.Z.Z.Z.K.R.R.Q.Q.^.",
"Z.Z.Z.P.K.Z.C.C.C.P.P.P.P.P.C.C.V.Z.Z.Z.S.Z.C.V.S.T.T.T.R.W.W.W.",
"S.P.T.T.R.P.P.P.C.P.K.K.C.C.C.C.Z.V.V.Z.C.Z.C.A.P.T.T.Z.K.K.A.A.",
"W.T.P.P.P.P.T.P.P.P.T.L.K.A.C.C.A.Z.C.S.E.E.T.S.Z.Z.Z.V.B.V.V.V.",
"R.T.P.C.K.C.C.K.K.Q.^.Q.R.P.C.C.V.V.Z.Z.T.~.~.R.K.#.+.O.+.O.B.V.",
"P.P.#.o.o.@.@.o.@.&.-.:.Q.R.&.@.#.@.+.+.#.&.&.=.r 3 - - ; < X.V.",
"P.%.- = = ; ; ; ; ; = 4 $.$.4 > < 1 ; ; = ; > > : 8 q l x q . V.",
"I.$ 8 0 q q q f h q q 0 , > d b z f f l b b f z f z S K J 0 . B.",
"P.  q S N 6 6 m Q K H G c d G C H H D Y H C L V d 6 m Q N : % B.",
"U.. 7 Y Y t t V ~ ~ ! ! Z Z R E W R R R R R R j t t j T g O #.B.",
"}.H.+ U :Xv.6.e.r.) W ) ;X>X>X)  .;X,Xk.` 7.<X>X6.w.;X;XP *.;.J.",
"`.'.@ 8XN.g.c.g.f.| ..k.qX0.wXs 1.0X0.<X>.9.m.7.4.c.g.6XM.# :.Y.",
"L./.u wXc.q.c.a.p.] ) >XwX3.0X<.9X0X8.7X,.y.j.] ' g.q.M.wXu 1X2X",
"L.:.i qXg.4.5.s.f.} ( ,XwX5.0X1.n.0Xs u.a u.j._ ' c.i.c.qXy 1X2X",
" X:.y qXa./ | s.p.' ( <XwX5.0X<.a wXwXb.a y.wXwXi.c.q.z.qXy 3X3X",
"|.).i qXd.| ] s.p.' / >XwX5.0X<.s a 1.7X<.u.l.s s f.q.c.wXy ).`.",
"^./.i qXg.r.b.f.p.[ ( ,XwX5.0X<.9.qX3.9X2.u.j.` ' j.q.m.wXu -X_.",
"2X1Xi wXm.t.x.p.z.3.7.,XwX8.0Xp 9.0X8.N.,.u.v.7.} c.a.<XqX@ :.;.",
"`.:.7 6X7Xn.s.q.7X7X6Xb.M.x.<X] s M.p.b.s 9.<X7Xq.a.9X6Xm.+ ;.;.",
"Q.O h I r.h./ ( [ { } ) _ k.] I I } k.^ ) ` { [ | ` 4.` g o ;.L.",
"Q.X b C A A A A Z E Z B B E ! A B B Z Z Z A E A E E ! Y h o ;.L.",
".X  b S S H L D H D D D D L L K K H D D K K L L Q K K Q m X J.K.",
"$X  n N J S S S N c k x v v c x v v v N N N S S F K F F M X J.L.",
"OX* 9 l w e 9 8 9 8 : 2 2 : : : : 1 2 8 8 9 q l l x x x x * C.R.",
"~.F.5 5 1 1 = * 4 r F.-.&.%.o.o.X.X.% - & * = = < 1 : : < $.I.T.",
"T.].(.(.'.(.F.D.D.U.].].[.[.!.R.S.V.B.O.@.D.G.G.F.D.&.&.D.U.W.W.",
"E.W.].{.}.@X{.[.].U.].oX%X=X&X%X XR.P.P.R.!.{.#X+X{.!.W.!.!.!.].",
"[.W.!.~.[.!.[.{.OXOXoX{.+X%X+X=X&XoX[.~.^.`.{.oXOX#XoX^.W.W.~.oX",
"[.].~.~.!.W.W.!.]..X{.{.oX%X%X[.].$X4X*X#XXXOXOXOXXXXXXXoX X~.~.",
"R.W.R.W.!.W.U.T.T.~.oX$XOX+X+X%X%X+X$X4X4X&X.X~. X*X4X*X#XOX.X^.",
"[.!.!.!.~.!.!.!.].].OX4X5X%X4X=X&X&X4X5XrXeX5X=X%X%X5XeXrXeX4X%X"
};
