/* XPM */
static char *result[] = {
/* columns rows colors chars-per-pixel */
"32 32 179 2 ",
"   c #050403",
".  c #0C0707",
"X  c #150908",
"o  c #190A0A",
"O  c #091216",
"+  c #0C141A",
"@  c #10171D",
"#  c #25100F",
"$  c #2A1210",
"%  c #281515",
"&  c #381615",
"*  c #3C1C1A",
"=  c #132B34",
"-  c #1D313A",
";  c #27232B",
":  c #342831",
">  c #411E1C",
",  c #43211F",
"<  c #54211E",
"1  c #452321",
"2  c #4D2322",
"3  c #542826",
"4  c #552728",
"5  c #56292A",
"6  c #422D36",
"7  c #612625",
"8  c #632B2A",
"9  c #6C2E2C",
"0  c #722D2E",
"q  c #6E3231",
"w  c #763233",
"e  c #7C3333",
"r  c #7F3937",
"t  c #1B2D43",
"y  c #183542",
"u  c #193544",
"i  c #1C3749",
"p  c #1E394A",
"a  c #213B4C",
"s  c #2C3948",
"d  c #363545",
"f  c #273E50",
"g  c #443848",
"h  c #573945",
"j  c #6A3F48",
"k  c #29404E",
"l  c #294050",
"z  c #3B425C",
"x  c #334B6E",
"c  c #2F4B72",
"v  c #324D72",
"b  c #355176",
"n  c #385277",
"m  c #36537B",
"M  c #38557F",
"N  c #5B4453",
"B  c #68424C",
"V  c #6B4657",
"C  c #604957",
"Z  c #754B5A",
"A  c #6E5366",
"S  c #853432",
"D  c #983E3C",
"F  c #A63D3C",
"G  c #B53D3C",
"H  c #BA3E3C",
"J  c #87413F",
"K  c #AA413E",
"L  c #8A3F43",
"P  c #884448",
"I  c #994441",
"U  c #864B57",
"Y  c #8C4B54",
"T  c #884E5A",
"R  c #984D58",
"E  c #88515C",
"W  c #A34644",
"Q  c #A44945",
"!  c #AC4A46",
"~  c #BC4140",
"^  c #B24B47",
"/  c #B44D4A",
"(  c #B84C49",
")  c #B5514E",
"_  c #A04D57",
"`  c #A14F5D",
"'  c #A6505B",
"]  c #B15354",
"[  c #BD5451",
"{  c #C64B48",
"}  c #C3524F",
"|  c #C9534F",
" . c #C45451",
".. c #CB5753",
"X. c #D85450",
"o. c #D45853",
"O. c #DF5955",
"+. c #DC5F5C",
"@. c #E25A57",
"#. c #CE625D",
"$. c #D4615C",
"%. c #E3625C",
"&. c #EA645D",
"*. c #E36461",
"=. c #F47169",
"-. c #395680",
";. c #2A6783",
":. c #2D6D84",
">. c #326E85",
",. c #2F7085",
"<. c #347287",
"1. c #36738A",
"2. c #3A758A",
"3. c #3A788D",
"4. c #46628A",
"5. c #4B638B",
"6. c #52668F",
"7. c #536C96",
"8. c #5C6A90",
"9. c #576E99",
"0. c #447B92",
"q. c #4B7F94",
"w. c #56739E",
"e. c #5E719B",
"r. c #646C94",
"t. c #6A6D98",
"y. c #5776A3",
"u. c #5D76A2",
"i. c #5B78A7",
"p. c #5E7AA9",
"a. c #6577A2",
"s. c #6578A3",
"d. c #6879A5",
"f. c #3587A5",
"g. c #3A89A7",
"h. c #368AAA",
"j. c #3B8EAC",
"k. c #3690AB",
"l. c #3C91AD",
"z. c #398FB0",
"x. c #3D92B0",
"c. c #4D8299",
"v. c #55869C",
"b. c #5A899D",
"n. c #418FAD",
"m. c #4291AE",
"M. c #408FB0",
"N. c #4494B1",
"B. c #4A96B4",
"V. c #4798B6",
"C. c #4C99B5",
"Z. c #4C9BB9",
"A. c #5196B5",
"S. c #539CB6",
"D. c #549CB9",
"F. c #5A9EBB",
"G. c #669DBB",
"H. c #54A1BC",
"J. c #5CA3BD",
"K. c #60A3BE",
"L. c #5EA5C1",
"P. c #5CA8C0",
"I. c #64A6C2",
"U. c #69A6C3",
"Y. c #66A9C3",
"T. c #6AABC5",
"R. c #6DACCA",
"E. c #73ADCA",
"W. c #77AEC9",
"Q. c #6EB1CA",
"!. c #74B3CD",
"~. c #78B1CD",
"^. c #7BB4D1",
"/. c #7AB9D3",
"(. c #83B6D3",
"). c #84BBD5",
"_. c #8BBFD9",
"`. c #8EC2DB",
"'. c #93C3DE",
/* pixels */
"N.l.m.m.V.N.l.j.n.m.m.n.n.N.l.k.k.j.k.k.N.Z.V.N.x.x.n.N.n.m.n.m.",
"m.x.N.l.m.l.l.j.n.m.B.B.n.M.l.j.j.x.z.x.l.l.x.k.l.l.n.B.B.A.D.F.",
"l.l.l.m.n.m.j.j.n.n.m.m.n.M.j.j.j.x.k.x.x.j.j.j.l.N.V.N.B.C.A.B.",
"N.m.N.V.B.N.m.m.n.n.n.n.n.j.j.j.j.k.k.k.j.l.z.x.N.N.N.m.n.M.M.z.",
"N.B.N.m.m.m.N.m.m.N.N.m.N.n.j.x.j.k.j.N.V.V.V.N.m.m.j.h.g.f.h.h.",
"C.C.m.l.m.m.m.n.m.C.F.S.C.N.j.j.l.z.x.N.V.Z.Z.V.m.j.g.h.g.f.h.h.",
"N.m.k.j.l.j.j.j.m.B.D.D.S.B.m.N.N.x.k.k.x.x.V.V.N.j.h.h.h.f.h.j.",
"N.n.<.<.:.<.<.<.1.2.2.3.3.2.<.1.3.1.,.,.,.,.,.,.<.>.>.:.;.:.h.j.",
"B.M y a p i p p p p p p a i i a a p i a p i i i i i p i i y ;.h.",
"m.= y x b b b b b b b b v n v b v b v v v n v n b v v v x t = g.",
"C.O x b.7.5.r.t.8.5.5.7.r.8.6.4.6.r.r.t.r.8.r.6.5.6.r.e.i.v O f.",
"K.O M i.N 6 Y ' j : : j R Y h ; h R _ ' Y B P h ; 6 U A s.-.+ f.",
"J.O M w.g K | | ( 0 2 ^ ..} | 0 F %. . .! L [ D & , Q T s.-.O N.",
"m.+ M e.B Q S 3 K K q / r 2 { X.H %.> $ % 2  ...8 4 ! T s.-.+ ~.",
"m.O M d.U ! , # S ! S ) 9 & { @.~ %., # % 2 } @.K w ! T a.M @ W.",
"J.O M d._ ! > X 9 Q J ..@.&.%.0 K =.&.&.} L ( } ( I ( T a.-.@ _.",
"D.+ M d.` ! * o 9 ! P #.O.G 2 X H &.e 7 2 5 W W { O...U a.M O K.",
"F.+ M a.Y ! < $ S ! e ) 9 o     H @.& . . , W S S o.+.E a.M + F.",
"W.@ M u.B ] J S ( K 9 ! 5 .     K *.5 1 * 5 Q q < / $.E a.M + n.",
"J.O M e.g J } } Q 3 2 W 5 .     S #.[ ) Q L Q 8 % q ] E a.n O g.",
"B.+ M i.z g V Z N d g Z N - - t g C C C N N Z h s g Z A d.-.+ j.",
"A.+ c y.w.7.e.e.9.7.7.e.7.7.6.7.7.9.7.9.7.7.e.9.7.7.e.e.p.v + n.",
"I.- y x m b b m b n b n b m m b b b b m b b b b b b n n x t = j.",
"E.q.i i p a l l l k k f k a k p a a p p p p a a p p i i a u <.N.",
"T.Y.c.0.0.0.c.b.b.b.v.c.c.3.3.<.1.1.1.2.1.2.1.1.2.3.3.>.<.3.N.B.",
"H.Y.~.~.E.Y.L.L.K.T.K.J.C.C.N.l.z.j.z.m.A.A.A.B.m.B.C.N.N.B.B.V.",
"V.J.!.).(.~.L.D.C.S.J.J.J.J.H.Z.M.z.h.z.N.D.I.K.D.V.C.C.A.Z.A.B.",
"V.C.J.K.T.T.I.J.H.C.F.Y.!./.~.!.I.B.m.M.B.D.G.R.E.I.S.A.D.Z.F.F.",
"J.Z.S.D.S.S.J.T.T.T.I.K.R.!.R./.!.U.F.D.F.K.I.I.R.R.Y.L.D.A.H.Y.",
"J.H.D.D.S.A.C.A.J.I.Y.K.T.!.!.P.L.R.(.(.E.U.R.R.U.R.U.U.I.L.F.Z.",
"C.C.C.A.D.C.C.B.V.H.Y.Q.T.R.Q.!.!.Q.Q.).(.!.L.H.L.^.).^.E.R.I.F.",
"F.S.S.S.D.S.D.A.D.J.Q.).).^.(./.!.!.).`.'.`._./.Q.^.).`.'.`.(.^."
};
