/* XPM */
static char *result[] = {
/* columns rows colors chars-per-pixel */
"32 32 55 1 ",
"  c #3689A7",
". c #3889A7",
"X c #368BAA",
"o c #3B8EAC",
"O c #3791AC",
"+ c #3C91AE",
"@ c #3B8FB1",
"# c #3D93B1",
"$ c #408FAD",
"% c #4291AF",
"& c #4494B2",
"* c #4A96B4",
"= c #4699B5",
"- c #4C99B5",
"; c #4797B8",
": c #4B96B9",
"> c #4D9BB9",
", c #5197B5",
"< c #529BB6",
"1 c #5197B8",
"2 c #549DBA",
"3 c #5A9EBC",
"4 c #51A2B7",
"5 c #55A1BC",
"6 c #5BA3BD",
"7 c #61A4BE",
"8 c #5C9EC0",
"9 c #54A3C1",
"0 c #5CA4C1",
"q c #5DA9C3",
"w c #63A5C2",
"e c #6AA6C4",
"r c #64AAC4",
"t c #6AABC5",
"y c #65ACC9",
"u c #6CACC9",
"i c #70AEC7",
"p c #73ADCA",
"a c #6DB1CA",
"s c #74B2CD",
"d c #7AB4CE",
"f c #71B8CA",
"g c #7AB8CF",
"h c #76B6D1",
"j c #7CB4D1",
"k c #7DBAD4",
"l c #80B9CD",
"z c #83B6D4",
"x c #83BAD4",
"c c #8ABED5",
"v c #86BAD8",
"b c #89C0D5",
"n c #8DC1DA",
"m c #93C4DD",
"M c #95C7E0",
/* pixels */
"&+%&*&oo$$%%*$&Oo+OO#>=##o$$&$%%",
"&+%%+%+o$%*%$$oOXOO++#&o+#&&*,,8",
"+++%$ooo$$%%$$oo@O+#++.oo&*&**,*",
"&%%=*&%%$$%$$$ooXOXoo++o&&&+$$+$",
"=&&&%%&%&&%%&oo#+++#>;=&%+o..XX.",
"*=%o%%%+&*3,,#ooOoo#=>2-%o. ..Xo",
"%%++++oo%*<32=&&&#O+##*=&oo   Xo",
"*%%%+%%%*=->====>=###O++&$$o.XXX",
"=*%&&&**<-*&&O##=##--%$ooo$$o. o",
"&&%%%****,%%#++O##O-52*$$o$$oooo",
"-%&&&**&%*+++&O#O###=22-&%&$$XXX",
"76<4-&*&&%+OOOOO##=+#;<3,,,1*@@X",
"6ft76--,2<-##OOOOO##&22,,37888::",
"&<7764-**666=##%#OO=&6tppe88epjj",
"&%%&<6wq656afrqqrqrusgccxzzvzzzz",
"6664<-6775%+#4999905w77plzdzvmmc",
"0yw3-=*=-==O##==66>>0ugccbcvjewe",
"244>-->>=%46q554qshkslxzjdppzjp3",
"jjdi3=-4qrqyahayudksdkdpuppju3&$",
"q6esa6>;>0yaaarusgsw>251&*,,&&oo",
"==1quur055696raarq6;==>-&$&$oo$&",
"5060weuhsuarw6qqyaaa6-&<>:**$$$&",
"yweqwyussksssutrq99rtr5=*&*22*&%",
"hw2>2qusghssautq95>>2352*&**>>&&",
"yu0228ysgssrq6>==;:=**-,***&&&&=",
">ejdpe0q7776>=&o@oo&><-&&**&&***",
"=6sxvd0<,46qq62=#X .$2772***>1>*",
"->57et76<<67sgdsw*&$*3wtpw3,1223",
"5<<5<<6ette7tsuhhe6137eeuuy32>2e",
"64322<,<6we7tssq6plzieetueeee022",
"****1<***4rttpsssaaxxsw1qdzzpuw3",
"23<<3<<<46avcdzkfsxnmncksjvMcmxs"
};
