/* XPM */
static char *result[] = {
/* columns rows colors chars-per-pixel */
"32 32 216 2 ",
"   c #08110C",
".  c #0E120E",
"X  c #0A0E12",
"o  c #0B1415",
"O  c #0E1B16",
"+  c #0E161B",
"@  c #0D191A",
"#  c #131915",
"$  c #131D1D",
"%  c #16221E",
"&  c #1A231C",
"*  c #1E2C1D",
"=  c #25380E",
"-  c #222415",
";  c #202D1B",
":  c #243615",
">  c #263C1B",
",  c #3E3717",
"<  c #3E3A1C",
"1  c #161E21",
"2  c #1A1F23",
"3  c #0E1E32",
"4  c #162221",
"5  c #1A2326",
"6  c #1D2C24",
"7  c #152429",
"8  c #1C252D",
"9  c #1D2B2B",
"0  c #1E312F",
"q  c #1A2B31",
"w  c #232D24",
"e  c #222D2B",
"r  c #253124",
"t  c #2E3423",
"y  c #2B3D23",
"u  c #25322B",
"i  c #2B352C",
"p  c #2C392E",
"a  c #323728",
"s  c #242E30",
"d  c #243331",
"f  c #2A3434",
"g  c #2D3A33",
"h  c #273639",
"j  c #2B353A",
"k  c #2C3C3B",
"l  c #343D33",
"z  c #313E3D",
"x  c #403B1D",
"c  c #493E22",
"v  c #2C4806",
"b  c #2E4A0C",
"n  c #30440F",
"m  c #324E0C",
"M  c #355406",
"N  c #3B5C06",
"B  c #35540B",
"V  c #39550B",
"C  c #375808",
"Z  c #3C5C0B",
"A  c #2C4611",
"S  c #2C4518",
"D  c #334D12",
"F  c #364A15",
"G  c #334D1A",
"H  c #355212",
"J  c #3B5415",
"K  c #3C5B13",
"L  c #3C551B",
"P  c #3D5A1A",
"I  c #3F6206",
"U  c #3E610B",
"Y  c #3F6210",
"T  c #2F4327",
"R  c #324224",
"E  c #354924",
"W  c #33462C",
"Q  c #36492C",
"!  c #3B5423",
"~  c #3A5125",
"^  c #344335",
"/  c #3B4436",
"(  c #3A4E35",
")  c #33423C",
"_  c #3B453A",
"`  c #3C4C3E",
"'  c #3C5534",
"]  c #42560E",
"[  c #425D0C",
"{  c #4C421C",
"}  c #574C1F",
"|  c #5B4A1A",
" . c #415E13",
".. c #445A16",
"X. c #416406",
"o. c #43650C",
"O. c #4A660F",
"+. c #466A0B",
"@. c #486C0D",
"#. c #4D720C",
"$. c #51760D",
"%. c #436413",
"&. c #466913",
"*. c #4A6C14",
"=. c #45641A",
"-. c #496519",
";. c #4C6C1B",
":. c #546B19",
">. c #4E7213",
",. c #4E7119",
"<. c #527515",
"1. c #547916",
"2. c #587E16",
"3. c #53741C",
"4. c #56791A",
"5. c #5A7D1D",
"6. c #4C4623",
"7. c #46492B",
"8. c #534C22",
"9. c #564C25",
"0. c #455325",
"q. c #5A5226",
"w. c #4A4A30",
"e. c #424C3E",
"r. c #41583E",
"t. c #535D38",
"y. c #615421",
"u. c #6E5D27",
"i. c #605D34",
"p. c #486226",
"a. c #4C6921",
"s. c #4C6629",
"d. c #5A6A23",
"f. c #4F7021",
"g. c #557422",
"h. c #597524",
"j. c #577A23",
"k. c #5A7C23",
"l. c #567728",
"z. c #5B7A2C",
"x. c #4A6138",
"c. c #587331",
"v. c #636222",
"b. c #706225",
"n. c #6A693D",
"m. c #2C3F46",
"M. c #2D4344",
"N. c #2E4546",
"B. c #354444",
"V. c #354546",
"C. c #3D4C44",
"Z. c #364C4B",
"A. c #3B4C4C",
"S. c #3E5044",
"D. c #3C524C",
"F. c #3E5252",
"G. c #385552",
"H. c #3D5263",
"J. c #434E45",
"K. c #455345",
"L. c #4A5446",
"P. c #41514B",
"I. c #4B564D",
"U. c #4E594B",
"Y. c #545A48",
"T. c #415554",
"R. c #4C5752",
"E. c #4C5E53",
"W. c #465959",
"Q. c #455A5D",
"!. c #536E4B",
"~. c #4F6550",
"^. c #4B625E",
"/. c #566957",
"(. c #55645A",
"). c #475D67",
"_. c #4D6363",
"`. c #4E6869",
"'. c #516A66",
"]. c #596C66",
"[. c #52696C",
"{. c #5C756F",
"}. c #526877",
"|. c #567675",
" X c #59737B",
".X c #60746B",
"XX c #6A7571",
"oX c #5D8116",
"OX c #5D821D",
"+X c #61841D",
"@X c #668B1F",
"#X c #5E8122",
"$X c #628526",
"%X c #668923",
"&X c #698D24",
"*X c #648529",
"=X c #67882B",
"-X c #698C2B",
";X c #6C9224",
":X c #6E922B",
">X c #71952B",
",X c #759B29",
"<X c #759A2C",
"1X c #678731",
"2X c #698A31",
"3X c #65853A",
"4X c #6F9133",
"5X c #739636",
"6X c #769B31",
"7X c #7A9D32",
"8X c #7DA22E",
"9X c #7CA233",
"0X c #81A936",
"qX c #698181",
"wX c #748688",
"eX c #85979B",
/* pixels */
"R C.8 w '. XH.B.L.(.K.Q y ' /.{.G.G.^.N.k s d V.`.`.G.N.Z.q X X ",
"^ ^ w e T._.F.Q s.d.l.;. .3.=X3.#Xg.;.P G L ~ x.!.S.=.,.=.S $ X ",
"I.p ; ^ P.' p.OX=Xz.3X-.%X7X5X&X8X:X;X#X4.*Xj.*X&X9X<X4.5.Y T @ ",
"z i R x.s.5.<X&Xh.c.z.1.&X%X=.&X;X*X*.j.5.$X#Xf.#X6Xl.,.%.@.b 6 ",
"f p a ;.k.<X7X>X&X,X;X+X5. .3.2.5.&.#X7X1X*X=XOX&X5.4.3.Y %.J 6 ",
"A._ E ;.9X7X;X>X0X0X7X+XO.3.5X,X6X#X;X>Xz.a.#X+X4.;.3.5.Z %.0.7 ",
"(.P.~ $X,X7XOX5.,X<X&X3.*.%X6X0X&X5X%X2X*.k.>X;X5.5.k.*.o.] t.7 ",
"Z.P.L +X,X>X>X5.%X%X+Xj.3.+X>X-X#X2Xj.g.$X>X#X:X;X$X%Xh.-.Z ! 3 ",
"e g  .#X#X%X9X;X:X%X&XOX4.5.,.4.;.k.-X:X-X*Xj.#Xk.5.5.d.:.*.B 9 ",
"8 6 &.j.P 3.8X6X%X#X%X4X;.<.o.1X*.4.OX%X,.&.,.3.l.#XoX:.*.;.H G ",
"8 : o.g.Y j.2X#X=.Y &.j.K $X,.z.>.*.,.;X*.*.OX5.4.5.<.g.*.*.U ~ ",
"e A *.=.<.5.#X3.-.*X4.o.a.=X=.;.5.$.<.,.4.oXOXj.1.1.<.5.<.#.C ^ ",
"^ K ..H +.4.>.*.,.%XoX>.@.OX@X2.+Xo.+.Z H Y ,.5.5.&.&.*.J U D B.",
"!.=.L o.o.&.=.Z >.1.>.>.@.oXoX@.<.+.#.<.%.P =.K K %.>.O.V M > ) ",
"r.;.V o.Y &.*.K K K %.B B D K +.s.,.C %.@.,.4.1.=.D B [ [ B p u ",
"V.H *.&.K o.>.o.#.>.&.I o.&.,.Z K %.U B >.o.@.o.U U U M B v 6 6 ",
"A.A o.&.#.K +.o.@.*.*.Z %.4.#.C C o.$.X.@.+.@.o.o.+.@.V D v @ 6 ",
"C.B v B Z U o.@.+.&.@.%.%.N M U o.C N +.X.X.+.Z V [ V m A : % / ",
"( o.C B H C B o.@.o.U +.N X.o.@.U L =.X.@.o.*.[ Z N U +.C y 9 U.",
"~.o.U U Y B C N C I Z C C +.U &.B V o.o.U o.N N C Z o.Z n d 9 _ ",
"[.F N U +.I I X.N X.X.V K  .B U B b V H N C B D H J %.E 6 e 9 ^ ",
"_.W B M N X.I U U N Z Z 0.J J 0.A J 0.c.L ..T ` Q J p.K.f 9 $ g ",
"_.S.= N C U o.Z I I C N =...v.{.t { (.wX7.6.z W.k i L.R.f 5 @ e ",
"_.P.; M U B U U U B m m 0.q.u.wXx { E.XXx t k Q.B.p U.R.s 1 # e ",
"_.D.6 = m v m [ %.G > * r 9.y.eXx } P./.6.w z Q.B.i I.I.e $ $ 6 ",
"W.T.w & : = : Q 7.7.w # 1 c y.wX| 6.E.Y.i.z ) '.V.u K.I.e % + 6 ",
"N.F.e & e ; w j A.w.< # o , 9.'.| < (.q.n.W.A.'.D.i ` J.i 4 + d ",
"N.V.f w i i f j B.C.6.-   < } U.| & J.| 7.) g B.B.p C.l u u $ 0 ",
"A.j a J._ l p u e V.e.6.. , 6.C.b.t e.| w u g z g u l u & M.1 e ",
").g l E.C._ w 6 e u w 9.& { 8.V.w & a y.& % e g ) g B.h e _.2 s ",
" Xl l J.].^.k ) V.A.T./ & - - k $ # g p % $ e C.Q.D.).m.j }.5 2 ",
").z l l .XqXQ.V.A.[.[.G.7   O k # ; P.|.M.4 u G.^.D.[.m.h }.q + "
};
