/* XPM */
static char *result[] = {
/* columns rows colors chars-per-pixel */
"32 32 196 2 ",
"   c #070A0F",
".  c #090E11",
"X  c #0A1415",
"o  c #0C161A",
"O  c #0C1A1C",
"+  c #121711",
"@  c #121B15",
"#  c #1A1B15",
"$  c #11161A",
"%  c #181C1C",
"&  c #1A2215",
"*  c #17201E",
"=  c #1A231E",
"-  c #1F2B1F",
";  c #25231B",
":  c #232E1E",
">  c #25301F",
",  c #2C341D",
"<  c #141D20",
"1  c #1A1F24",
"2  c #0D1D37",
"3  c #101F34",
"4  c #0F2121",
"5  c #0E2129",
"6  c #152123",
"7  c #1B2424",
"8  c #1C2B25",
"9  c #15232D",
"0  c #1B242B",
"q  c #172A29",
"w  c #1B2A2B",
"e  c #1E312E",
"r  c #132737",
"t  c #1C2C33",
"y  c #1F3331",
"u  c #1F313A",
"i  c #202424",
"p  c #232D24",
"a  c #242729",
"s  c #222C2B",
"d  c #282D2A",
"f  c #263324",
"g  c #2A3425",
"h  c #2B3826",
"j  c #25312B",
"k  c #2B362D",
"l  c #2D392B",
"z  c #323723",
"x  c #353A23",
"c  c #383A24",
"v  c #313729",
"b  c #333B2C",
"n  c #232E32",
"m  c #292D30",
"M  c #202B3D",
"N  c #243333",
"B  c #2A3534",
"V  c #263934",
"C  c #2D3933",
"Z  c #24343A",
"A  c #2B363A",
"S  c #263B3B",
"D  c #2B3B3C",
"F  c #303634",
"G  c #323B33",
"H  c #383E30",
"J  c #313D3C",
"K  c #383D39",
"L  c #304025",
"P  c #3E432D",
"I  c #25403B",
"U  c #2B423E",
"Y  c #364234",
"T  c #3A4234",
"R  c #35423B",
"E  c #3A443B",
"W  c #3B4A3D",
"Q  c #424635",
"!  c #444A35",
"~  c #454A39",
"^  c #1F2B45",
"/  c #2A3747",
"(  c #253B45",
")  c #2B3840",
"_  c #263548",
"`  c #323E42",
"'  c #2C3F50",
"]  c #2D4343",
"[  c #2D424B",
"{  c #2D494A",
"}  c #344444",
"|  c #3B4643",
" . c #3C4C44",
".. c #35434A",
"X. c #3C474D",
"o. c #354A4A",
"O. c #3C4C4B",
"+. c #3E5044",
"@. c #3E534E",
"#. c #2E4652",
"$. c #314453",
"%. c #334E51",
"&. c #3C4C52",
"*. c #314558",
"=. c #354B5A",
"-. c #3D5253",
";. c #385556",
":. c #38505C",
">. c #3F5B58",
",. c #3C5463",
"<. c #434E43",
"1. c #414C4B",
"2. c #484E4C",
"3. c #455344",
"4. c #43524B",
"5. c #4A554C",
"6. c #4C594C",
"7. c #505A4B",
"8. c #434D52",
"9. c #445454",
"0. c #4A5753",
"q. c #465D57",
"w. c #4B5B53",
"e. c #44555A",
"r. c #485659",
"t. c #455A5C",
"y. c #4B5C5C",
"u. c #535D54",
"i. c #545D5C",
"p. c #466053",
"a. c #4E6052",
"s. c #47605C",
"d. c #4C625D",
"f. c #52635C",
"g. c #5A655D",
"h. c #55695D",
"j. c #59695D",
"k. c #435560",
"l. c #445A62",
"z. c #4B5C64",
"x. c #465A6B",
"c. c #515F62",
"v. c #4C6364",
"b. c #4F6A65",
"n. c #44616A",
"m. c #4C6369",
"M. c #4E696A",
"N. c #526563",
"B. c #586564",
"V. c #546A62",
"C. c #5A6964",
"Z. c #54666A",
"A. c #586669",
"S. c #546C6B",
"D. c #5B6B6B",
"F. c #52706E",
"G. c #5E746E",
"H. c #4E6472",
"J. c #546C73",
"K. c #5A6D72",
"L. c #506578",
"P. c #536D7C",
"I. c #5A6C7B",
"U. c #5A7572",
"Y. c #5A747A",
"T. c #626D67",
"R. c #627268",
"E. c #616F78",
"W. c #617475",
"Q. c #627872",
"!. c #6A7976",
"~. c #677679",
"^. c #67847D",
"/. c #5D7382",
"(. c #5E7D91",
"). c #647C82",
"_. c #6D7D87",
"`. c #658385",
"'. c #6D8484",
"]. c #6C838C",
"[. c #6E898D",
"{. c #74848C",
"}. c #718D8E",
"|. c #798790",
" X c #738F92",
".X c #799896",
"XX c #70909D",
"oX c #7696A1",
"OX c #7E9AA8",
"+X c #889F95",
"@X c #85A199",
"#X c #8198A6",
"$X c #8DACAC",
"%X c #8CAFB3",
"&X c #91ABBC",
"*X c #97BBB6",
/* pixels */
"L  .0 s b.Y.,.} 5.D.r.` M &.J.`.;.>.v.{ S N N | M.x.=.{ %.y .   ",
"Y Y j p 9.n.:.K 7.!.c...Z -.U. Xs.M.m.S D ) R -.m.,.#.{ ( u 6 . ",
"0.l f J O.$.' k <.R.A.8.A S Z.}.M.v.S.S S -.p.s.l.=.( Z S %.] O ",
"D h h E D } } k ! g.A.r.o.w e.S.v.%.t.S V @.h.d.%.#.S y u ;.>.w ",
"B k j k s B B f Q 7.g.y.y.w } N.s.o.o.] e } h.d.O.} D S S { M.q ",
"O.J g 8 = d G g c ~ i.1.9.A D y.Z.{ D o.y V w.d.9.@.S S t I `.r ",
"h.1.k f p G 5.Q c Q i.X.O.&.B O.v.) ] @.y 8  .f.q.O.U S t I [.3 ",
"o.9. .l b  .5.H c Q 2.X.| y.1.y.q.] o.o.e 8 @.C.q.O.} { u y Y.2 ",
"w D 0. .R 4.3.v z P <.&.` 9.~.{.4.' o.U 8 B y.W.d.O.O.&.Z q >.r ",
"w 6 1.5.R 3.u.T , x T X.V -.|._.@./ B j f | K.~.N.o.O.8.Z 4 ] _ ",
"1 0 A O.| 3.g.5.z , h ` B 8.E.A.3.Z 7 6 p O.I.Y.A.O.-.O.Z 4 S $.",
"t J s s E 5.T.u.G > j E } ..9.w.W m % 7 p O.H.Z.C.9.r.9.t 6 C ` ",
"O.B.m < k 0.C.6.b : f W o.Z 0.5.Q a 1 a j O.H.k.f.N.B.9.n w N } ",
"^.+X| 7 s  .a.7.T f g W e.m f.w.E d % i B y./.z.d.D.9.O.Z A y R ",
"N.@X^.` N C 9.f.3.Y k Y d.a 8.Z.3.F % a F c._.r.q.G.9.o.} } D j ",
"&.B.@Xu.} w J 5.5.~ v j O.d | S.5.E i % G G.].4. .G.N.r.D A w 8 ",
"1.K ^..Xy.7 6 J <.E x f W k h.$Xe.1.j i  .'..X4.Y h.@.U q O o - ",
"e.K 5..X^.U % p | 5.3.T F p 6.$X*.1.k p d.I._.9.G 3.o.C q < < W ",
"l.E Y ^..Xt.q 7 G 1.f.d.C - W *X*.R G k x.x./.y.k R 1.N 8 n w 6.",
").2.B  .`.F.C 6 N R y.U.J s W *X#.R W  .,.$.x.k.C G 5.G 8 B w T ",
"~.z.B d e.Y.r.m N A  .S.O.J <.%X( +.3.G.=._ -.t.J C u.<.w s w R ",
"Z.e.a ; m k.b.o.J A B O.@.D  .XXt O.B.'.' q o.r.` F u.0.B s < C ",
"v.-.7 ; # B y.l.O.) N B O.o.+.(.5 D D.|./ 6 ] e.` F 7.y.N 7 O p ",
"d.@.a ; # % ` v.m.&.N w ` k.q.OX5 9 r.)...6 D r.` b 6.0.m 6 o j ",
"v.4.a - & + w y.J.&.w 1 t X.B.&X9 O 4.Y.e.0 A d.} k 6.5.p 6 $ 8 ",
"t.9.7 = : # 7 o.x.&.w o < A c.#Xu O d.S.M.R U N. .j 3.5.s = o 8 ",
"{ -.s % j : a D -.m.S o . i | {.[ 5 S.:.M.y.-.S.-.k  .4.k = $ N ",
"] o.B p k h B A O.J.-.6 X % K .X*.t S.#.-.Z.B.K.q.E 6.O.C N % e ",
"&.A h <.W E G J } y.l.w X @ Y oX^ N S.-.A 9.D.T.v.w.G.4.C o.< N ",
"k.F H f.j.6.R  .O.9.r.V O @ 8 P.M k l.S.m A 8.N.V.w.S.o.G M.1 s ",
"I.Y T <.Q.U. .} r.J.Y.-.6 o 8 Y.w p N.`.D w J q.d.@.N.[ J L.1 7 ",
"l.E b G Q.'.t.o.@.Y.`.,.t o 6 O.* l q.`.] 6 p >.d.@.Z.' B L.9 o "
};
