/* XPM */
static char *result[] = {
/* columns rows colors chars-per-pixel */
"32 32 218 2 ",
"   c #290F0A",
".  c #27140E",
"X  c #2C130D",
"o  c #32140D",
"O  c #31180F",
"+  c #2B1712",
"@  c #341B13",
"#  c #3A1D14",
"$  c #3B2217",
"%  c #3D231B",
"&  c #382A2C",
"*  c #3C3335",
"=  c #401F16",
"-  c #42251B",
";  c #4B251D",
":  c #462819",
">  c #46291D",
",  c #50281E",
"<  c #56331D",
"1  c #472A22",
"2  c #4B2D23",
"3  c #4A2B26",
"4  c #412E2C",
"5  c #522D25",
"6  c #582E27",
"7  c #4D3229",
"8  c #563725",
"9  c #53332C",
"0  c #5B322A",
"q  c #433232",
"w  c #4B3533",
"e  c #4C3A36",
"r  c #45393C",
"t  c #4D3C3A",
"y  c #523632",
"u  c #553834",
"i  c #5B3C35",
"p  c #533C3B",
"a  c #593C3A",
"s  c #65362E",
"d  c #663E38",
"f  c #564237",
"g  c #5D433A",
"h  c #6C442A",
"j  c #744A2B",
"k  c #63443B",
"l  c #684738",
"z  c #654A3D",
"x  c #6C4C3C",
"c  c #734A3A",
"v  c #6C503B",
"b  c #795034",
"n  c #395C6F",
"m  c #4B4548",
"M  c #584943",
"N  c #504D51",
"B  c #664A45",
"V  c #6A4B44",
"C  c #724E42",
"Z  c #665345",
"A  c #735343",
"S  c #775747",
"D  c #7B5A45",
"F  c #665656",
"G  c #7F634D",
"H  c #776559",
"J  c #4D616C",
"K  c #776665",
"L  c #6F6E73",
"P  c #825533",
"I  c #885832",
"U  c #8A5932",
"Y  c #83573A",
"T  c #8E5E3A",
"R  c #92623C",
"E  c #865E46",
"W  c #895F4B",
"Q  c #89634A",
"!  c #9D6C45",
"~  c #936648",
"^  c #9A6C4B",
"/  c #8E6952",
"(  c #966E53",
")  c #9D7356",
"_  c #A16C47",
"`  c #A77348",
"'  c #B17B4C",
"]  c #BB7F49",
"[  c #A77854",
"{  c #A57956",
"}  c #A57959",
"|  c #AA7C5B",
" . c #B47E57",
".. c #847A6A",
"X. c #B5814E",
"o. c #A9815D",
"O. c #B68454",
"+. c #B4855E",
"@. c #BB8759",
"#. c #9A8B77",
"$. c #AC8B69",
"%. c #B48461",
"&. c #BC8D63",
"*. c #B88B65",
"=. c #BB9167",
"-. c #B89676",
";. c #C18352",
":. c #C7935E",
">. c #C38F64",
",. c #C39266",
"<. c #CD9763",
"1. c #C7976B",
"2. c #CC9A6C",
"3. c #D29D6A",
"4. c #CB9B71",
"5. c #D29F71",
"6. c #D5A16B",
"7. c #CBA77B",
"8. c #D5A373",
"9. c #DAA573",
"0. c #D7A878",
"q. c #DCAC7B",
"w. c #DFB277",
"e. c #E0AC76",
"r. c #E2AE7A",
"t. c #E4B37B",
"y. c #E9B97F",
"u. c #3789A7",
"i. c #368BAA",
"p. c #3C8EAC",
"a. c #3D91AE",
"s. c #3E90B1",
"d. c #5D8992",
"f. c #659599",
"g. c #77A09C",
"h. c #458EA8",
"j. c #428FAD",
"k. c #538BA2",
"l. c #4292AE",
"z. c #4A94AD",
"x. c #599AAE",
"c. c #4494B1",
"v. c #4A96B3",
"b. c #4899B5",
"n. c #4C9AB4",
"m. c #5396B3",
"M. c #519AB5",
"N. c #599AB6",
"B. c #539CB9",
"V. c #5A9DBD",
"C. c #6997AA",
"Z. c #759DAD",
"A. c #679EB3",
"S. c #5EA4BD",
"D. c #62A3BB",
"F. c #69A4BA",
"G. c #72A9BD",
"H. c #5D9DC1",
"J. c #5DA7C0",
"K. c #7AAEC7",
"L. c #7CB3CC",
"P. c #7DB4D1",
"I. c #92898C",
"U. c #B9AE8E",
"Y. c #AAA39C",
"T. c #B4A598",
"R. c #82ABB9",
"E. c #91AFBB",
"W. c #ABA8A8",
"Q. c #B6AAA3",
"!. c #B9B4A8",
"~. c #B6B5B8",
"^. c #C9AA84",
"/. c #C6B28F",
"(. c #D6B799",
"). c #E5B382",
"_. c #EBBB83",
"`. c #E9BD88",
"'. c #C8B6A7",
"]. c #C2B7B4",
"[. c #D0BEB2",
"{. c #EDC086",
"}. c #F2C78B",
"|. c #E2C490",
" X c #F2CD91",
".X c #D3C4B3",
"XX c #E3D4BF",
"oX c #89B6C5",
"OX c #95BBCA",
"+X c #89BBD6",
"@X c #A1BECC",
"#X c #96C0D6",
"$X c #ACC1CA",
"%X c #BACCD4",
"&X c #96C8E1",
"*X c #D2CDCB",
"=X c #D5CDC9",
"-X c #C2D3DA",
";X c #C9D6DB",
":X c #DBD8D7",
">X c #E5D5C6",
",X c #E4DDD4",
"<X c #DDE2DC",
"1X c #EAE3DB",
"2X c #F1E8DF",
"3X c #DCE4E8",
"4X c #E6E6E5",
"5X c #E6EBED",
"6X c #EEEBEA",
"7X c #F2ECE6",
"8X c #F5F2EE",
"9X c #F8F2EB",
"0X c #E9EEF1",
"qX c #ECF1F3",
"wX c #F4F4F3",
"eX c #F9F6F5",
"rX c #F9F8F8",
"tX c #FCFDFC",
/* pixels */
"c.a.a.c.n.c.p.p.p.j.l.j.c.j.h.p.p.j.p.p.c.b.b.s.s.a.l.l.l.l.c.j.",
"l.a.l.a.l.a.a.p.s.c.v.m.m.k.R.%X%X%X@XZ.z.b.c.a.a.a.l.v.v.m.B.V.",
"a.a.a.l.c.p.p.p.j.m.A.%XrXtXrXeXwXeXeXtXtX3XR.v.a.c.c.c.v.v.v.v.",
"c.c.a.b.v.c.l.m.F.%XtXwX3X*X@XQ.Q.!.'.>X1XwXtX-XF.M.c.l.j.s.s.j.",
"b.b.c.l.l.v.A.#X0XwX:XW.L N N f B G ) $.-.!.:XrX0XOXv.i.u.i.i.i.",
"b.n.a.a.n.R.;XtX3X~.L N m m * * g v ( o.=.=.-..XqXqX@Xh.u.i.i.i.",
"h.a.a.z.oX5X8X*XI.F m r * & * e v D ~ { %.=.+.-.[.6XwXoXh.u.i.i.",
"z.l.h.F.0X3XY.K M m * & & * f z v v T ( +.4.@.+.4..X8X3Xx.i.i.p.",
"b.b.M.%XwXW.F V B y q & * t B f v l E ( %.1.&.%.*.^.>XwX@Xh.i.j.",
"c.a.S.rX:XK C V d a p w t p k V k l D Q } *.,.&.&.4.(.7XqXm.i.s.",
"n.z.E.eX[.V c c d y p p t p d V v z A Q } %.,.2.>.5.5.>XtXA.i.i.",
"S.D.3X6X..d d d d a p w t p a B v l z Q } *.&.0.5.5.4.'.wX@Xj.i.",
"S.L.tX,XB 0 s d a a w q w w a B x S v / } *.2.8.9.9.5.-.6X4XH.v.",
"b.S.tX=X9 9 0 0 6 y y q w p d V v D D Q ( %.1.0.).9.6.-.1XtX+XP.",
"a.n.tX=X> , 6 0 y 6 q q w p B C S D / ( }  .1.r.).e.e.5.7XtX+XP.",
"J.F.tX=X> ; 5 6 6 y 9 w q y a B D / ) { } >.q.`.).r._.q.1XtX+X&X",
"z.C.tX].- ; , 5 5 9 9 p p a g S W ( } } %.4.).`.`.y.{.t.>XtXZ.F.",
"l.C.tX!.- ; ; 1 5 9 y u p a M A W ) | }  .2.q.`.}.}. X{.U.8X4XH.",
"p.E.wXY.% # % 1 3 9 9 y y i g C W } } } +.>.q._.{.}. Xw.$.7XtXj.",
"h.;X6X..$ # # - 1 3 5 y y a l C W } | | +.>.q.).{.}. Xt.=.7XtXj.",
"j.qX6XH $ @ @ @ - 1 3 3 9 f k A W } ) ^  .@.8.y.y.{.y.e.8.2XtXh.",
"H.tX4Xp $ O @ O @ 1 1 2 7 p l c W ^ ^ ~ [ @.3.r.t.t.e.:.).7XtXz.",
"K.tX,Xw o X @ @ O $ - 1 7 8 k c W ~ ! !  .+.:.<.<.3.:.] q.9XtXz.",
"H.tX4XB #   O @ O @ % > > 8 8 j Y T ~ ! ! ` O.@.X.X.' ;.^.8XqXz.",
"c.-XeXY.= o + @ @ O $ $ : : 8 h P P T I P R [ @.X.' ` :.XXrXOXz.",
"v.K.tX,XW #   . @ $ @ # - : < < h h P I U R R X.X.! O.(.8X5Xm.b.",
"v.D.$XrXQ.3 o   . @ $ $ : < < h j j I ! ` ` ' :.6.;.=.,XtXoXv.l.",
"B.n.G.tX,XH % @ + + # : < h j R I R ! ' ] @.<.y.{.U.!.<XrXS.l.v.",
"V.m.S.;XeXQ.S Z & $ - 7 x b ! ` R _ _ ` O.,.w. X/.g.x.D.D.n.l.l.",
"P.v.D.5XtX8X,XT.M & 4 9 x Q { &.:._ ^ _ O.<._.7.$.f.c.c.a.l.a.a.",
"v.p.p.M.B.M.N.m.J q q q p A / =.2.2.,.&.&.9.|.7.#.d.l.a.p.B.M.a.",
"p.u.i.i.s.v.l.l.n * q q e f B Q *.,.5.9.w.y. X-.H d.v.c.n.b.c.a."
};
