/* XPM */
static char *result[] = {
/* columns rows colors chars-per-pixel */
"32 32 204 2 ",
"   c #4D3D30",
".  c #4B4239",
"X  c #51443B",
"o  c #655649",
"O  c #775746",
"+  c #7B604F",
"@  c #7C6251",
"#  c #855E4D",
"$  c #876A57",
"%  c #916D58",
"&  c #8C725D",
"*  c #93745B",
"=  c #99755B",
"-  c #A1785E",
";  c #8B7A67",
":  c #9D7762",
">  c #937966",
",  c #947964",
"<  c #9C7B65",
"1  c #9A7F6B",
"2  c #A27E65",
"3  c #A17E6A",
"4  c #9C816B",
"5  c #9E896E",
"6  c #9A8576",
"7  c #A48364",
"8  c #A5836B",
"9  c #AC856D",
"0  c #AD8A6C",
"q  c #B08E69",
"w  c #B3926F",
"e  c #A48974",
"r  c #AC8B72",
"t  c #B38E73",
"y  c #BA8D70",
"u  c #A59178",
"i  c #AF947D",
"p  c #B49274",
"a  c #BB9576",
"s  c #BD9975",
"d  c #B3977B",
"f  c #BA957A",
"g  c #BC9A7D",
"h  c #C49778",
"j  c #C29B7A",
"k  c #C5A17D",
"l  c #CBA17E",
"z  c #358AA7",
"x  c #3889A7",
"c  c #378BAA",
"v  c #3C8DAC",
"b  c #3D91AE",
"n  c #3F8EB0",
"m  c #3E92B0",
"M  c #66919A",
"N  c #438EA6",
"B  c #418EAD",
"V  c #4292AF",
"C  c #4B94AE",
"Z  c #5498AC",
"A  c #4494B1",
"S  c #4A96B4",
"D  c #4899B6",
"F  c #4C99B5",
"G  c #4E9BB8",
"H  c #5297B4",
"J  c #539CB6",
"K  c #589EB7",
"L  c #549CBA",
"P  c #5A9EBC",
"I  c #608FA1",
"U  c #6B99A1",
"Y  c #669DB5",
"T  c #759FB5",
"R  c #55A1BB",
"E  c #5BA3BD",
"W  c #6FA2B5",
"Q  c #63A4BE",
"!  c #6BA4BC",
"~  c #79A5B6",
"^  c #7CAABB",
"/  c #5D9FC1",
"(  c #5DA3C2",
")  c #64A6C3",
"_  c #69A4C6",
"`  c #64A9C4",
"'  c #6BABC6",
"]  c #6DABCA",
"[  c #71ACC2",
"{  c #75AECC",
"}  c #7AAECA",
"|  c #74B2CB",
" . c #79B4C8",
".. c #7AB2CE",
"X. c #7CB4D1",
"o. c #7CBAD3",
"O. c #9B9F9E",
"+. c #AC9684",
"@. c #A99888",
"#. c #B39982",
"$. c #BA9C83",
"%. c #B69D8A",
"&. c #BBA48A",
"*. c #AEA49A",
"=. c #B8A898",
"-. c #879AA1",
";. c #84A0A8",
":. c #85A8B6",
">. c #96ADB4",
",. c #99ACB0",
"<. c #9AB7BF",
"1. c #AAA7A0",
"2. c #BEB5A6",
"3. c #ABB6B7",
"4. c #B5BFB6",
"5. c #B2BBBB",
"6. c #C29E82",
"7. c #C4A384",
"8. c #CBA483",
"9. c #CCA985",
"0. c #C4A68B",
"q. c #CAA789",
"w. c #CBAB8D",
"e. c #D3AC86",
"r. c #D4AE8D",
"t. c #D9AE8C",
"y. c #D4B285",
"u. c #D6B38C",
"i. c #DAB48D",
"p. c #DEB98F",
"a. c #C3AB94",
"s. c #C9AD94",
"d. c #C5AC98",
"f. c #CCB193",
"g. c #CCB69D",
"h. c #D4B394",
"j. c #DAB692",
"k. c #D7B996",
"l. c #DEBB94",
"z. c #D5B699",
"x. c #D5BA9D",
"c. c #DCBC9C",
"v. c #E1BD95",
"b. c #E2BE9D",
"n. c #CBB6A3",
"m. c #C5B8AC",
"M. c #CCBBAA",
"N. c #D3BCA4",
"B. c #D9BFA2",
"V. c #D2BDAC",
"C. c #DEC09C",
"Z. c #E2C29C",
"A. c #E9C59E",
"S. c #CDC0AF",
"D. c #DBC2A5",
"F. c #D6C3AA",
"G. c #DAC4AC",
"H. c #D2C5B5",
"J. c #DAC9B2",
"K. c #D5CBBC",
"L. c #DFD0BB",
"P. c #E3C3A3",
"I. c #E8C7A4",
"U. c #E6C9A2",
"Y. c #EAC9A4",
"T. c #E2C4A8",
"R. c #EBCBAB",
"E. c #EFD1AE",
"W. c #F2D0AD",
"Q. c #E1CBB6",
"!. c #EFD1B1",
"~. c #E4D5BF",
"^. c #F1D4B3",
"/. c #85B7CC",
"(. c #88B8CA",
"). c #97B8C4",
"_. c #85B7D4",
"`. c #83BBD4",
"'. c #86BCD8",
"]. c #8BBED8",
"[. c #A0BBC4",
"{. c #87C0D3",
"}. c #8EC1DB",
"|. c #9FC9D7",
" X c #93C4DD",
".X c #B8C9CC",
"XX c #B3CED5",
"oX c #BCD1D4",
"OX c #BBD4D9",
"+X c #D8CCC0",
"@X c #DCD3C4",
"#X c #DFD7CB",
"$X c #DED8CC",
"%X c #C9D5D7",
"&X c #D9DAD8",
"*X c #E0CFC7",
"=X c #E3D6C6",
"-X c #E3D9CB",
";X c #EBDCCC",
":X c #E4DDD3",
">X c #E8E3D7",
",X c #EBE5DA",
"<X c #F0E3D3",
"1X c #E9E8E6",
/* pixels */
"A b b C D A b v v V V V V V b b b m m b m G D m b b V V V V C V ",
"A b V V v B b b v V C A H C x 1X1X1Xv A F m m b m m A A D H J P ",
"b b b V V v v v N V J Z %Xm.4 4 5 5 u 2.%XZ F v b A A C S S D D ",
"m V A D D A V A V R oX&.= 7 0 w s d s &.=.K.OXR m A A m B B v n ",
"F A V V B A A V E .Xf.q s l k k k w.f.f.g.F.L.OXP b B c x c c c ",
"F A V b B V B J .XD.9.y.y.u.u.y.y.C.x.C.D.F.J.=XXXK x c x x x c ",
"V V b b b b B :.D.l.Z.p.p.p.p.u.u.k.C.C.F.J.L.L.#X^ x x x z c v ",
"A V V V b b Q 4.C.A.A.Z.p.p.i.i.u.k.g.x.C.J.L.$X@X.XE v x c c v ",
"F A A V A A (.~.U.Y.A.Z.v.t.e.e.y.f.h.z.B.G.=X>X>X1X} B v x c v ",
"A A V V A C -.C.R.E.A.C.i.e.e.9.9.9.w.f.x.G.-X,X,X:X^ B B c c b ",
"D A A A A [ K.C.E.E.A.C.u.9.8.k g j 7.0.s.M.=X,X,X#XW B v c c c ",
"Q E R G D /.<XZ.^.E.A.y.r.k j j a a a &.0.N.=X1X>X@X,.H S A v c ",
"E | [ Q R {.-Xc.E.R.b.t.q.j j a p p p g 0.n.@X,X:XK.3._ / / S S ",
"A G E Q E ~ g.C.!.R.b.r.8.j s a p p a $.0.n.+X:X#XH.,.T _ { X.X.",
"A m A A R U d C.T.P.r.g p a h a p p e 0 r $.H.:X#XK.3._._._.X.X.",
"E E E R F M p Z.P.z.a 0 0 p 7.j p r , & > 1 %.K.$X+X>.} '. X X X",
"( ` ` L F U &.P.c.h.6.> % r h.q.g #.> @ ; > +.V.$XH.<./...] ) Q ",
"R R G J F ^ J.P.z.N.>   o 3 N.c.g.m.@ o . ; =.M.@X2.:.{ X.X.{ P ",
"o.X.X.] K ,.;XP.P.w.$ X   6.P.b.F.@X6 . . o 6 V.#X=.-.} { L V B ",
"( E ` ..;.- s R.^.R.t.6.3 z.A.b.T.:XM.4 u a.+X,X-X@.; I A S v v ",
"G D D ( :.6 2 I.^.R.j.t.t.I.A.t.k.=X*X6.$.d.Q.,X-X@.*.Y x v V V ",
"R ( ( ( ..3.7 I.^.W.b.t.8.t.h h 6.#.d.y q.V.=X,X$X*.5.) A B V A ",
"` ( ( ` / T a.b.W.W.v.8.h h - h r $ $.2 $.N.-X:XK.&X/.P P F V V ",
"| ( R R P } 5.z.R.I.v.6.6.s.r.y f %.3 3 y s.*X;Xm.,.Q D G D A A ",
"] ] ( R / ( (.Q.b.b.r.6.f q.6.3 #.&.< < r $.V.+XK.~ A A A A S S ",
"G ] X.| ] ) |.;Xb.z.8.9 % 9 2 # $ & @ O = r d.M.4.! S A D D S A ",
"D R | {._.{ /.1.0.h.g < 8 r % O O O + O * 1 #.S.).C F F S G G S ",
"D G R ` [ ' Q [.n.7.s r $.6.f 9 2 1 1 $ % , +.5./.) L H L L L P ",
"E G J L J L E { :.O.d p s.z.0.9 t i i , & @..X[ ' ] _ E H J L ` ",
"E R L P L H F H R ! W .Xm.s.f : < e +.&X~ ! ..' ' _ ' _ _ / L L ",
"F F D S L F F S A R ` | { >.:X1X1X1X' (.`. .Q L ( ..`.X.{ ] ) P ",
"E J J H K L H L R E [ '.'...`.{.| X.'.}. X}.'.o.| o.'.}. X].`..."
};
