/* XPM */
static char *result[] = {
/* columns rows colors chars-per-pixel */
"32 32 196 2 ",
"   c #4B3120",
".  c #543823",
"X  c #583C27",
"o  c #713F38",
"O  c #5F432E",
"+  c #594538",
"@  c #674B39",
"#  c #6C4F3B",
"$  c #724D39",
"%  c #5F4D41",
"&  c #5F5347",
"*  c #7B5A43",
"=  c #7C5D49",
"-  c #6F5E56",
";  c #7D6B5F",
":  c #7A6D67",
">  c #824E43",
",  c #885A49",
"<  c #875C54",
"1  c #925E53",
"2  c #85624C",
"3  c #8A6356",
"4  c #8D6952",
"5  c #936E55",
"6  c #946B58",
"7  c #99735C",
"8  c #A36E5E",
"9  c #A0735E",
"0  c #8B7768",
"q  c #9E7A61",
"w  c #987865",
"e  c #A77665",
"r  c #A37D64",
"t  c #B4796A",
"y  c #93877D",
"u  c #A88168",
"i  c #AC846B",
"p  c #B1896F",
"a  c #AE8A72",
"s  c #AA8974",
"d  c #B78775",
"f  c #B58C75",
"g  c #BA8D76",
"h  c #B18D7A",
"j  c #BA9277",
"k  c #B6937A",
"l  c #BD937B",
"z  c #BA957A",
"x  c #C48B76",
"c  c #C3957C",
"v  c #CB957D",
"b  c #C2997D",
"n  c #567681",
"m  c #3989A7",
"M  c #368BAA",
"N  c #3B8DAC",
"B  c #3C91AE",
"V  c #3D92B0",
"C  c #5E8698",
"Z  c #67838E",
"A  c #718A95",
"S  c #408FAD",
"D  c #4291AF",
"F  c #5B9AAC",
"G  c #4494B1",
"H  c #4A96B4",
"J  c #4999B6",
"K  c #4C99B5",
"L  c #4C9AB9",
"P  c #5597B3",
"I  c #529BB6",
"U  c #549CBA",
"Y  c #599EBB",
"T  c #6895A4",
"R  c #729AA6",
"E  c #649EB2",
"W  c #53A1BA",
"Q  c #5AA2BC",
"!  c #64A5BD",
"~  c #6CABBD",
"^  c #74A4B5",
"/  c #74A4B8",
"(  c #76A9BD",
")  c #7AA9BC",
"_  c #5E9FC1",
"`  c #5DA3C2",
"'  c #64A6C2",
"]  c #69A6C5",
"[  c #65A9C5",
"{  c #6BABC5",
"}  c #6CABC9",
"|  c #72AEC6",
" . c #7CAFC0",
".. c #73ADCA",
"X. c #6EB2CA",
"o. c #75B1C6",
"O. c #75B4C9",
"+. c #75B2CC",
"@. c #7BB3CC",
"#. c #7CB4D1",
"$. c #7DBBD4",
"%. c #89908D",
"&. c #9C958D",
"*. c #949996",
"=. c #AA9787",
"-. c #BD9581",
";. c #B69F8F",
":. c #BD9C8C",
">. c #A99D91",
",. c #BCA18C",
"<. c #BBA69C",
"1. c #98A2A1",
"2. c #80AFBF",
"3. c #87B1BF",
"4. c #90B0BC",
"5. c #AEA7A1",
"6. c #B8ACA3",
"7. c #B1B9BA",
"8. c #C09781",
"9. c #CC9785",
"0. c #C49C81",
"q. c #CB9D84",
"w. c #C79E8B",
"e. c #D39C86",
"r. c #C7A287",
"t. c #CCA186",
"y. c #C4A18C",
"u. c #CCA38A",
"i. c #CEA98D",
"p. c #D3A58C",
"a. c #DAA68E",
"s. c #D3A98E",
"d. c #CCA591",
"f. c #CDA891",
"g. c #CCAE9D",
"h. c #D4AB93",
"j. c #DAAD95",
"k. c #D3AD98",
"l. c #DBAE99",
"z. c #DCB097",
"x. c #D7B298",
"c. c #DDB39B",
"v. c #E2B59D",
"b. c #E1B89F",
"n. c #CBB3A8",
"m. c #CBBAAF",
"M. c #DDB6A2",
"N. c #DEB9A3",
"B. c #D8BAA7",
"V. c #CDBFB4",
"C. c #E6B9A3",
"Z. c #E4BBA3",
"A. c #E7BEA9",
"S. c #E9BFA9",
"D. c #F0BDA8",
"F. c #DCC0AB",
"G. c #D4C6BB",
"H. c #E6C1A7",
"J. c #E6C2AB",
"K. c #EAC2AC",
"L. c #EBC7B1",
"P. c #EDC8B2",
"I. c #E3C7BB",
"U. c #ECCDB9",
"Y. c #F1C6B3",
"T. c #F3CAB4",
"R. c #83B4C8",
"E. c #8ABACE",
"W. c #83B6D4",
"Q. c #84BBD5",
"!. c #8ABCD4",
"~. c #87BAD9",
"^. c #8EBFDD",
"/. c #92BFD6",
"(. c #A7BCC1",
"). c #8EC2DB",
"_. c #94C1D7",
"`. c #93C4DD",
"'. c #9BC8DD",
"]. c #AFC4C7",
"[. c #B3C6CA",
"{. c #AFCAD2",
"}. c #A2C7D8",
"|. c #B8C9D2",
" X c #C2C8C9",
".X c #D1C8C1",
"XX c #C9D1D3",
"oX c #D6DDDD",
"OX c #E7D7CC",
"+X c #E9DDD5",
"@X c #EBE2DA",
"#X c #F1E3D8",
"$X c #EEE5E0",
"%X c #F5EAE4",
"&X c #F8EFE8",
"*X c #F9F0E9",
/* pixels */
"G B D D J D B B N G G S G S B B B B B M V L J V V B D D D D D S ",
"G B D B D B B N N D H U G S N N M N V B B B V V B G D D K P Y Y ",
"B B B D D D N N N I R.oX) Y G N V V B B B N B B B G G J H H H H ",
"G D G J H D D I E ].g.k n.$X4.! Q V M M B B B B G G V D S S V N ",
"G G G D D D Q [.m.:.i.f.i.f.y.OX@XT ~ X.K J G V D S N m m M M M ",
"G K D B D Y {.I.k.c.x.x.x.x.h.i.i.k G.[.R.O.W J V N m M m m m M ",
"G D B B B  .OXc.Z.N.N.b.c.c.x.h.i.i.z s m.7.{ J G N N m m M M N ",
"H D B D W ].F.J.J.K.Z.J.Z.c.c.z.i.i.r.k u u %.R { D V N m m M N ",
"K G K D o.#XJ.P.L.K.H.J.Z.b.c.z.x.s.i.b h u = 0 (.! S S N m M N ",
"G D D D / U.J.P.J.J.A.A.Z.v.c.z.x.s.i.r.z a 5 # 5.E.S N N N M N ",
"K G D ! XXZ.J.K.Z.A.Z.Z.Z.c.l.v.x.s.s.i.r.j 7 # y ) D S N V M M ",
"! Q W O.&XZ.K.K.H.Z.A.Z.C.v.v.z.j.s.i.u.b j u * + Z Y P G S V M ",
"Q | ~ E.%XH.Z.Z.C.A.A.A.C.v.v.j.j.s.p.t.b l u 2 X *.E._ _ _ L H ",
"D W W ).%Xc.b.v.v.C.S.A.Z.c.l.h.h.p.p.t.b j p 5 $ % n _ ] ..#.#.",
"G V G ( %Xb.c.c.v.Z.L.K.Z.l.h.d.9.8.q.q.q.j p r <   A ~.W.W.#.W.",
"Q Q Q O.%Xh.r.f.w.h.J.J.M.i.y.-.k h f c 0.-.f i 4 . *./.~.`.^.^.",
"` [ ' O.%Xx.x.<.: =.J.Y.k.d.u.,.y & % h 8.b l f 5 X A ~.#.} ' ' ",
"W W W O.%XB.F.>.- :.T.S.l.d.M.g.; + w u.u.0.8.l 5 O 6.}.W.#...Y ",
"W.#.#._.%XJ.L.K.v.C.T.D.j.a.c.l.Z.Z.c.k.u.t.q.l 5 $ O .X!.Y S S ",
"' W [ _.&XL.H.T.T.D.Y.D.l.e.j.Z.C.c.z.h.s.t.0.c u 4 @ 7.] G N N ",
"L J L @.*XY.T.T.L.l.C.v.9.v v v.Z.C.v.a.p.v b f 6 $ %.F N B D D ",
"W ` Q O.oXY.L.K.C.x e.e.t x v a.b.C.v.s.i.t.c p , * C G D S D G ",
"[ [ [ [ 4.A.A.C.v.v.C.l.j.p.h.p.j.z.j.a.t.t.c i 4 <.R.U U K D D ",
"X.[ W L ) I.b.v.C.S.S.C.v.l.h.a.p.a.s.p.t.v c r , *.] J I H H G ",
"} } ` _ @.+Xp.s.h.l.p.9.9.c p.w.t.v e.q.q.c g e * n G G G G G J ",
"L } #.@.W.|.n.-.8.g 8 , o > < 6 g c c c c g y.V.%.C K G H H H H ",
"J Q O.W.W.!.1.q i d p e 1 1 > < e r f j f r >.}.X.L K H H L H H ",
"L L W ' | { 3.&.0 s -.p t t t t t 9 r r 7 h [...} [ U I U U U _ ",
"Q I I I P U ] ( ].<.;.k.w.w < 3 n.+X+X XT ^ ..' } } [ Q U H _ [ ",
"Q W U U I K K P { ) 2.( / | / F ~ !.'.).| ] { | } } ] ] ] _ U I ",
"K K K I U K K H J W [ { } ..X.#.+.X.+.$.Q.+.' Y ` @.Q.#...} ' _ ",
"Q U I U I I I P W Q X.Q.Q.@.$.$.+.+.W.).`.^.!.$.X.#.~.).`.^.$.+."
};
