/* XPM */
static char *result[] = {
/* columns rows colors chars-per-pixel */
"32 32 195 2 ",
"   c #4B3120",
".  c #533722",
"X  c #583C27",
"o  c #713F36",
"O  c #594638",
"+  c #61422E",
"@  c #674B39",
"#  c #6C4F3B",
"$  c #724D39",
"%  c #5F4D41",
"&  c #5F5347",
"*  c #7E4C43",
"=  c #7C5B42",
"-  c #7A5C47",
";  c #6F5E56",
":  c #7A6D67",
">  c #804F41",
",  c #865C4B",
"<  c #895949",
"1  c #875F57",
"2  c #925E53",
"3  c #8A6356",
"4  c #8D6952",
"5  c #936E56",
"6  c #946B58",
"7  c #99735C",
"8  c #A56D5E",
"9  c #A1775F",
"0  c #8B7768",
"q  c #997564",
"w  c #967B67",
"e  c #9E7A61",
"r  c #A77665",
"t  c #A37D64",
"y  c #B4796A",
"u  c #93877D",
"i  c #A88168",
"p  c #AD846C",
"a  c #B1896F",
"s  c #AE8A72",
"d  c #AA8975",
"f  c #B78775",
"g  c #B58B74",
"h  c #BA8E76",
"j  c #B18D7A",
"k  c #BA9277",
"l  c #B7937B",
"z  c #BD937B",
"x  c #BA957A",
"c  c #C48B76",
"v  c #C3957C",
"b  c #CB957D",
"n  c #C2997D",
"m  c #4E7886",
"M  c #3689A7",
"N  c #3889A7",
"B  c #368BAA",
"V  c #3B8EAC",
"C  c #3D91AD",
"Z  c #3F8FB0",
"A  c #3D92B1",
"S  c #598494",
"D  c #64838C",
"F  c #408EAC",
"G  c #4291AE",
"H  c #408FB0",
"J  c #4494B1",
"K  c #4A96B4",
"L  c #4699B2",
"P  c #4C99B5",
"I  c #4D96B9",
"U  c #4D9BB8",
"Y  c #5097B5",
"T  c #539CB6",
"R  c #549CBA",
"E  c #599EBC",
"W  c #6796A8",
"Q  c #7396A3",
"!  c #649EB2",
"~  c #52A1BA",
"^  c #5BA2BC",
"/  c #62A4BD",
"(  c #6EAABD",
")  c #74A3B4",
"_  c #75A4B9",
"`  c #75A9BF",
"'  c #5DA3C2",
"]  c #64A6C2",
"[  c #65A9C4",
"{  c #6BAAC4",
"}  c #67A8C8",
"|  c #6DABCA",
" . c #74AEC3",
".. c #79ADC3",
"X. c #74ADCB",
"o. c #69B0C6",
"O. c #6EB1CA",
"+. c #77B5C7",
"@. c #75B3CC",
"#. c #7BB2CC",
"$. c #7CB4D1",
"%. c #7DBBD4",
"&. c #8E8D8B",
"*. c #97968F",
"=. c #8C999A",
"-. c #999691",
";. c #A79689",
":. c #BD9581",
">. c #B69F8F",
",. c #BE9D8C",
"<. c #BCA18C",
"1. c #BBA69C",
"2. c #9B9FA0",
"3. c #88AFBE",
"4. c #8FB1BB",
"5. c #B8ADA4",
"6. c #B7BCBB",
"7. c #C69783",
"8. c #C49C81",
"9. c #CB9D84",
"0. c #C79E8B",
"q. c #D39D86",
"w. c #C7A287",
"e. c #CCA186",
"r. c #C5A18C",
"t. c #CCA38A",
"y. c #CEA98D",
"u. c #D5A48B",
"i. c #D3A58D",
"p. c #D4A98E",
"a. c #CCA591",
"s. c #CDA990",
"d. c #CBAE9D",
"f. c #D4AB93",
"g. c #DBAD95",
"h. c #D3AD98",
"j. c #DBAE99",
"k. c #CBB09B",
"l. c #D9B198",
"z. c #DCB39B",
"x. c #E0B197",
"c. c #E2B59D",
"v. c #E1B89F",
"b. c #CBB3A8",
"n. c #CBBAAF",
"m. c #DEB6A2",
"M. c #DEB9A3",
"N. c #D8BAA7",
"B. c #CDBFB2",
"V. c #E4B7A2",
"C. c #E4BBA3",
"Z. c #E8BBA4",
"A. c #E7BEA8",
"S. c #E9BFAA",
"D. c #F0BDA8",
"F. c #DCC0AB",
"G. c #D4C6BB",
"H. c #E6C1AB",
"J. c #EAC5AB",
"K. c #EAC2AC",
"L. c #EBC7B1",
"P. c #ECC8B2",
"I. c #E5C9B9",
"U. c #F0C5B2",
"Y. c #F3CAB5",
"T. c #83ADC3",
"R. c #85B2C3",
"E. c #8AB4C6",
"W. c #83BACE",
"Q. c #8EBCCB",
"!. c #91B6C9",
"~. c #83B5D4",
"^. c #85BCD5",
"/. c #8CBCD5",
"(. c #81BAD8",
"). c #AABEC3",
"_. c #8AC2D5",
"`. c #8EC1DB",
"'. c #93C4DD",
"]. c #ADC0C6",
"[. c #B4C6CA",
"{. c #ADC8D1",
"}. c #95C7E0",
"|. c #A8CEE1",
" X c #C4C9C9",
".X c #D1C8C1",
"XX c #C8D0D2",
"oX c #D5DDDD",
"OX c #E6D4C6",
"+X c #EBDBD1",
"@X c #EAE1DA",
"#X c #F1E3DA",
"$X c #EDE6E0",
"%X c #F5EBE4",
"&X c #F9F0E7",
/* pixels */
"J C F J K J C V V G J G G J C C V B A B L U L A A A F J G G G F ",
"J C G C V V C V F G J J F F G B B C A A L A A C A V G J K Y E E ",
"C C C G V F C V F G G G F G V B C L ~ ` oX3.P V V J K K K K K K ",
"A J L L K J J G F G F F F F J / ^ 4.@Xn.g d.[./ R J J C F Z Z F ",
"L L L G J G J G J J J G { ( W @X+X<.y.s.y.y.<.n.{.T V B N B B B ",
"L L C V F G G V G P #.E. XG.l t.s.f.f.l.l.z.l.h.I.{.Y N N B V N ",
"J G C C C C F V A  .6.n.p x y.y.l.l.z.v.M.M.M.M.M.OX` N N M N B ",
"J G G C C G G { Q *.w e l w.y.p.l.l.v.C.H.C.H.H.H.F.].R N B B V ",
"K J J J J J ` ].0 - i j n y.p.f.z.z.z.C.Z.H.H.L.P.H.#X .C N B C ",
"K G G G J G _.1.@ 5 d x e.y.f.l.z.l.v.Z.A.H.K.J.P.H.I.) C B B V ",
"P G G L J K 3.u @ i x n t.p.f.j.x.z.z.Z.Z.Z.A.A.K.K.C.XXR B B B ",
"[ ^ ^ P L Y D O # i x n 0.i.p.g.x.c.z.C.C.A.C.A.K.K.C.%X{ Z Z V ",
"^ o.{ / ^ ..*.X 4 i x n u.p.f.g.g.c.c.C.C.S.Z.V.C.A.V.%X~.R I K ",
"K T ^ [ ^ S O @ 5 a x n e.p.i.f.p.l.z.v.A.S.C.V.c.V.V.%X/.X.#.~.",
"J C J L ~ m   = i s k n e.e.v 9.a.f.z.C.K.L.A.m.j.z.m.%X|.$.#.#.",
"' ^ ^ T { =.. 4 i k x n k g j x :.r.y.M.H.S.h.0.a.0.f.$X|.'.}.}.",
"' } [ R P m X 5 g z n 7.x O & &.,.r.a.h.L.S.;.: 5.m.h.%X/.| ] ] ",
"~ ~ ~ T W.5.+ 7 x 8.8.w.t.w O 3 k.m.a.j.S.Y.0.; ;.N.m.%X}.~.X.E ",
"%.$.$.'..XX $ 6 z 9.w.t.f.z.v.Z.j.z.f.g.D.Y.V.m.L.L.A.%X/.E G F ",
"' ^ } /.B.% 4 t x 9.e.i.l.z.x.c.V.j.q.g.D.Y.U.Y.P.S.L.&X .J V F ",
"U L U ' ..&.$ 6 g n e.u.g.c.c.K.V.7.b 9.x.c.x.K.Y.Y.P.&X! V Z J ",
"~ ' ' ' ' Q - , p v 9.t.g.x.v.v.g.b c y u.q.c c.J.J.Y.oX/ H Z J ",
"} ' ] ] ] !.1.4 p v 9.e.p.g.x.g.u.f.q.g.x.c.c.c.Z.J.S.3.E P H G ",
"@.} ~ I R ~.2., t v 9.9.e.u.p.u.u.g.j.c.Z.S.D.c.z.c.I._ U K J J ",
"o.| ' ~ R ' m < 7 h v 7.9.9.q.e.q.0.v 7.7.i.z.f.p.y.+X .G L J K ",
"~ } $.#.| } W 2.G.r.k v v v c f 6 < > o < 8 h z n b.].^ K K K J ",
"L ' X.~.~.@.] { Q.;.i g k k t r , * < 2 8 f g d q =./ K K R U K ",
"U L ~ [ { { / ^ R ].j 7 t 9 9 y y y y f f :.d q -.3.E Y R R R ^ ",
"^ T K ^ T R E ] { W._ W  X@X@Xn.1 1 q 0.h.>.1.).` X.} E R K R { ",
"^ ~ R R T U Y T ^ [ { / @._./.{ R _ !.!.R.T.R.@.{ } { } ] ' R R ",
"P P K Y Y P P K K ~ [ o.[ O.O.$.@.O.X.~.^.+.] R / #.(.~.X.| ] E ",
"E R T R R E T Y ~ ^ O.^.^.$.%.%.O.$.(./.'.`.^.%.@.$.^.`.'.`.^.@."
};
