/* XPM */
static char *_4e21fdc91fd4fe9882cc118b8f61b9aPV5wpWtlFpzgWjfV[] = {
/* columns rows colors chars-per-pixel */
"32 32 189 2 ",
"   c #140D1C",
".  c #1B121E",
"X  c #23151E",
"o  c #27181E",
"O  c #2A191E",
"+  c #3A231F",
"@  c #131121",
"#  c #1C1623",
"$  c #1C1826",
"%  c #141B2D",
"&  c #1B1C2B",
"*  c #0F1D32",
"=  c #151E31",
"-  c #201621",
";  c #231C24",
":  c #291F25",
">  c #331E20",
",  c #05263B",
"<  c #0B253C",
"1  c #05283F",
"2  c #132135",
"3  c #192334",
"4  c #12253C",
"5  c #1B2939",
"6  c #23222B",
"7  c #2E2C2E",
"8  c #322322",
"9  c #3C2521",
"0  c #312A27",
"q  c #3A2B26",
"w  c #3F3329",
"e  c #262B35",
"r  c #29323D",
"t  c #473225",
"y  c #443B2D",
"u  c #4E3C2A",
"i  c #503122",
"p  c #6C3E2A",
"a  c #51462E",
"s  c #5B492E",
"d  c #484432",
"f  c #554738",
"g  c #67492C",
"h  c #7A4926",
"j  c #75442B",
"k  c #79472D",
"l  c #744828",
"z  c #7D4C2B",
"x  c #624631",
"c  c #695933",
"v  c #6C693F",
"b  c #062C45",
"n  c #092A43",
"m  c #062F49",
"M  c #0C2D49",
"N  c #122A43",
"B  c #182D45",
"V  c #07314C",
"C  c #09324E",
"Z  c #1A334B",
"A  c #063553",
"S  c #083552",
"D  c #073857",
"F  c #083856",
"G  c #063A5A",
"H  c #093B5B",
"J  c #113452",
"K  c #193C58",
"L  c #293B48",
"P  c #313F41",
"I  c #063E61",
"U  c #0A3E60",
"Y  c #354443",
"T  c #054164",
"R  c #0A4164",
"E  c #06456B",
"W  c #09456B",
"Q  c #07496F",
"!  c #09496F",
"~  c #174667",
"^  c #054A72",
"/  c #0A4B74",
"(  c #064F7B",
")  c #0B4E7A",
"_  c #124A74",
"`  c #06517D",
"'  c #0A517D",
"]  c #214D68",
"[  c #484141",
"{  c #635045",
"}  c #7B7742",
"|  c #854D2C",
" . c #8B5527",
".. c #81512B",
"X. c #8B522C",
"o. c #88592B",
"O. c #90552A",
"+. c #925B2B",
"@. c #9D5C2E",
"#. c #9B5C31",
"$. c #A15F2D",
"%. c #A15F30",
"&. c #9B632C",
"*. c #886130",
"=. c #9C6B31",
"-. c #986738",
";. c #9C6C3A",
":. c #8E773C",
">. c #A4612B",
",. c #AB652C",
"<. c #B16B2F",
"1. c #BA6E2D",
"2. c #B9712F",
"3. c #A46C30",
"4. c #AC7231",
"5. c #B57531",
"6. c #B87130",
"7. c #BD7A32",
"8. c #C27C32",
"9. c #BB8538",
"0. c #CA8D39",
"q. c #D49A3E",
"w. c #8A8749",
"e. c #948542",
"r. c #948C46",
"t. c #97924A",
"y. c #969152",
"u. c #A08B42",
"i. c #A89446",
"p. c #BA9742",
"a. c #B18752",
"s. c #A7A14E",
"d. c #A9A14F",
"f. c #B9AB4E",
"g. c #ACA751",
"h. c #B4AE51",
"j. c #BDB654",
"k. c #BEB855",
"l. c #838A7E",
"z. c #D59C51",
"x. c #C4A34A",
"c. c #CBAF4D",
"v. c #D6A54D",
"b. c #CDB54F",
"n. c #D6B64D",
"m. c #D6B94F",
"M. c #C8BC55",
"N. c #D6BD51",
"B. c #CFBB60",
"V. c #CBC559",
"C. c #D8C355",
"Z. c #D8C556",
"A. c #D4CC5B",
"S. c #D9CB5A",
"D. c #DAD35D",
"F. c #DAD563",
"G. c #055584",
"H. c #095582",
"J. c #045887",
"K. c #0C5789",
"L. c #05598A",
"P. c #0B5B8B",
"I. c #135787",
"U. c #0B5E92",
"Y. c #0B6094",
"T. c #0C649B",
"R. c #0D66A0",
"E. c #066AA7",
"W. c #0B6AA6",
"Q. c #0D6DA8",
"!. c #106BA4",
"~. c #0B74B3",
"^. c #0E77BA",
"/. c #0B7CBC",
"(. c #1079B7",
"). c #117DBC",
"_. c #0C7FC0",
"`. c #0D80C2",
"'. c #0F84C8",
"]. c #1181C2",
"[. c #1187CD",
"{. c #1189CF",
"}. c #889085",
"|. c #ABAD8B",
" X c #A8B0A1",
".X c #B4BEAD",
"XX c #D1D284",
"oX c #D2CEA9",
"OX c #D9D3AE",
/* pixels */
", , , , , , , , , , , , , @         @ , , , , , , , , , , , , , ",
", , , R R S S b V S S S C < _ _ _ / / H.K.' m T T T H S S R I , ",
", , R K./ R R m F R R R U V ~.]././././.`.(.A G.J.G.! R R K.' , ",
", R K./ R R R m F R R R U V E.)././././.`.(.H Y./ ! R R R K.' , ",
", R / R R R R m F R R R H 2 J K ~ ~././.`.(.A ' R R R R ' Q.H., ",
", ! T.T.T.T.T.G H.T.T.U.K l.y.r.w.] ].{.{.~.G Y.T.T.T.T.Q.^.' , ",
", A R R R R R m G R U Z }.XXF.D.A.w.Z ! / R m T R R R R R R A , ",
", V F F ' L.U.W F F F & a.S.D.D.S.9.6 b W ^ ^ ^ ` Y./ , b F V , ",
", S R R / E T.' R R U & X.0.C.q.0.X.& b W ! ! ! / ' R 1 V R S , ",
", S R R R V U.' R R U & @.%.;.#.@.$.; n U R R R R R / / V R S , ",
", / R.T.) V P.) R R H & | 6.x.7.1.X.- & 5 H R R R R ' K.V R S , ",
", V G G A b A A V b b $ @.#.;.#.@.>.q s.t.e n V V V A A V R S , ",
", H./ / R.Q.R.!.T.S , # k 6.x.8.1.X.w V.A.r.4 !.Q.E.E.` V R S , ",
", Y.H.H / T.P.R.' 5 6 ; q z -.#.@.>.t M.N.=.3 (./././.P.G G.I , ",
", Y.H.F R ! W R r t.k.k.h.s i.7.1.| 9 5.3.r H )./././.P.G J.T , ",
", P.) S U U H 2 r.A.D.D.D.f.u X.@.>.o : e K.R )./././.P.G ` I , ",
", b m b b b 1 % &.N.D.S.Z.9.9 ,.1.j $ S W T.R )._._._.P.b A m , ",
", C U U H 2 ; # j 7.c.0.8.+.> | k w 0 7 L K.U ).].].].U.W ~.( , ",
", S R R R 2 o.i O.$.-.#.@.,.9  .s j.V.V.g.P n D V V V V E E.^ , ",
", V H H H 2 r.a p <.p.4.>.j X 8 f.D.D.D.A.i.3 P.R U U U R W F , ",
", V D m b % e.a j k f [ y w . o 5.N.D.Z.n.&.& / / / / / / / F , ",
", ' ~.W T 4 +.i h { .XoXB.M.u o O.7.x.8.2.z % U.T.T.T.T.T.T.! , ",
", H./.Q G 2 l 9 -  XOXv.q.C.7.+ O.#.;.#.@...2 n n n m A A A m , ",
", H./.^ E M = % $ |.z.C.D.S.8.O o +.u.&...Z ~ d d d Y / ` G.E , ",
", H./.Q T W R U 3 d.v.Z.D.S.8.8 y # = = 4 K v A.A.A.s.Y U P.! , ",
", H./.Q F R R R N } c.m.S.A.=.c i.6 H R S w b.D.D.D.S.:.M ! , , ",
", H./.Q F R R R U 2 l +.e.e.g p.o.3 S F C 7 =.N.S.n.p.x M , , , ",
", T W.Q H W R R R b N 4 @ X h z B V V V V S 7 *.:. .x J / / D , ",
", G T.Q E ( W R ! V T.U.< * = 4 H.W R R R ( ! M 4 4 I./.`.'.H., ",
", ^ ~.^ E J.( W ^ V T./ R R R R R R R R R R ! G.^ ! [./././.H., ",
", A ^ G A T T D S b ! F S S S S S S S S S S D T G F P.H.H.H.I , ",
", , , , , , , , , , , , , , , , , , , , , , , , , , , , , , , , "
};
