/* XPM */
static char *_efcdd5347a3406b862a3fdeadc14aabRQTbHXTxsxAxSnFF[] = {
/* columns rows colors chars-per-pixel */
"32 32 178 2 ",
"   c #140D1C",
".  c #121121",
"X  c #131A2B",
"o  c #1F1D2D",
"O  c #131E32",
"+  c #181F31",
"@  c #251E28",
"#  c #05263B",
"$  c #0C2339",
"%  c #05283F",
"&  c #142435",
"*  c #182234",
"=  c #12263C",
"-  c #19273A",
";  c #1E2B3B",
":  c #25212D",
">  c #2A242C",
",  c #3F2924",
"<  c #222331",
"1  c #2B2830",
"2  c #212E3C",
"3  c #383B33",
"4  c #333B3C",
"5  c #4A2C21",
"6  c #483126",
"7  c #57372C",
"8  c #643B2B",
"9  c #693F2D",
"0  c #3A413E",
"q  c #4C4731",
"w  c #6E432D",
"e  c #78462D",
"r  c #724A31",
"t  c #7A5634",
"y  c #062C45",
"u  c #062F48",
"i  c #0A2F49",
"p  c #122C45",
"a  c #182C45",
"s  c #07314C",
"d  c #09324E",
"f  c #173147",
"g  c #183149",
"h  c #063653",
"j  c #083552",
"k  c #073957",
"l  c #093856",
"z  c #063A5A",
"x  c #093B5B",
"c  c #133554",
"v  c #143959",
"b  c #1C3F5A",
"n  c #2C3B43",
"m  c #063E61",
"M  c #0A3F61",
"N  c #143F62",
"B  c #054165",
"V  c #0A4164",
"C  c #06456B",
"Z  c #09456B",
"A  c #07496F",
"S  c #0B496F",
"D  c #12446A",
"F  c #064A73",
"G  c #0A4B74",
"H  c #064F7A",
"J  c #0B4E79",
"K  c #124A74",
"L  c #06517D",
"P  c #0A517D",
"I  c #7E7A45",
"U  c #7D7E4A",
"Y  c #844D2E",
"T  c #8A512D",
"R  c #8E5A2A",
"E  c #94562F",
"W  c #9A5B2E",
"Q  c #854C30",
"!  c #894F30",
"~  c #825533",
"^  c #8B5332",
"/  c #945B33",
"(  c #985E32",
")  c #A05F2A",
"_  c #9B6436",
"`  c #946338",
"'  c #96693A",
"]  c #9A6D3B",
"[  c #A2672D",
"{  c #AF682A",
"}  c #B56C2E",
"|  c #BA6F2A",
" . c #BD712C",
".. c #A56431",
"X. c #A2783F",
"o. c #B67030",
"O. c #BD7F33",
"+. c #C4752D",
"@. c #C7782E",
"#. c #CB792C",
"$. c #D27D2C",
"%. c #C27B32",
"&. c #986C47",
"*. c #9C7141",
"=. c #9F7C40",
"-. c #9C7459",
";. c #A5764B",
":. c #CD8233",
">. c #CE8A36",
",. c #D48D36",
"<. c #C4953F",
"1. c #CC953C",
"2. c #D39339",
"3. c #D3963B",
"4. c #858249",
"5. c #918345",
"6. c #948C46",
"7. c #9A8B45",
"8. c #9B8E49",
"9. c #9B9147",
"0. c #9B9349",
"q. c #A79A4B",
"w. c #A8994A",
"e. c #BCA44D",
"r. c #ADA450",
"t. c #C38447",
"y. c #CF8D48",
"u. c #D08E4B",
"i. c #CC994A",
"p. c #D4924A",
"a. c #D39654",
"s. c #D09F56",
"d. c #C5AA4E",
"f. c #CAA84A",
"g. c #D4B34C",
"h. c #C8B553",
"j. c #CBB756",
"k. c #D8BE51",
"l. c #D6C254",
"z. c #D6C858",
"x. c #D9CA58",
"c. c #DAD25D",
"v. c #055684",
"b. c #095582",
"n. c #045887",
"m. c #0B5788",
"M. c #05598A",
"N. c #0B5A8B",
"B. c #075C90",
"V. c #0B5E91",
"C. c #0B6095",
"Z. c #06629B",
"A. c #0C649B",
"S. c #0E67A1",
"D. c #066AA7",
"F. c #0C6BA6",
"G. c #0D6CA8",
"H. c #1067A2",
"J. c #126EA6",
"K. c #1071AA",
"L. c #0C74B4",
"P. c #0E76B9",
"I. c #0B7CBC",
"U. c #1076B2",
"Y. c #1079B6",
"T. c #107CBC",
"R. c #0C7FC0",
"E. c #0D80C2",
"W. c #0F84C8",
"Q. c #1181C2",
"!. c #1187CD",
"~. c #1188CE",
"^. c #A7A889",
"/. c #A9AD9D",
"(. c #CCBC98",
"). c #C6BEA2",
"_. c #CBC4A0",
"`. c #CBC7AB",
/* pixels */
"# # # # # # # # # # # # # .         . # # # # # # # # # # # # # ",
"# # # V V j j y s j j j d $ K K K G G b.m.P u B B B x j j V m # ",
"# # V m.G V V u l V V V M s L.Q.I.I.I.I.E.Y.h v.n.v.S V V m.P # ",
"# V m.G V V V u l V V V M s D.T.I.I.I.I.E.Y.x C.G S V V V m.P # ",
"# V G V V V V u l V V M = X c v v v v D I.Y.h P V V V V P G.b.# ",
"# S A.A.A.A.A.z b.C.v f I 6.6.6.6.6.6.U b N j C.A.A.A.A.G.P.P # ",
"# j V V V V V u l f I 9.=.X.X.X.X.X.X.=.9.I & M V V V V V V j # ",
"# s l l P M.B.Z & I <.X.^ Q ^ }  .} ^ / 1.1.I p H C.G # y l s # ",
"# j V V G C A.P * ^.;.! ! } %.g.k.g.o.E #.,.q.* G P V % s V j # ",
"# j Z Z V s V.P * /.-.^ ^ f.g.3.z.l.%.^ ..2.w.* V V G G s V j # ",
"# G S.A.J s N.J + ;.(.).&.*.*._ *.] ( ` d.d.t + M V P m.s V j # ",
"# s z z j y h s X e t.a.(.`.`.`._.j.h.e.] ` w X s s j j s V j # ",
"# b.G G S.F.S.H.a 8 E +.p.p.p.u.y.>.>.%.^ ' 5.g F.D.D.L s V j # ",
"# C.b.x G A.N.S.G : ) ..f.,.:.W W W E E ` w.4 J.I.I.I.N.z v.m # ",
"# C.b.j V S Z S V * W @.2.k.l.>.@.+.} ^ ] 0.- Y.I.I.I.N.z n.B # ",
"# N.J j M M M M x l 1 [ g.x.c.l.%.E ^ ' 8.n l T.I.I.I.N.z L m # ",
"# y u y y y y s s y i > [ O.j.h./ Q ~ 8.n N.V T.R.R.R.N.y h u # ",
"# d M M M M M C.B.h J.S < > r ^ Q 9 : 2 S.Z.M T.Q.Q.Q.V.A L.H # ",
"# j V V V V V A.F.x U.P M G : Y e < J G P.Z.u k s s s s C D.F # ",
"# s x x x x x M M s U.P V H : { T o V.J P.Z.z N.V M M M V Z j # ",
"# s k u y s s u y y U.P V V @ | | @ M b.P.Z.j G G G G G G G l # ",
"# P L.A B L L Z M s U.Z j > 5  . ., 4 b.N.v.h C.A.A.A.A.A.A.S # ",
"# b.I.A z Z V V V s V.0 6 T +.$.#._ w.q 3 d z j j j j j j j u # ",
"# b.I.F C G V V V u ; r.s.:.$.$.$.@.` e.7.a A.L L v.v.v.L v.C # ",
"# b.I.A B S V V V s b 4.^.i.3.3.2.#.Y 9 7 p F V S L L F G N.S # ",
"# b.I.A j V V V V s K.g ; 4.9.9.7.R 7 * = M V V V V V S m.S # # ",
"# b.I.A j V V V V s N.V j & X X X X O j j l l l l l l Z S # # # ",
"# B F.A x Z V V V y M C y # # y m s s s s z z z j d G A G G k # ",
"# z A.A C H Z V S s A.A.l s s h m.Z V V Z H L v.F S !.I.E.W.b.# ",
"# F L.F C n.H Z F s A.G V V V V V V V V V V S v.F G ~.I.I.I.b.# ",
"# j F z h B B k j y S l j j j j j j j j j j k B z l N.b.b.b.m # ",
"# # # # # # # # # # # # # # # # # # # # # # # # # # # # # # # # "
};
