/* XPM */
static char *a5f46198def24453a1f0929ef0cde14cH969fAR1oMBBE9QS[] = {
/* columns rows colors chars-per-pixel */
"32 32 195 2 ",
"   c #140D1C",
".  c #331F1F",
"X  c #0E1B2E",
"o  c #131223",
"O  c #1A1927",
"+  c #111B2D",
"@  c #191E2D",
"#  c #0F1E32",
"$  c #121E32",
"%  c #181F31",
"&  c #1B202A",
"*  c #05263B",
"=  c #0C243A",
"-  c #132135",
";  c #1A2434",
":  c #12243A",
">  c #1B293A",
",  c #2B272B",
"<  c #3D2C28",
"1  c #2A2A36",
"2  c #442B24",
"3  c #4B3629",
"4  c #533222",
"5  c #5C3629",
"6  c #58372C",
"7  c #5C3C31",
"8  c #643C2B",
"9  c #6B3E2B",
"0  c #4C402D",
"q  c #55452E",
"w  c #5E5433",
"e  c #5F563A",
"r  c #75442A",
"t  c #754B29",
"y  c #7C4C2C",
"u  c #615433",
"i  c #795330",
"p  c #7A723E",
"a  c #0F2740",
"s  c #062D45",
"d  c #0D2943",
"f  c #062F48",
"g  c #0C2E4A",
"h  c #122942",
"j  c #112B46",
"k  c #07314C",
"l  c #08334F",
"z  c #083552",
"x  c #063857",
"c  c #083856",
"v  c #063A5A",
"b  c #093B5B",
"n  c #183756",
"m  c #21364D",
"M  c #063E61",
"N  c #0A3F61",
"B  c #123F65",
"V  c #21435E",
"C  c #054165",
"Z  c #0A4164",
"A  c #06456B",
"S  c #09456C",
"D  c #07496F",
"F  c #09496F",
"G  c #14446B",
"H  c #064A73",
"J  c #0A4B74",
"K  c #064F7B",
"L  c #0B4F7A",
"P  c #124A74",
"I  c #06517D",
"U  c #0A517E",
"Y  c #6B5A4D",
"T  c #787644",
"R  c #7C7844",
"E  c #787D78",
"W  c #834B2E",
"Q  c #875126",
"!  c #8C522E",
"~  c #915627",
"^  c #975B27",
"/  c #92562D",
"(  c #955A2A",
")  c #9A5E29",
"_  c #854C30",
"`  c #894F30",
"'  c #8E5331",
"]  c #8E5C38",
"[  c #915430",
"{  c #925B34",
"}  c #A15F29",
"|  c #8D603A",
" . c #966137",
".. c #9B6335",
"X. c #9F6936",
"o. c #9C653D",
"O. c #996C3A",
"+. c #9E743E",
"@. c #9F783F",
"#. c #A2602B",
"$. c #AB662A",
"%. c #B46A2C",
"&. c #BA6E2D",
"*. c #BC702D",
"=. c #A36331",
"-. c #A36E38",
";. c #A87639",
":. c #A37A3F",
">. c #BA7A33",
",. c #C3742C",
"<. c #C57A2E",
"1. c #CE7B2D",
"2. c #D27D2C",
"3. c #C87E31",
"4. c #8F5E41",
"5. c #976340",
"6. c #9F764F",
"7. c #9D7551",
"8. c #A27746",
"9. c #D2822F",
"0. c #CC8232",
"q. c #C78639",
"w. c #D28532",
"e. c #D38C34",
"r. c #D08C3D",
"t. c #CC913A",
"y. c #D49137",
"u. c #D4953B",
"i. c #D59C3E",
"p. c #978946",
"a. c #958D46",
"s. c #97904A",
"d. c #AA8644",
"f. c #B79B49",
"g. c #AB8B50",
"h. c #BEA34C",
"j. c #A6A050",
"k. c #BBA951",
"l. c #8B8E7D",
"z. c #D39A42",
"x. c #C5A047",
"c. c #C5AC4E",
"v. c #D5A342",
"b. c #D6AA46",
"n. c #D2AE49",
"m. c #CBB24E",
"M. c #D6B44C",
"N. c #D8B74D",
"B. c #C4AD51",
"V. c #D6A354",
"C. c #CBB755",
"Z. c #D3BC53",
"A. c #D1BD5B",
"S. c #D1A967",
"D. c #D7BC63",
"F. c #C9C35A",
"G. c #D3C355",
"H. c #D8C354",
"J. c #D7C959",
"K. c #D8D05D",
"L. c #D9CA64",
"P. c #D6CF74",
"I. c #D9D473",
"U. c #095582",
"Y. c #045887",
"T. c #0B5788",
"R. c #05598A",
"E. c #0C5B8B",
"W. c #0A5D91",
"Q. c #0B6094",
"!. c #0C649B",
"~. c #0D66A0",
"^. c #0D6BA5",
"/. c #0A6BA8",
"(. c #106AA5",
"). c #0B74B2",
"_. c #0E77BA",
"`. c #0B7CBC",
"'. c #1277B4",
"]. c #1079B7",
"[. c #0D80C2",
"{. c #0F84C8",
"}. c #1181C3",
"|. c #1187CD",
" X c #1188CE",
".X c #959687",
"XX c #B4A885",
"oX c #BFB398",
"OX c #D8B780",
"+X c #CEBD97",
"@X c #CCC096",
"#X c #D0C39C",
"$X c #DCE09A",
"%X c #C5C5A9",
"&X c #DDE6B1",
/* pixels */
"* * * * * * * * * * * * * o         o * * * * * * * * * * * * * ",
"* * * Z Z z z s k z z z l = P P P J J U.U.U f C C C b z z Z M * ",
"* * Z T.J Z Z f c Z Z Z N k ).}.`.`.`.`.[.].x Y.Y.U.F Z Z T.U * ",
"* Z T.J Z Z Z f c Z N h - + b '.`.`.`.`.[.].b Q.J F Z Z Z T.U * ",
"* Z J Z Z Z Z f c a > E | Q 6 n B ).`.`.[.].x U Z Z Z Z U /.U.* ",
"* F !.!.!.!.!.c g O 6 %XD.w.&.~ 7 n G }. X).v Q.!.!.!.!./._.U * ",
"* z Z Z Z Z Z f d O / Y e h.n.r.XX{ 7 > j b f C Z Z Z Z Z Z z * ",
"* k c c U R.W.S c @ ) y 8 q w c.P.Z.h.( 6 % a A K Q.J * s c k * ",
"* z Z Z J A !.U Z z 2 #.! 9 8 q w F.G.0.*.( 6 > j L Z * k Z z * ",
"* z Z Z Z k W.U Z N @ #./ _ _ 9 9 0 w c.n.0.g.XXR > J J k Z z * ",
"* J ~.!.L k E.L Z N z < #.' _ ' %.r 8 3 u m.B.6.] 6 n U.k Z z * ",
"* k v v z s c z k s s O #./ ' *.,.[ W r 8 q @.x.%.y 3 = k Z z * ",
"* U.J J ~.^.^.(.!.c * = < W %.,.1.*.' ` ! #...0.&._ 5 - k Z z * ",
"* Q.U.b J ~.E.~.U b ; , ( %.4 4 %.,.,.&.[ -.h.=.&._ 5 : v U.M * ",
"* Q.U.c Z S Z Z > , p.;./ / $.$.4 4 %.,.,.q.c.=.&.' 8 : v Y.C * ",
"* E.L z b c m 1 a.k.O.' ] 4...,.%.} 2 4 %.,.u.h.=.,.y j v I M * ",
"* s f s X 1 .X%Xg.O.{ { oX%XC. .5. .{ ) 2 5 >.f.( ! V U.s x f * ",
"* l N b - l.S.z.M.Z.t.0.o.o.q.8.@XA.c.' ! #.3 3 5 m '.E.A ).K * ",
"* z Z Z - s.J.J.v.u.N.C.-.q.m.B.q.3.*.' X.t.f.( . + k k A /.H * ",
"* k b b - a.i.M.H.J.z.;.h.B.8.O.' '  .+.B.h...#.~ $ N N Z S c * ",
"* k x f + a.i.e.u.J.K.J.d.+.h.k.7.7.B.h...=.1.w.) : J J J J c * ",
"* U ).F $ a.b.L.I.K.A.K.Z.m.:.8.#X+Xo.=.1.1.y.N.) j !.!.!.!.F * ",
"* U.`.F $ p F.$X&XI.+.C.y.w.M.J.z.w.1.1.2.2.u.D.) + z z z z f * ",
"* U.`.D a ; T j.F.K.d.C.e.2.w.N.J.w.2.2.9.u.V.OX) : U.U.I Y.A * ",
"* U.`.D C S h ; R j.m.J.e.2.2.w.H.w.9.u.i.N.b.<.r : I H J E.F * ",
"* U.`.D c Z Z N h @ i p.0.2.2.w.H.w.i.N.b.<.) t - a Z F T.F * * ",
"* U.`.D c Z Z Z N s j ; y ( t.v.H.e.b.<.^ t @ - z c c S F * * * ",
"* C /.D b S Z Z Z s N Z # & R s.G.3.~ t ; = x v z l J A J J x * ",
"* v !.D A K S Z F k !.!.c f - ; p t ; h Z K I Y.H F |.`.[.{.U.* ",
"* H ).H A Y.K S H k !.J Z Z Z b a h N Z Z Z F Y.H J  X`.`.`.U.* ",
"* z H v x C C x z s F c z z z z z z z z z z x C v c E.U.U.U.M * ",
"* * * * * * * * * * * * * * * * * * * * * * * * * * * * * * * * "
};
