/* XPM */
static char *_2d3ce7f5c984364ba82971049e2abd8hsjxGHplqsDsRHWS[] = {
/* columns rows colors chars-per-pixel */
"32 32 183 2 ",
"   c #140D1C",
".  c #24161E",
"X  c #29191F",
"o  c #321E1F",
"O  c #131324",
"+  c #1B1522",
"@  c #1E1B26",
"#  c #141B2B",
"$  c #1C1D2B",
"%  c #151F32",
"&  c #241E28",
"*  c #1A232F",
"=  c #05263B",
"-  c #0A253C",
";  c #05283F",
":  c #162134",
">  c #1C2332",
",  c #15263A",
"<  c #152A3F",
"1  c #192A3F",
"2  c #2D2425",
"3  c #342222",
"4  c #3B2A26",
"5  c #3F3127",
"6  c #222633",
"7  c #263037",
"8  c #3B3736",
"9  c #463629",
"0  c #47392B",
"q  c #4A3B2A",
"w  c #543926",
"e  c #503B29",
"r  c #483A36",
"t  c #693C2A",
"y  c #50442E",
"u  c #4C4632",
"i  c #544835",
"p  c #595233",
"a  c #66452E",
"s  c #794825",
"d  c #74432C",
"f  c #7B4B2C",
"g  c #775333",
"h  c #062C44",
"j  c #082D45",
"k  c #062F49",
"l  c #162C45",
"z  c #132E4A",
"x  c #07314C",
"c  c #09334F",
"v  c #1F3143",
"b  c #13314F",
"n  c #063553",
"m  c #083552",
"M  c #073957",
"N  c #083856",
"B  c #063A5A",
"V  c #093B5B",
"C  c #143553",
"Z  c #21374F",
"A  c #2A3C4F",
"S  c #063E61",
"D  c #0A3F61",
"F  c #054164",
"G  c #0A4164",
"H  c #06456B",
"J  c #09456B",
"K  c #07496F",
"L  c #0A496F",
"P  c #064A73",
"I  c #0A4B73",
"U  c #064F7A",
"Y  c #0B4E7A",
"T  c #124A74",
"R  c #06517D",
"E  c #0A517D",
"W  c #4A4647",
"Q  c #7B7541",
"!  c #814F27",
"~  c #8E512F",
"^  c #91542F",
"/  c #975F2F",
"(  c #9B5D29",
")  c #854C30",
"_  c #8F5330",
"`  c #9B662D",
"'  c #9E6C31",
"]  c #906739",
"[  c #9F713B",
"{  c #A3672C",
"}  c #AC662B",
"|  c #AC722F",
" . c #BC712D",
".. c #A36E38",
"X. c #A57031",
"o. c #A3753C",
"O. c #B77833",
"+. c #C5772E",
"@. c #CF7C2D",
"#. c #D27D2C",
"$. c #C27732",
"%. c #C67C31",
"&. c #827D44",
"*. c #A77A46",
"=. c #D2822F",
"-. c #D38732",
";. c #CB953C",
":. c #D49238",
">. c #D59C3E",
",. c #868247",
"<. c #8B8546",
"1. c #9F9146",
"2. c #9C9549",
"3. c #9B9756",
"4. c #A98241",
"5. c #A68249",
"6. c #A39B4B",
"7. c #A99E4B",
"8. c #AA8653",
"9. c #ACA34E",
"0. c #B9A44D",
"q. c #AFA851",
"w. c #A5A159",
"e. c #B3AC54",
"r. c #B7B15D",
"t. c #CB9A42",
"y. c #D0994C",
"u. c #C99A5F",
"i. c #D59C53",
"p. c #C1A44C",
"a. c #CDB04B",
"s. c #D8BA4F",
"d. c #CCBC55",
"f. c #CABD5A",
"g. c #D5BC52",
"h. c #D8BC50",
"j. c #CDA56D",
"k. c #C9C158",
"l. c #CCC659",
"z. c #D7C657",
"x. c #D3C759",
"c. c #D5CB5A",
"v. c #DAD35E",
"b. c #CEC565",
"n. c #D9C666",
"m. c #DAD563",
"M. c #D7D26B",
"N. c #DAD578",
"B. c #055685",
"V. c #095582",
"C. c #045887",
"Z. c #0B5788",
"A. c #05598A",
"S. c #0B5B8B",
"D. c #065B90",
"F. c #0B5E92",
"G. c #0B6094",
"H. c #0C649B",
"J. c #0D66A0",
"K. c #066AA7",
"L. c #0A6CA8",
"P. c #106FA9",
"I. c #0C74B3",
"U. c #0E77BA",
"Y. c #0B7CBC",
"T. c #1079B7",
"R. c #117FC0",
"E. c #0D80C2",
"W. c #0F84C8",
"Q. c #1188CE",
"!. c #1189CE",
"~. c #858D87",
"^. c #8D9286",
"/. c #8B938C",
"(. c #979784",
"). c #ADAD8B",
"_. c #A8AF99",
"`. c #A8B09F",
"'. c #B9BFA3",
"]. c #DACC96",
"[. c #C9C7A3",
"{. c #D8DCB2",
"}. c #DCE3B2",
/* pixels */
"= = = = = = = = = = = = = O         O = = = = = = = = = = = = = ",
"= = = G G m m h x m m m c - T T T I I V.Z.E k F F F V m m G S = ",
"= = G Z.I G G k N G G G D x I.E.Y.Y.Y.Y.E.T.N C.C.B.L G G Z.E = ",
"= G Z.I G G G k N G G G D x L.R.Y.Y.Y.Y.E.T.V G.I L G G G Z.E = ",
"= G I G G G G k N G G G G x L.R.Y.Y.Y.Y.E.T.N E G G G G E L.V.= ",
"= L H.H.H.H.H.B V.H.H.H.F.N I.!.!.!.!.!.!.I.B H.H.H.H.H.L.U.E = ",
"= n G G G G G k B G G G F k J I I L I L I G k F G G G G G G n = ",
"= x N N E A.D.J N N N N V.C V.D.C.x Y x H P P P R G.I = k N x = ",
"= m G G I H H.E G G G D Z ~.A I I N l j J L L L I E G ; x G m = ",
"= m G G G x S.Y G G D 1 ^.u./ 6 N 7 &.* V G G G G G I I x G m = ",
"= I J.H.Y x z : m D V # W 0.w + c 2 X.@ N V V m < V E Z.x G m = ",
"= x B B n k # f 4 - h $ (.b.` . O 3 { X O $ O 8 Q : n n x G m = ",
"= V.I I J.J.z (.W - - @ r e.q . o ( ^ t 8 ^.+ 3 a z K.R x G m = ",
"= G.V.V I H.l 3.u @ & ! 9 9.5 ( } ^ _ ( 0 w.+ . X b Y.S.B B.S = ",
"= G.V.m G J : 2.u &.g w 9.k.q f ~ ) ) d y 6.3 d s b Y.S.B C.F = ",
"= Z.Y m D V : 2.p 2 4 X.z.x.r.i d ) d 9 0.| o 3 3 b Y.S.B R S = ",
"= k k h k h # 1.f.p ' g.d.5.[.'.r d t e a.@.} ] <.C Y.S.k N k = ",
"= c D D D V % ` h.l.c.c.o.p.*.f.O.9 e  .=.#. .[ 2.C Y.F.H I.U = ",
"= m G G G G % ( h.v.v.c...%.%.z.c.l.d.=.#.@. .4.2.# x x H K.P = ",
"= x V V V V % ( n.m.v.v.y.$.o.x.v.v.s.=.#.+.[ x.6.: D D G J m = ",
"= x M k k x # ' ].M.z.N.{.8.d.v.v.h.-.#.@. .4.v.6., I I I I N = ",
"= E I.H F U z &.q.t.i.].}.M.v.v.h.-.#.#.%.4.k.q.&.C H.H.H.H.L = ",
"= V.Y.K B J G < > ,.).j.N.N.m.c.>.:.:.:.;.7.,.> , n n n n n k = ",
"= V.Y.P H I G G V : Z /.`._.w.6.6.6.6.6.,.v C U R C.C.B.R C.H = ",
"= V.Y.K F L G G G x P.b : : : # # : : : < U U G L R R P I Z.L = ",
"= V.Y.K m G G G G x I.E G G V ; ; V G G G G G G G G G L Z.L = = ",
"= V.Y.K m G G G G x Z.G N N m ; ; m N N N N N N N N N J L = = = ",
"= F L.K V J G G G k D H k = = h S x x x x B B B n c I H I I M = ",
"= B H.K H U J G L x H.H.N x x N Z.J G G G U R C.P L !.Y.E.W.V.= ",
"= P I.P H C.U J P x H.I G G G G G G G G G G L C.P I !.Y.Y.Y.V.= ",
"= n P B N F F M m h L N m m m m m m m m m m M F B N S.V.V.V.S = ",
"= = = = = = = = = = = = = = = = = = = = = = = = = = = = = = = = "
};
