/* XPM */
static char *result[] = {
/* columns rows colors chars-per-pixel */
"32 32 207 2 ",
"   c #130F20",
".  c #181222",
"X  c #04273C",
"o  c #05283E",
"O  c #09293E",
"+  c #4D3D30",
"@  c #4B4239",
"#  c #51443B",
"$  c #052A43",
"%  c #0C2C41",
"&  c #06324C",
"*  c #073653",
"=  c #0A3854",
"-  c #083856",
";  c #063B5B",
":  c #093D5D",
">  c #093E61",
",  c #09405F",
"<  c #1C405A",
"1  c #364E59",
"2  c #34515F",
"3  c #064166",
"4  c #0A4265",
"5  c #06456B",
"6  c #094469",
"7  c #09486E",
"8  c #164464",
"9  c #1C4965",
"0  c #1C4C6B",
"q  c #064771",
"w  c #084770",
"e  c #054A73",
"r  c #0B4B74",
"t  c #064E79",
"y  c #0B4E7A",
"u  c #05527D",
"i  c #0A517D",
"p  c #1D577B",
"a  c #24506B",
"s  c #385463",
"d  c #275775",
"f  c #3D647C",
"g  c #46575E",
"h  c #655649",
"j  c #775745",
"k  c #7B604F",
"l  c #7C6251",
"z  c #456478",
"x  c #855E4F",
"c  c #876A57",
"v  c #916D58",
"b  c #8C705B",
"n  c #93745B",
"m  c #99755B",
"M  c #A1785E",
"N  c #8C7865",
"B  c #957965",
"V  c #9C7B65",
"C  c #9C7F69",
"Z  c #A07763",
"A  c #A27E65",
"S  c #9E836C",
"D  c #9B856E",
"F  c #9A8677",
"G  c #A48365",
"H  c #A6856D",
"J  c #AC856C",
"K  c #AD8A6C",
"L  c #B2906C",
"P  c #A78C76",
"I  c #AC8B72",
"U  c #B68D72",
"Y  c #A59178",
"T  c #AF947E",
"R  c #B49274",
"E  c #BB9576",
"W  c #BA957A",
"Q  c #B69879",
"!  c #BC9A7D",
"~  c #C29875",
"^  c #C29B7A",
"/  c #C5A17C",
"(  c #CBA17E",
")  c #055382",
"_  c #0A5483",
"`  c #095788",
"'  c #0B5B8D",
"]  c #135E8C",
"[  c #0B659C",
"{  c #09669C",
"}  c #116B9F",
"|  c #2A6387",
" . c #346685",
".. c #246993",
"X. c #36749C",
"o. c #0969A2",
"O. c #0A6DAA",
"+. c #0B71AC",
"@. c #1C72A5",
"#. c #0B75B3",
"$. c #0C7CBC",
"%. c #177AB5",
"&. c #2572A0",
"*. c #416E8B",
"=. c #53758A",
"-. c #597D94",
";. c #617B89",
":. c #1E82BE",
">. c #2F83B2",
",. c #58829B",
"<. c #70828E",
"1. c #678597",
"2. c #798D96",
"3. c #4C87A7",
"4. c #5694B6",
"5. c #6890A9",
"6. c #0D80C1",
"7. c #1281C4",
"8. c #879195",
"9. c #989B99",
"0. c #AB9786",
"q. c #B49882",
"w. c #BB9C83",
"e. c #B69D8A",
"r. c #BBA48B",
"t. c #AEA49A",
"y. c #B7A89B",
"u. c #96A6AD",
"i. c #96ADB7",
"p. c #A6AAA6",
"a. c #BEB5A6",
"s. c #A4AFB5",
"d. c #A8B6BC",
"f. c #C29E81",
"g. c #C4A284",
"h. c #CAA483",
"j. c #CBA984",
"k. c #C4A58B",
"l. c #CAA789",
"z. c #CBAB8D",
"x. c #D3AC86",
"c. c #D9AE8C",
"v. c #D7B38C",
"b. c #DAB48D",
"n. c #DAB68C",
"m. c #C3AB94",
"M. c #C8AD95",
"N. c #D2AF91",
"B. c #CCB093",
"V. c #CCB69D",
"C. c #D4B294",
"Z. c #DAB692",
"A. c #D7B994",
"S. c #DFBC95",
"D. c #D5B699",
"F. c #D5BA9D",
"G. c #DCBC9C",
"H. c #E1BD95",
"J. c #E2BE9D",
"K. c #CBB6A3",
"L. c #C5B8AC",
"P. c #CCBBAA",
"I. c #D3BCA4",
"U. c #DABEA3",
"Y. c #D2BDAA",
"T. c #C7BEB5",
"R. c #DFC29D",
"E. c #E4C39D",
"W. c #E9C59D",
"Q. c #D9C2A4",
"!. c #D6C4AB",
"~. c #DAC4AC",
"^. c #CBC2B5",
"/. c #D3C6B3",
"(. c #D6C8B5",
"). c #DBC9B3",
"_. c #D5CBBC",
"`. c #DECEBC",
"'. c #E4C3A3",
"]. c #E6C7A5",
"[. c #EAC9A4",
"{. c #EBCBAB",
"}. c #EFD1AE",
"|. c #F2D0AD",
" X c #E1CBB6",
".X c #E9D3B7",
"XX c #F1D4B3",
"oX c #A4BCC9",
"OX c #ACC0CB",
"+X c #BCD7E2",
"@X c #C2C6CA",
"#X c #D8CCC1",
"$X c #DCD3C4",
"%X c #DED6CA",
"&X c #DED8CA",
"*X c #DEDAD4",
"=X c #E0CFC7",
"-X c #E1D6C6",
";X c #E4D7C7",
":X c #E3DACC",
">X c #EBDCCC",
",X c #E5DDD3",
"<X c #EBE2D4",
"1X c #E8E4DA",
"2X c #EBE5DA",
"3X c #DDE1E4",
"4X c #E9E7E5",
/* pixels */
"X X O X X X X O O X X X X     . . . . X O O o o o o o X o X o X ",
"X X * ' w > - & = , , , 9 < %.3X4X4X&.%.:.+.5 e u u t 4 , 3 { o ",
"X * ' r 4 4 : & , 4 a a @XK.D D H D Y a.+X>.p e ` u 7 4 4 7 O.X ",
"O ' r 4 4 4 - * , d d.r.n G K L Q Q Q r.y.`.OX..t 6 4 4 4 i O.o ",
"$ y y y r r 6 = d d.B.L ~ / / / / j.B.B.V.!.-XoX| r r r i O.O.$ ",
"X ` ' ' ' ' y d s.Q.( n.n.b.v.b.v.R.F.R.R.!.!.:XoX&.' ' ' [ [ O ",
"X ; > > w e 6 ;.F.S.E.H.n.n.n.v.v.A.R.F.!.!.`.`.:X1.w > - : ; X ",
"X ; : > i _ X.p.R.W.W.E.n.b.v.v.v.A.B.R.Q.(..X&X#XoX .& $ ; - X ",
"X : 4 4 w r 5..X].{.[.H.H.c.x.x.x.B.C.C.R.!.;X<X,X4X,.; $ > > X ",
"X w y r : 8 1.U.{.}.W.S.b.x.x.j.j.j.z.B.I.~.;X4X4X,X-.i * > , X ",
"$ _ ' _ : z ^.R.}.}.[.S.v.j.h./ / ! g.k.M.I.&X2X2X:X=._ * , : X ",
"X 6 ; 3 ; -.<XR.XX}.E.v.x.( ^ ! E Q ! r.r.I.;X2X,X$X2.0 & : , X ",
"$ O.- ' } 4.>XG.}.}.J.c.h.^ ^ E R R L ! m.K.$X1X:X`.u...* 4 4 X ",
"$ 7.= 4 y 3.K.J.{.{.J.N.h.^ ^ E E R ! w.k.V.`.,X&X`.5.@.; t u X ",
"$ 7.= : > z E G.{.U.z.^ E E ^ E R R H H H e./.1X&X_.u.&.; u ) X ",
"$ $.* : > s R G.'.D.W K K U g.! R I C b N S e._.:X_.4.o.; u ) X ",
"X O X X X 1 r.'.J.C.w.Z v q.N.N.! q.B l l N 0.P.%X/.3.o.* o o X ",
"X : : 4 : =.).'.D.K.B + h Z U.D.V.L.l h h N a.L.&Xa.4.+.5 O.O.o ",
"X : 4 4 9 8.>X'.'.M.c # + w.J.J.~.$XY @ @ h F Y.$Xy.g * * o.o.o ",
"X : ; : s M ~ {.XX{.N.f.A C.W.H.'.,XL.B P m.#X2X,X0.N 2 > 5 5 X ",
"X - ; & 2 F A ].XX{.Z.c.c.].J.c.D.:X=Xf.e.M. X2X,X0.y.*.t r w o ",
"X { { *  .9.H ].XX|.J.c.h.c.~ ( ! q.M.E l.Y.;X2X&Xt.u.X.' ' ` o ",
"X #.O.* > f k.J.|.|.H.h.~ f.Z ~ I v w.A w.I.;X,X_.*X-.3 5 5 3 X ",
"X #.+.; w | 9.D.{.{.c.h.f.N.z.U q.e.A Z U M.=X>Xa.8...e 7 q u X ",
"o #.+.; 5 5 1.!.'.J.N.f.^ l.f.U q.r.G m J r.I._.#X3._ u r i ' o ",
"o #.+.; , 3 5.>XJ.D.f.J v J Z x c b l j n P m.!.p. .6 r r _ : X ",
"o #.+.* : 4 z 9.k.N.! V A I v j j l k j n C q./.2.= : 4 i = X X ",
"o { +.; : 4 8 2.K.f.! I f.f.w.A C V C c b B 0.8.a & = > 3 ; * X ",
"X 5 o.; 7 7 4 d f <.E I z.D.h.J K T T B b 0.i.] 5 3 { +.+.$.o.$ ",
"o o.+.; u u 5 5 3 0 | d.T.M.W V V P 0.@X9 a d ) e r #.6.:.$.#.o ",
"o ) { ; e ) t 5 - > _ p 0 ;.,X4X4X4X8 0 , , 3 u e 5 +.$.#.#.O.o ",
"X o o o X o X X X X X O O % O % O O X X X X X X o o o o o o o o "
};
