/* XPM */
static char *f0e3ac1041f245bdc7280fb3a37ae2e2CsGClyUVkSs9NflM[] = {
/* columns rows colors chars-per-pixel */
"32 32 7 1 ",
"  c None",
". c #140C1C",
"X c #DEEED6",
"o c #D27D2C",
"O c #854C30",
"+ c #DAD45E",
"@ c #30346D",
/* pixels */
"                                ",
"                                ",
"                                ",
"           ....                 ",
"         ..XooO..               ",
"        ..OX+oooO..             ",
"         .o..++oXoO..           ",
"         .oOO..++++oO..         ",
"          .oOOO..++oooO..       ",
"          .oOOOOO..++ooX+.      ",
"           .oOOOoOO..++OOO.     ",
"           .oOOooOOOO.O+oOO.    ",
"            .OooooOOOoOooOO.    ",
"          ..oo..ooooOO+OoOO.    ",
"        ..+oOOoo..oooo+OoOO.    ",
"      ..++OOOOOooo..ooo+Ooo.    ",
"    ..XXOOOOXX+OOOOo..o+Oo.     ",
"    .Xoo++ooOOoOX++OOo..O.      ",
"    .+++oo++Oo++oooOOo+o..      ",
"    .+o+++oO++OOOOOO++OOo.      ",
"    .+ooo+++OO++OO++OOooo.      ",
"    .+o+++++++OOXXOOooo+o.      ",
"    .++XX+O+oo++ooooooo+o.      ",
"    ..++++O+ooo++ooooooXo.      ",
"      ..++++oooo+oooo++oo.      ",
"        ..o+oooo+oo++ooo..      ",
"          ..oooo+o+ooo..        ",
"            ..+++ooo..          ",
"              ..+o..            ",
"                ..              ",
"                                ",
"                                "
};
