/* XPM */
static char *_e0db9ccab884f96a2b2e6189eff77d5VvIciL2n6lcY62oH[] = {
/* columns rows colors chars-per-pixel */
"32 32 7 1 ",
"  c None",
". c #140C1C",
"X c #DEEED6",
"o c #DAD45E",
"O c #D27D2C",
"+ c #854C30",
"@ c #30346D",
/* pixels */
"                                ",
"                                ",
"                                ",
"                                ",
"             ....               ",
"            .Xooo.              ",
"           .Xooooo.             ",
"           .OooooO.             ",
"           .+OoOO+.             ",
"           .O++++O.             ",
"           .+OoOO+...           ",
"           .O++++O.oo.          ",
"           .+OoOO+.ooo.         ",
"         ....++++O.ooO.         ",
"        .oooo.oOO+.OO.          ",
"       .oooooo.++O...           ",
"       .OooooO.OO+.             ",
"     ...+OoOO+.++....           ",
"     .O.O++++O.O.oooo.          ",
"     .o.+OoOO+..oooooo.         ",
"     .o.++......OooooO.         ",
"     .O.O.XXoo..+OoOO+.         ",
"     .O..XXOOoO.O++++O.         ",
"     ....XOoooO..OoOO. ....     ",
"        .oOoooO...... .oooo.    ",
"        .oooooO.o.   .oooooo.   ",
"         .OOoo.oO.   .OooooO.   ",
"          ....OO.     .OoOO.    ",
"            ....       ....     ",
"                                ",
"                                ",
"                                "
};
