/* XPM */
static char *_ad6815351ca416d96c2af838ac258aftgGw9mU4JksxVlfk[] = {
/* columns rows colors chars-per-pixel */
"32 32 10 1 ",
"  c None",
". c #DAD45E",
"X c #D27D2C",
"o c #DEEED6",
"O c #140C1C",
"+ c #DEEED6",
"@ c #DAD45E",
"# c #D27D2C",
"$ c #854C30",
"% c #30346D",
/* pixels */
"                                ",
" OOO                            ",
" O+@O                           ",
" O@#$O                          ",
"  O@#$O                         ",
"   O@#$O   .X                   ",
"    O@#$O .XXOOO                ",
"     O@#$O. O@#O                ",
"      O@#$OO@##O    OOOO        ",
"       O@#$O@OO    O+++@O       ",
"     oX O##@$O    O+@@@@@O      ",
"    oX OO@+$$#OOOOOO@@@@#O      ",
"    XXO+#@$$#@#O+++@$@##OO      ",
"     O+#OO$#+#@#O@@@@$$$#O      ",
"     O##O O@@+#@#O@@#$##OO      ",
"     OOO  OO@@+#@#O#OOOOOOO     ",
"          O#O@@+#OOO++O+++@O    ",
"       OOO$$#O@@O$+@@O+@@@@@OOO ",
"      O+++@$OOOO#$#@@O#@@@@#O#O ",
"     O+@@@@O+++@O$$#@O$#@##$O@O ",
"     O#@OOOO@@@@@O@$$O#$$$$#O@O ",
"      OO+@@@O@@@#O@@@O$#@##$O#O ",
"      O+@@@@@O##$O#@#O#$$$$#O#O ",
"      O#@@@@#O$$#OOOOO$#@##$OOO ",
"     O+#$@##$O##O    O#$$$$#O   ",
"    O++#$$$$#OOO OOOO O#@##O    ",
"    O+@#$@##$O  O+++@O OOOO     ",
"    O+@#$$$$#O O+@@@@@O         ",
"    O@@#O@##O  O#@@@@#O         ",
"    O@#$OOOO    O#@##O          ",
"     OOO         OOOO           ",
"                                "
};
