/* XPM */
static char *_19f34c697624a57e7f2547e2dfe054cXq79oIgScVN6EC0k[] = {
/* columns rows colors chars-per-pixel */
"32 32 7 1 ",
"  c None",
". c #140C1C",
"X c #DAD45E",
"o c #854C30",
"O c #D27D2C",
"+ c #DEEED6",
"@ c #30346D",
/* pixels */
"                                ",
"                                ",
"                                ",
"                                ",
"            ........            ",
"          ..XXXXXXXX..          ",
"         .XXooooooooXX.         ",
"        .XOooooOOOooOOX.        ",
"        .+oooOOXXXOoOOX.        ",
"        .+oooXXOXXOooOX.        ",
"        .O++ooooooooXXo.        ",
"        .oOO+++++XXXooo.        ",
"        .ooOOOOOOOOOooX.        ",
"         .OoXOOooooooX.         ",
"         .OOOXXOOOOooX.         ",
"          .OXXXXOoooX.          ",
"           .OOXXoooX.           ",
"            ..oooo..            ",
"              .oo.              ",
"              .Oo.              ",
"              .OO.              ",
"             ..OO..             ",
"           ..oOOOoX..           ",
"          .XOOOOOOoXX.          ",
"          .X+OOOOOooo.          ",
"           ..XXXXOo..           ",
"             ......             ",
"                                ",
"                                ",
"                                ",
"                                ",
"                                "
};
