/* XPM */
static char *_13befd7dc474559d81c81343c48d75cY5VqIn3XlBkYtJvf[] = {
/* columns rows colors chars-per-pixel */
"32 32 7 1 ",
"  c None",
". c #140C1C",
"X c #DEEED6",
"o c #D27D2C",
"O c #DAD45E",
"+ c #854C30",
"@ c #30346D",
/* pixels */
"                                ",
"                                ",
"                                ",
"                                ",
"                                ",
"                                ",
"                                ",
"             .                  ",
"            .X.   .             ",
"           .Xoo. .O.            ",
"      ..   ..O.. .o.    .       ",
"      .o.  .XOo...o.....O.      ",
"      .X.  ..O...o++.X..+.      ",
"      .O...o.O.oo++o.O....      ",
"      .O.O+.OO.+++++.O.+o.      ",
"      .O...oOOO.+++.Oo....      ",
"      .OO.oOO+XX.++.Ooo+O.      ",
"      .oOOOO+O+Oo..oooo+O.      ",
"      .oOOOO+ooOOOOoooo+O.      ",
"      .oOOOOoo+OOOOooo+OO.      ",
"      .oXOOOX+OOOOoooo+OO.      ",
"      .OOooXXOOOOoooo+OOO.      ",
"       ..OXoOOOOoooooOO..       ",
"         ..XXXOOOOOOO..         ",
"           ..........           ",
"                                ",
"                                ",
"                                ",
"                                ",
"                                ",
"                                ",
"                                "
};
